<svg width="217" height="1097" viewBox="0 0 217 1097" fill="none" xmlns="http://www.w3.org/2000/svg">
<path d="M90.937 0.0332031H30.937C14.3685 0.0332031 0.937012 13.4647 0.937012 30.0332V121.23C0.937012 129.515 7.65274 136.23 15.937 136.23C24.2213 136.23 30.937 129.515 30.937 121.23V45.0332C30.937 36.7489 37.6527 30.0332 45.937 30.0332H75.937C84.2213 30.0332 90.937 36.7489 90.937 45.0332V226.231C90.937 242.799 104.368 256.231 120.937 256.231H165.937C174.221 256.231 180.937 262.946 180.937 271.231C180.937 279.515 174.221 286.231 165.937 286.231H90.937C74.3685 286.231 60.937 299.662 60.937 316.231V376.231C60.937 392.799 74.3685 406.231 90.937 406.231H120.937V496.23C104.368 496.23 90.937 509.662 90.937 526.23V601.23C90.937 609.515 97.6527 616.23 105.937 616.23C114.221 616.23 120.937 609.515 120.937 601.23V526.231C137.506 526.231 150.937 512.799 150.937 496.231V406.231C150.937 389.662 137.506 376.231 120.937 376.231H90.937V316.231H165.937C190.79 316.231 210.937 296.083 210.937 271.231C210.937 246.378 190.79 226.231 165.937 226.231H120.937V30.0332C120.937 13.4647 107.506 0.0332031 90.937 0.0332031Z" fill="#A4DDD4"/>
<path d="M171.937 766.231H120.937V661.23C120.937 652.946 114.221 646.23 105.937 646.23C97.6527 646.23 90.937 652.946 90.937 661.23V766.231C90.937 782.799 104.368 796.231 120.937 796.231H171.937C180.221 796.231 186.937 802.947 186.937 811.231V1036.23H120.937C104.368 1036.23 90.937 1049.66 90.937 1066.23V1081.23C90.937 1089.51 97.6527 1096.23 105.937 1096.23C114.221 1096.23 120.937 1089.51 120.937 1081.23V1066.23H186.937C203.506 1066.23 216.937 1052.8 216.937 1036.23V811.231C216.937 786.378 196.79 766.231 171.937 766.231Z" fill="#A4DDD4"/>
<path d="M30.937 181.23V436.231C47.5056 436.231 60.937 449.662 60.937 466.231V511.231C60.937 519.515 54.2213 526.231 45.937 526.231C37.6527 526.231 30.937 519.515 30.937 511.231V466.231C14.3685 466.231 0.937012 452.799 0.937012 436.231V181.23C0.937012 172.946 7.65274 166.23 15.937 166.23C24.2213 166.23 30.937 172.946 30.937 181.23Z" fill="#A4DDD4"/>
<path d="M60.937 571.23V706.231C60.937 722.799 47.5056 736.231 30.937 736.231V826.231H90.937C107.506 826.231 120.937 839.662 120.937 856.231V946.23C120.937 962.799 107.506 976.23 90.937 976.23H30.937V1081.23C30.937 1089.51 24.2213 1096.23 15.937 1096.23C7.65274 1096.23 0.937012 1089.51 0.937012 1081.23V976.23C0.937012 959.662 14.3685 946.23 30.937 946.23H90.937V856.231H30.937C14.3685 856.231 0.937012 842.799 0.937012 826.231V736.231C0.937012 719.662 14.3685 706.231 30.937 706.231V571.23C30.937 562.946 37.6527 556.23 45.937 556.23C54.2213 556.23 60.937 562.946 60.937 571.23Z" fill="#A4DDD4"/>
</svg>
