<svg width="327" height="1304" viewBox="0 0 327 1304" fill="none" xmlns="http://www.w3.org/2000/svg">
<path fill-rule="evenodd" clip-rule="evenodd" d="M237.565 515.319V413.924C237.565 397.356 224.134 383.924 207.565 383.924L178.577 383.924V206.96H237.059C253.628 206.96 267.059 193.528 267.059 176.96V30.501C267.059 13.9325 253.628 0.501006 237.059 0.501L179.083 0.500977C162.514 0.50097 149.083 13.9324 149.083 30.501V88.9832H45.8534C21.4197 88.9832 1.61223 108.791 1.61223 133.224C1.61223 157.658 21.4197 177.466 45.8534 177.466H90.0945V236.454H30.9946C14.4261 236.454 0.994648 249.885 0.994648 266.454V339.683C0.994648 347.827 7.59712 354.43 15.7417 354.43C23.8863 354.43 30.4887 347.827 30.4887 339.683V265.948H89.5886C106.157 265.948 119.589 252.516 119.589 235.948V177.971C119.589 161.403 106.157 147.971 89.5886 147.971H45.5029C37.3583 147.971 30.7559 141.369 30.7559 133.224C30.7559 125.08 37.3584 118.477 45.5029 118.477H148.577C165.145 118.477 178.577 105.046 178.577 88.4773V29.995L237.565 29.9951V177.466H179.083C162.514 177.466 149.083 190.897 149.083 207.466V383.418C149.083 399.987 162.514 413.418 179.083 413.418H208.071V515.319C208.071 523.464 214.673 530.066 222.818 530.066C230.962 530.066 237.565 523.464 237.565 515.319ZM193.324 723.387L268.089 723.387C276.234 723.387 282.836 716.784 282.836 708.64C282.836 700.495 276.234 693.893 268.089 693.893L193.324 693.893C185.179 693.893 178.577 687.29 178.577 679.146C178.577 671.001 185.179 664.398 193.324 664.398H207.565C224.133 664.399 237.565 650.967 237.565 634.399V574.308C237.565 566.163 230.962 559.56 222.818 559.56C214.673 559.56 208.071 566.163 208.071 574.308V634.904H193.324C168.89 634.904 149.083 654.712 149.083 679.146C149.083 703.579 168.89 723.387 193.324 723.387ZM0.994629 835.869V975.156C0.994629 991.725 14.4261 1005.16 30.9946 1005.16H119.589V1194.58C119.589 1194.92 119.601 1195.26 119.624 1195.6L119.162 1258.45C118.981 1283.13 138.937 1303.23 163.616 1303.23C188.168 1303.23 208.072 1283.33 208.072 1258.78V915.322C208.072 898.754 194.64 885.322 178.072 885.322H125.937V766.222L237.566 766.223V841.082C237.566 849.226 244.168 855.829 252.313 855.829C260.457 855.829 267.06 849.226 267.06 841.082V766.729C267.06 750.16 253.629 736.729 237.06 736.729L126.358 736.728C109.823 736.728 96.4049 750.108 96.358 766.643L96.0221 885.237C95.9751 901.839 109.42 915.322 126.022 915.322H178.578V1258.23C178.578 1266.51 171.862 1273.23 163.578 1273.23H163.155C154.871 1273.23 148.155 1266.51 148.155 1258.23V1167.23H148.083V1003.23C148.083 986.662 134.651 973.23 118.083 973.23H30.6193L30.4887 835.869C46.85 835.869 60.1134 822.606 60.1134 806.245V678.865H89.5886C106.157 678.865 119.589 665.433 119.589 648.865V583.219H148.866C165.321 583.219 178.705 569.964 178.865 553.51L179.643 473.351C179.805 456.669 166.327 443.06 149.644 443.06H30.4887V398.671C30.4887 390.526 23.8863 383.924 15.7417 383.924C7.59712 383.924 0.994648 390.526 0.994648 398.671V442.588C0.994648 459.156 14.4261 472.588 30.9946 472.588H149.083V553.23H120.231C103.663 553.23 90.2311 566.662 90.2311 583.23V619.877V649.371H60.5944C44.0356 649.371 30.6082 662.787 30.5944 679.346L30.4887 806.375C14.1996 806.375 0.994629 819.58 0.994629 835.869ZM296.554 1166.58V1201.47C296.554 1209.61 289.952 1216.22 281.807 1216.22C273.662 1216.22 267.06 1209.61 267.06 1201.47V900.07C267.06 891.925 260.457 885.323 252.313 885.323C244.168 885.323 237.566 891.925 237.566 900.07V1201.47C237.566 1225.9 257.373 1245.71 281.807 1245.71C306.241 1245.71 326.048 1225.9 326.048 1201.47V1166.58C326.048 1158.43 319.446 1151.83 311.301 1151.83C303.156 1151.83 296.554 1158.43 296.554 1166.58Z" fill="#F28EC0"/>
</svg>
