<svg width="529" height="193" viewBox="0 0 529 193" fill="none" xmlns="http://www.w3.org/2000/svg">
<path d="M262.998 91.5523V14.9995C262.998 6.94039 269.531 0.407227 277.591 0.407227C285.65 0.407227 292.183 6.94039 292.183 14.9995V91.5523C292.183 115.73 272.583 135.329 248.406 135.329C224.229 135.329 204.629 115.73 204.629 91.5523V46.2077H159.825C151.766 46.2077 145.233 39.6745 145.233 31.6155C145.233 23.5564 151.766 17.0232 159.825 17.0232H203.814C220.382 17.0232 233.814 30.4547 233.814 47.0232V91.5523C233.814 99.6114 240.347 106.145 248.406 106.145C256.465 106.145 262.998 99.6114 262.998 91.5523Z" fill="#A4DDD4"/>
<path d="M0.337891 162.033V47.0232C0.337891 30.4547 13.7693 17.0232 30.3379 17.0232H104.484C112.543 17.0232 119.076 23.5564 119.076 31.6155C119.076 39.6745 112.543 46.2077 104.484 46.2077H29.5224V162.946H88.8642V118.683C88.8642 94.7739 108.246 75.3922 132.155 75.3922C156.063 75.3922 175.445 94.7739 175.445 118.683V162.946H350.552V47.0232C350.552 30.4547 363.983 17.0232 380.552 17.0232H423.513C431.572 17.0232 438.105 23.5564 438.105 31.6155C438.105 39.6745 431.572 46.2077 423.513 46.2077H379.736V162.033C379.736 178.602 366.305 192.033 349.736 192.033H177.233C160.665 192.033 147.233 178.602 147.233 162.033V120.737C147.233 112.678 140.7 106.145 132.641 106.145C124.582 106.145 118.049 112.678 118.049 120.737V162.033C118.049 178.602 104.617 192.033 88.0487 192.033H30.3379C13.7694 192.033 0.337891 178.602 0.337891 162.033Z" fill="#A4DDD4"/>
<path d="M499.035 177.441V46.3946L481.816 46.2932C473.78 46.2459 467.29 39.7176 467.29 31.6808C467.29 23.5929 473.859 17.0434 481.947 17.0682L498.311 17.1183C514.844 17.169 528.219 30.5856 528.219 47.1182V177.441C528.219 185.5 521.686 192.033 513.627 192.033C505.568 192.033 499.035 185.5 499.035 177.441Z" fill="#A4DDD4"/>
</svg>
