<svg width="529" height="193" viewBox="0 0 529 193" fill="none" xmlns="http://www.w3.org/2000/svg">
<path d="M263.061 91.5523V14.9995C263.061 6.94039 269.594 0.407227 277.653 0.407227C285.712 0.407227 292.245 6.94039 292.245 14.9995V91.5523C292.245 115.73 272.646 135.329 248.469 135.329C224.291 135.329 204.692 115.73 204.692 91.5523V46.2077H159.888C151.829 46.2077 145.296 39.6745 145.296 31.6155C145.296 23.5564 151.829 17.0232 159.888 17.0232H203.876C220.445 17.0232 233.876 30.4547 233.876 47.0232V91.5523C233.876 99.6114 240.41 106.145 248.469 106.145C256.528 106.145 263.061 99.6114 263.061 91.5523Z" fill="#F28EC0"/>
<path d="M0.400391 162.033V47.0232C0.400391 30.4547 13.8318 17.0232 30.4004 17.0232H104.546C112.605 17.0232 119.138 23.5564 119.138 31.6155C119.138 39.6745 112.605 46.2077 104.546 46.2077H29.5849V162.946H88.9267V118.683C88.9267 94.7739 108.308 75.3922 132.217 75.3922C156.126 75.3922 175.507 94.7739 175.507 118.683V162.946H350.614V47.0232C350.614 30.4547 364.046 17.0232 380.614 17.0232H423.576C431.635 17.0232 438.168 23.5564 438.168 31.6155C438.168 39.6745 431.635 46.2077 423.576 46.2077H379.799V162.033C379.799 178.602 366.367 192.033 349.799 192.033H177.296C160.727 192.033 147.296 178.602 147.296 162.033V120.737C147.296 112.678 140.762 106.145 132.703 106.145C124.644 106.145 118.111 112.678 118.111 120.737V162.033C118.111 178.602 104.68 192.033 88.1112 192.033H30.4004C13.8319 192.033 0.400391 178.602 0.400391 162.033Z" fill="#F28EC0"/>
<path d="M499.097 177.441V46.3946L481.879 46.2932C473.842 46.2459 467.352 39.7176 467.352 31.6808C467.352 23.5929 473.922 17.0434 482.01 17.0682L498.374 17.1183C514.906 17.169 528.282 30.5856 528.282 47.1182V177.441C528.282 185.5 521.748 192.033 513.689 192.033C505.63 192.033 499.097 185.5 499.097 177.441Z" fill="#F28EC0"/>
</svg>
