<svg width="240" height="910" viewBox="0 0 240 910" fill="none" xmlns="http://www.w3.org/2000/svg">
<path d="M90.8242 865.982V823.296L195.466 823.359C219.777 823.374 239.492 803.528 239.492 779.217C239.492 754.916 219.793 735.075 195.492 735.075H167.472V731.405C167.472 723.276 160.882 716.687 152.753 716.687C144.624 716.687 138.034 723.276 138.034 731.405V742.61C138.034 754.776 147.91 764.633 160.076 764.61L200.37 764.533C206.453 764.521 211.391 769.45 211.391 775.533V782.966C211.391 789.034 206.476 793.957 200.408 793.966L120.031 794.089H81.785C69.6347 794.089 59.7849 803.939 59.7849 816.089V869.544C59.7849 875.62 54.8601 880.544 48.7849 880.544H41.3477C35.2726 880.544 30.3477 875.62 30.3477 869.544V779.37C30.3477 771.241 23.758 764.652 15.6291 764.652C7.50023 764.652 0.910483 771.241 0.910483 779.37V865.982C0.910483 890.282 20.61 909.982 44.9105 909.982H46.8242C71.1247 909.982 90.8242 890.282 90.8242 865.982Z" fill="#A4DDD4"/>
<path d="M82.8628 530.591H45.5337C20.889 530.591 0.910483 550.57 0.910483 575.215C0.910483 599.859 20.889 619.838 45.5338 619.838H68.0399C75.4688 619.838 81.4911 625.86 81.4911 633.289C81.4911 640.718 75.4688 646.74 68.0399 646.74H30.9105C14.342 646.74 0.910483 660.172 0.910483 676.74V720.356C0.910483 728.485 7.50023 735.075 15.6291 735.075C23.758 735.075 30.3477 728.485 30.3477 720.356V676.301H67.4273C91.3251 676.301 110.698 656.928 110.698 633.03C110.698 609.132 91.3251 589.759 67.4273 589.759H45.3093C37.0462 589.759 30.3477 583.061 30.3477 574.798C30.3477 566.535 37.0462 559.836 45.3093 559.836H88.698C100.848 559.836 110.698 549.987 110.698 537.836V434.441C110.698 422.29 100.848 412.441 88.698 412.441H30.3477L30.3476 364.566C30.3476 358.491 25.4227 353.566 19.3476 353.566H11.9104C5.83521 353.566 0.910351 358.491 0.91036 364.566L0.910448 419.878C0.910467 432.028 10.7602 441.878 22.9104 441.878H81.4911L82.8628 530.591Z" fill="#A4DDD4"/>
<path d="M65.3265 269.377H30.3474L30.3475 313.129C30.3475 319.204 25.4226 324.129 19.3475 324.129H11.9103C5.83515 324.129 0.910288 319.204 0.910278 313.129L0.910193 261.94C0.910173 249.789 10.7599 239.94 22.9102 239.94H70.4912C76.5663 239.94 81.4911 235.015 81.4912 228.94L81.4913 221.496C81.4914 215.421 76.5665 210.496 70.4913 210.496H22.9104C10.7602 210.496 0.910468 200.646 0.910449 188.496L0.910225 44.6632C0.910187 20.3626 20.6097 0.663086 44.9102 0.663086H46.8242C71.1247 0.663086 90.8242 20.3626 90.8242 44.6631V121.802H137.238V19.5469C137.238 11.5427 143.727 5.05393 151.731 5.05393C159.735 5.05393 166.224 11.5427 166.224 19.5469V121.24C166.224 137.808 152.793 151.24 136.224 151.24H81.7846C69.6344 151.24 59.7846 141.39 59.7846 129.24V41.1003C59.7846 35.0252 54.8597 30.1003 48.7846 30.1003H41.3474C35.2723 30.1003 30.3474 35.0252 30.3474 41.1003L30.3477 181.058H65.3265C89.6271 181.058 109.327 200.917 109.326 225.218C109.326 249.518 89.6269 269.377 65.3265 269.377Z" fill="#A4DDD4"/>
</svg>
