<svg width="172" height="906" viewBox="0 0 172 906" fill="none" xmlns="http://www.w3.org/2000/svg">
<path d="M127.491 531.057H149.365C161.516 531.057 171.365 521.207 171.365 509.057V132.787C171.365 124.658 164.776 118.068 156.647 118.068C148.518 118.068 141.928 124.658 141.928 132.787V500.45H128.054C103.201 500.45 83.0537 520.597 83.0537 545.45V546.46C83.0537 570.847 102.823 590.616 127.21 590.616H128.586C135.955 590.616 141.928 596.59 141.928 603.958C141.928 611.327 135.955 617.3 128.586 617.3H126.233C102.386 617.3 83.0537 636.632 83.0537 660.48C83.0537 684.327 102.386 703.659 126.233 703.659H141.928V890.445C141.928 898.574 148.518 905.164 156.647 905.164C164.776 905.164 171.365 898.574 171.365 890.445V703.973C171.365 687.405 157.934 673.973 141.365 673.973H126.434C118.734 673.973 112.491 667.731 112.491 660.03C112.491 652.329 118.734 646.087 126.434 646.087H128.912C152.358 646.087 171.365 627.079 171.365 603.633C171.365 580.186 152.358 561.179 128.912 561.179H127.21C119.081 561.179 112.491 554.589 112.491 546.46V546.057C112.491 537.772 119.207 531.057 127.491 531.057Z" fill="#A4DDD4"/>
<path d="M0.09375 495.127V468.627C0.09375 456.477 9.94349 446.627 22.0938 446.627H41.5735H83.0532L83.0537 308.08C83.0537 299.952 89.6434 293.362 97.7723 293.362C105.901 293.362 112.491 299.952 112.491 308.081L112.491 454.064C112.49 466.214 102.641 476.064 90.4905 476.064H29.531V495.127C29.531 503.256 22.9412 509.846 14.8124 509.846C6.6835 509.846 0.09375 503.256 0.09375 495.127Z" fill="#A4DDD4"/>
<path d="M130.928 29.7566H123.491C117.416 29.7566 112.491 34.6814 112.491 40.7566V249.206C112.491 257.335 105.901 263.925 97.7723 263.925C89.6435 263.925 83.0537 257.335 83.0537 249.206V44.3193C83.0537 20.0188 102.909 0.319336 127.21 0.319336C151.51 0.319336 171.365 20.0188 171.365 44.3193V73.9124C171.365 82.0413 164.776 88.631 156.647 88.631C148.518 88.631 141.928 82.0413 141.928 73.9124V40.7566C141.928 34.6814 137.003 29.7566 130.928 29.7566Z" fill="#A4DDD4"/>
</svg>
