<svg width="250" height="323" viewBox="0 0 250 323" fill="none" xmlns="http://www.w3.org/2000/svg">
<path d="M220.767 205.156V44.7674C220.767 36.7022 227.305 30.164 235.37 30.164C243.436 30.164 249.974 36.7022 249.974 44.7674V212.363C249.974 224.513 240.124 234.363 227.974 234.363H82.129C69.9788 234.363 60.129 224.513 60.129 212.363V40.7587C60.129 34.6836 55.2042 29.7587 49.129 29.7587H41.1718C35.0966 29.7587 30.1718 34.6835 30.1718 40.7587V108.558C30.1718 116.623 23.6336 123.161 15.5683 123.161C7.50304 123.161 0.964844 116.623 0.964844 108.558V44.5518C0.964844 20.2512 20.8499 0.551758 45.1504 0.551758C69.4509 0.551758 89.336 20.2512 89.336 44.5518V205.156H220.767Z" fill="#F28EC0"/>
<path d="M30.1718 167.988V308.036C30.1718 316.028 23.7466 322.536 15.7547 322.638C7.61723 322.742 0.964844 316.174 0.964844 308.036V167.988C0.964844 159.923 7.50304 153.385 15.5683 153.385C23.6336 153.385 30.1718 159.923 30.1718 167.988Z" fill="#F28EC0"/>
</svg>
