<svg width="250" height="504" viewBox="0 0 250 504" fill="none" xmlns="http://www.w3.org/2000/svg">
<path d="M0.513672 241.598V14.6737C0.513672 6.60849 7.05185 0.0703125 15.1171 0.0703125C23.1824 0.0703125 29.7205 6.60849 29.7205 14.6737V234.391H82.9343C95.0845 234.391 104.934 244.241 104.934 256.391V427.22C104.934 433.295 109.859 438.22 115.934 438.22H123.141C129.216 438.22 134.141 433.295 134.141 427.22V289.884C134.141 281.819 140.679 275.281 148.745 275.281C156.81 275.281 163.348 281.819 163.348 289.884V423.616C163.348 447.812 143.734 467.426 119.538 467.426C95.3419 467.426 75.7274 447.812 75.7274 423.616V263.598H22.5137C10.3634 263.598 0.513672 253.748 0.513672 241.598Z" fill="#F28EC0"/>
<path d="M220.788 60.1755H163.348V231.47C163.348 239.536 156.81 246.074 148.745 246.074C140.679 246.074 134.141 239.536 134.141 231.47V52.9686C134.141 40.8183 143.991 30.9686 156.141 30.9686H227.995C240.146 30.9686 249.995 40.8183 249.995 52.9686V488.84C249.995 496.905 243.457 503.443 235.392 503.443C227.327 503.443 220.788 496.905 220.788 488.84V60.1755Z" fill="#F28EC0"/>
</svg>
