<svg width="246" height="622" viewBox="0 0 246 622" fill="none" xmlns="http://www.w3.org/2000/svg">
<path d="M216.176 351.716L216.176 15.2158C216.176 7.15049 222.714 0.612305 230.78 0.612305C238.845 0.612305 245.383 7.15048 245.383 15.2157L245.383 358.923C245.383 371.073 235.533 380.923 223.383 380.923L186.219 380.923C178.154 380.923 171.615 374.384 171.615 366.319C171.615 358.254 178.154 351.716 186.219 351.716L216.176 351.716Z" fill="#F28EC0"/>
<path d="M22.457 351.716H128.292C136.357 351.716 142.895 358.254 142.895 366.319C142.895 374.384 136.357 380.923 128.292 380.923H30.6942V440.736H54.9682C71.5367 440.736 84.9682 454.167 84.9682 470.736V606.358C84.9682 614.642 78.2524 621.358 69.9682 621.358H68.3822C60.0979 621.358 53.3822 614.642 53.3822 606.358V470.994H30.457C13.8885 470.994 0.457031 457.562 0.457031 440.994V373.716C0.457031 361.565 10.3067 351.716 22.457 351.716Z" fill="#F28EC0"/>
</svg>
