<svg width="250" height="323" viewBox="0 0 250 323" fill="none" xmlns="http://www.w3.org/2000/svg">
<path d="M220.704 205.156V41.164C220.704 35.0889 225.629 30.164 231.704 30.164H238.911C244.987 30.164 249.911 35.0888 249.911 41.164V212.363C249.911 224.513 240.062 234.363 227.911 234.363H82.0665C69.9163 234.363 60.0665 224.513 60.0665 212.363V40.7587C60.0665 34.6836 55.1417 29.7587 49.0665 29.7587H41.1093C35.0341 29.7587 30.1093 34.6835 30.1093 40.7587V108.558C30.1093 116.623 23.5711 123.161 15.5058 123.161C7.44054 123.161 0.902344 116.623 0.902344 108.558V44.5518C0.902344 20.2512 20.7874 0.551758 45.0879 0.551758C69.3884 0.551758 89.2735 20.2512 89.2735 44.5518V205.156H220.704Z" fill="#A4DDD4"/>
<path d="M30.1093 167.988V308.036C30.1093 316.028 23.6841 322.536 15.6922 322.638C7.55473 322.742 0.902344 316.174 0.902344 308.036V167.988C0.902344 159.923 7.44054 153.385 15.5058 153.385C23.5711 153.385 30.1093 159.923 30.1093 167.988Z" fill="#A4DDD4"/>
</svg>
