<svg width="246" height="622" viewBox="0 0 246 622" fill="none" xmlns="http://www.w3.org/2000/svg">
<path d="M216.114 351.716L216.114 11.6123C216.114 5.53717 221.038 0.612305 227.114 0.612305H234.321C240.396 0.612305 245.321 5.53717 245.321 11.6123L245.321 358.923C245.321 371.073 235.471 380.923 223.32 380.923L182.553 380.923C176.478 380.923 171.553 375.998 171.553 369.923V362.716C171.553 356.641 176.478 351.716 182.553 351.716L216.114 351.716Z" fill="#A4DDD4"/>
<path d="M22.3945 351.716H131.833C137.908 351.716 142.833 356.641 142.833 362.716V369.923C142.833 375.998 137.908 380.923 131.833 380.923H30.6317V440.736H54.9057C71.4742 440.736 84.9057 454.167 84.9057 470.736V606.358C84.9057 614.642 78.19 621.358 69.9057 621.358H66.3197C58.0354 621.358 51.3197 614.642 51.3197 606.358V466.994H30.3945C13.826 466.994 0.394531 453.562 0.394531 436.994V373.716C0.394531 361.565 10.2442 351.716 22.3945 351.716Z" fill="#A4DDD4"/>
</svg>
