<svg width="721" height="181" viewBox="0 0 721 181" fill="none" xmlns="http://www.w3.org/2000/svg">
<g clip-path="url(#clip0)">
<path d="M70.7354 105.744V165.745C70.7354 174.029 77.451 180.744 85.7348 180.744C94.0187 180.744 100.734 174.029 100.734 165.745V105.744C100.734 97.4597 94.0187 90.7441 85.7348 90.7441C77.451 90.7441 70.7354 97.4597 70.7354 105.744ZM85.7348 170.744C82.9735 170.744 80.735 168.506 80.735 165.745V105.744C80.735 102.982 82.9735 100.744 85.7348 100.744C88.4961 100.744 90.7346 102.982 90.7346 105.744V165.745C90.7346 168.506 88.4961 170.744 85.7348 170.744Z" fill="#A4DDD4"/>
<path d="M240.735 105.744V165.745C240.735 174.029 247.451 180.744 255.735 180.744C264.019 180.744 270.734 174.029 270.734 165.745V105.744C270.734 97.4597 264.019 90.7441 255.735 90.7441C247.451 90.7441 240.735 97.4597 240.735 105.744ZM255.735 170.744C252.974 170.744 250.735 168.506 250.735 165.745V105.744C250.735 102.982 252.974 100.744 255.735 100.744C258.496 100.744 260.735 102.982 260.735 105.744V165.745C260.735 168.506 258.496 170.744 255.735 170.744Z" fill="#A4DDD4"/>
<path d="M470.733 125.743V165.741C470.733 174.025 477.449 180.741 485.733 180.741C494.017 180.741 500.732 174.025 500.732 165.741V125.743C500.732 117.459 494.017 110.743 485.733 110.743C477.449 110.743 470.733 117.459 470.733 125.743ZM485.733 170.744C482.972 170.744 480.733 168.506 480.733 165.745V125.743C480.733 122.982 482.972 120.743 485.733 120.743C488.494 120.743 490.733 122.982 490.733 125.743V165.741C490.733 168.506 488.494 170.744 485.733 170.744Z" fill="#A4DDD4"/>
<path d="M0.734375 10.7438V65.745C0.734375 68.5063 2.97291 70.7449 5.7342 70.7449C8.49548 70.7449 10.734 68.5063 10.734 65.745V40.7459H30.7333V65.745C30.7333 68.5063 32.9718 70.7449 35.7331 70.7449C38.4944 70.7449 40.7329 68.5063 40.7329 65.745V10.7438C40.7329 5.22121 36.2559 0.744141 30.7333 0.744141H10.734C5.21144 0.744141 0.734375 5.22121 0.734375 10.7438ZM30.7333 30.7431H10.734V10.7438H30.7333V30.7431Z" fill="#A4DDD4"/>
<path d="M330.735 10.7438V75.7447C330.735 78.506 332.974 80.7445 335.735 80.7445C338.496 80.7445 340.735 78.506 340.735 75.7447V40.7427H360.734V75.7415C360.734 78.5028 362.973 80.7413 365.734 80.7413C368.495 80.7413 370.734 78.5028 370.734 75.7415V10.7438C370.734 5.22121 366.257 0.744141 360.734 0.744141H340.735C335.212 0.744141 330.735 5.22121 330.735 10.7438ZM360.734 30.7431H340.735V10.7438H360.734V30.7431Z" fill="#A4DDD4"/>
<path d="M230.735 10.7438V75.7447C230.735 78.506 232.974 80.7445 235.735 80.7445C238.496 80.7445 240.735 78.506 240.735 75.7447V40.7427H260.734C266.257 40.7427 270.734 36.2656 270.734 30.7431V10.7438C270.734 5.22121 266.257 0.744141 260.734 0.744141H240.735C235.212 0.744141 230.735 5.22121 230.735 10.7438ZM260.734 30.7431H240.735V10.7438H260.734V30.7431Z" fill="#A4DDD4"/>
<path d="M400.733 105.743V175.744C400.733 178.505 402.972 180.744 405.733 180.744C408.494 180.744 410.733 178.505 410.733 175.744V150.745H450.732V175.744C450.732 178.505 452.97 180.744 455.731 180.744C458.493 180.744 460.731 178.505 460.731 175.744V105.743C460.731 102.982 458.493 100.744 455.731 100.744C452.97 100.744 450.732 102.982 450.732 105.743V140.742H410.733V105.743C410.733 102.982 408.494 100.744 405.733 100.744C402.972 100.744 400.733 102.982 400.733 105.743Z" fill="#A4DDD4"/>
<path d="M280.734 5.74396V75.7447C280.734 78.506 282.973 80.7445 285.734 80.7445C288.495 80.7445 290.734 78.506 290.734 75.7447V40.7427H310.733V75.7415C310.733 78.5028 312.972 80.7413 315.733 80.7413C318.494 80.7413 320.733 78.5028 320.733 75.7415V5.74396C320.736 2.98268 318.498 0.744141 315.733 0.744141C312.972 0.744141 310.733 2.98268 310.733 5.74396V30.7431H290.734V5.74396C290.734 2.98268 288.495 0.744141 285.734 0.744141C282.973 0.744141 280.734 2.98268 280.734 5.74396Z" fill="#A4DDD4"/>
<path d="M560.733 5.74396V95.744C560.733 98.5052 562.972 100.744 565.733 100.744C568.494 100.744 570.733 98.5052 570.733 95.744V40.7427H590.732V95.744C590.732 98.5052 592.971 100.744 595.732 100.744C598.493 100.744 600.732 98.5052 600.732 95.744V5.74396C600.732 2.98268 598.493 0.744141 595.732 0.744141C592.971 0.744141 590.732 2.98268 590.732 5.74396V30.7431H570.733V5.74396C570.733 2.98268 568.494 0.744141 565.733 0.744141C562.972 0.744141 560.733 2.98268 560.733 5.74396Z" fill="#A4DDD4"/>
<path d="M620.735 40.7427V5.74396C620.735 2.98268 618.496 0.744141 615.735 0.744141C612.974 0.744141 610.735 2.98268 610.735 5.74396V70.7449C610.735 76.2674 615.212 80.7445 620.735 80.7445H640.734C646.257 80.7445 650.734 76.2674 650.734 70.7449V50.7456C650.734 45.223 646.257 40.7459 640.734 40.7459H620.735V40.7427ZM640.734 70.7449H620.735V50.7456H640.734V70.7449Z" fill="#A4DDD4"/>
<path d="M660.733 5.74396V75.7447C660.733 78.506 662.972 80.7445 665.733 80.7445C668.495 80.7445 670.733 78.506 670.733 75.7447V5.74396C670.733 2.98268 668.495 0.744141 665.733 0.744141C662.972 0.744141 660.733 2.98268 660.733 5.74396Z" fill="#A4DDD4"/>
<path d="M440.734 5.74396V80.7445C440.734 86.2671 445.211 90.7441 450.734 90.7441H460.734C466.256 90.7441 470.733 86.2671 470.733 80.7445H480.733V85.7443C480.733 88.5056 482.972 90.7441 485.733 90.7441C488.494 90.7441 490.733 88.5056 490.733 85.7443V5.74396C490.733 2.98268 488.494 0.744141 485.733 0.744141C482.972 0.744141 480.733 2.98268 480.733 5.74396V70.7449H470.733C465.211 70.7449 460.734 75.2219 460.734 80.7445H450.734V5.74396C450.734 2.98268 448.496 0.744141 445.734 0.744141C442.973 0.744141 440.734 2.98268 440.734 5.74396Z" fill="#A4DDD4"/>
<path d="M650.733 95.744V170.744C650.733 176.267 655.21 180.744 660.733 180.744H690.732C696.254 180.744 700.732 176.267 700.732 170.744H710.731V175.744C710.731 178.506 712.97 180.744 715.731 180.744C718.492 180.744 720.731 178.506 720.731 175.744V95.744C720.731 92.9827 718.492 90.7441 715.731 90.7441C712.97 90.7441 710.731 92.9827 710.731 95.744V160.745H700.732C695.209 160.745 690.732 165.222 690.732 170.744H660.733V95.744C660.733 92.9827 658.494 90.7441 655.733 90.7441C652.972 90.7441 650.733 92.9827 650.733 95.744Z" fill="#A4DDD4"/>
<path d="M510.735 120.743V170.744C510.735 176.267 515.212 180.744 520.735 180.744H555.734C558.495 180.744 560.734 178.506 560.734 175.744C560.734 172.983 558.495 170.744 555.734 170.744H520.735V120.743H555.734C558.495 120.743 560.734 118.505 560.734 115.743C560.734 112.982 558.495 110.743 555.734 110.743H520.735C515.212 110.743 510.735 115.22 510.735 120.743Z" fill="#A4DDD4"/>
<path d="M120.733 5.74396C120.733 8.50525 122.972 10.7438 125.733 10.7438H140.614V75.7447C140.614 78.506 142.853 80.7445 145.614 80.7445C148.375 80.7445 150.614 78.506 150.614 75.7447V10.7438H165.732C168.493 10.7438 170.732 8.50525 170.732 5.74396C170.735 2.98268 168.496 0.744141 165.735 0.744141H125.733C122.972 0.744141 120.733 2.98268 120.733 5.74396Z" fill="#A4DDD4"/>
<path d="M380.733 5.74396C380.733 8.50525 382.972 10.7438 385.733 10.7438H400.733V75.7447C400.733 78.506 402.971 80.7445 405.732 80.7445C408.494 80.7445 410.732 78.506 410.732 75.7447V10.7438H425.732C428.493 10.7438 430.732 8.50525 430.732 5.74396C430.732 2.98268 428.493 0.744141 425.732 0.744141H385.733C382.972 0.744141 380.733 2.98268 380.733 5.74396Z" fill="#A4DDD4"/>
<path d="M570.733 115.743C570.733 118.505 572.972 120.743 575.733 120.743H600.732V175.744C600.732 178.506 602.971 180.744 605.732 180.744C608.493 180.744 610.732 178.506 610.732 175.744V120.743H635.734C638.496 120.743 640.734 118.505 640.734 115.743C640.734 112.982 638.496 110.743 635.734 110.743H575.733C572.972 110.743 570.733 112.982 570.733 115.743Z" fill="#A4DDD4"/>
<path d="M530.734 50.7456V15.7436C530.734 7.45974 524.019 0.744141 515.735 0.744141C507.451 0.744141 500.735 7.45974 500.735 15.7436V90.7441C500.735 96.2667 505.212 100.744 510.735 100.744H540.734C546.257 100.744 550.734 96.2667 550.734 90.7441V60.7452C550.734 55.2226 546.257 50.7456 540.734 50.7456H530.734ZM515.735 10.7438C518.496 10.7438 520.735 12.9823 520.735 15.7436V50.7424H510.735V15.7436C510.735 12.9823 512.974 10.7438 515.735 10.7438ZM540.734 90.7441H510.735V60.7452H540.734V90.7441Z" fill="#A4DDD4"/>
<path d="M30.7333 130.743V95.7441C30.7333 87.4602 24.0177 80.7446 15.7338 80.7446C7.44998 80.7446 0.734375 87.4602 0.734375 95.7441V170.745C0.734375 176.267 5.21144 180.744 10.734 180.744H50.7326C56.2552 180.744 60.7322 176.267 60.7322 170.745V140.746C60.7322 135.223 56.2552 130.746 50.7326 130.746H30.7333V130.743ZM15.7338 90.7443C18.4951 90.7443 20.7337 92.9828 20.7337 95.7441V130.743H10.734V95.7441C10.734 92.9828 12.9726 90.7443 15.7338 90.7443ZM50.7358 170.745H10.734V140.746H50.7326V170.745H50.7358Z" fill="#A4DDD4"/>
<path d="M80.7343 20.7434V75.7447C80.7343 78.506 78.4957 80.7445 75.7345 80.7445C72.9732 80.7445 70.7346 78.506 70.7346 75.7447V20.7434V15.7436C70.7346 12.9823 68.4961 10.7438 65.7348 10.7438C62.9735 10.7438 60.735 12.9823 60.735 15.7436V20.7434V75.7447C60.735 78.506 58.4965 80.7445 55.7352 80.7445C52.9739 80.7445 50.7354 78.506 50.7354 75.7447V20.7434V15.7436C50.7354 7.45974 57.451 0.744141 65.7348 0.744141C74.0187 0.744141 80.7343 7.45974 80.7343 15.7436V20.7434Z" fill="#A4DDD4"/>
<path d="M115.733 50.7455H100.734V5.88823C100.734 3.19749 98.6655 0.878783 95.9747 0.753708C93.1044 0.619011 90.7344 2.90565 90.7344 5.74712V70.748C90.7344 76.2706 95.2114 80.7477 100.734 80.7477H115.733C124.017 80.7477 130.733 74.032 130.733 65.7482C130.733 57.4611 124.017 50.7455 115.733 50.7455ZM120.733 65.745C120.733 68.5063 118.495 70.7448 115.733 70.7448H100.734V60.7452H115.733C118.495 60.7452 120.733 62.9837 120.733 65.745Z" fill="#A4DDD4"/>
<path d="M205.733 30.7431C214.017 30.7431 220.733 24.0275 220.733 15.7436C220.733 7.45974 214.017 0.744141 205.733 0.744141H190.734C185.211 0.744141 180.734 5.22121 180.734 10.7438V80.7445C180.734 86.2671 185.211 90.7441 190.734 90.7441H215.733C218.494 90.7441 220.733 88.5056 220.733 85.7443C220.733 82.983 218.494 80.7445 215.733 80.7445H190.734V30.7431H205.733ZM190.734 10.7438H205.733C208.495 10.7438 210.733 12.9823 210.733 15.7436C210.733 18.5049 208.495 20.7434 205.733 20.7434H190.734V10.7438Z" fill="#A4DDD4"/>
<path d="M705.734 30.7431C714.018 30.7431 720.734 24.0275 720.734 15.7436C720.734 7.45974 714.018 0.744141 705.734 0.744141H690.735C685.212 0.744141 680.735 5.22121 680.735 10.7438V60.7452C680.735 66.2678 685.212 70.7449 690.735 70.7449H715.734C718.495 70.7449 720.734 68.5063 720.734 65.745C720.734 62.9837 718.495 60.7452 715.734 60.7452H690.735V30.7431H705.734ZM690.735 10.7438H705.734C708.496 10.7438 710.734 12.9823 710.734 15.7436C710.734 18.5049 708.496 20.7434 705.734 20.7434H690.735V10.7438Z" fill="#A4DDD4"/>
<path d="M125.663 180.744H115.737C112.976 180.744 110.737 178.506 110.737 175.744C110.737 172.983 112.976 170.744 115.737 170.744H125.663C133.989 170.744 140.736 163.997 140.736 155.671V155.498C140.736 147.172 133.989 140.425 125.663 140.425H125.926C120.403 140.425 115.926 135.948 115.926 130.425V120.426C115.926 114.903 120.403 110.426 125.926 110.426L135.736 110.747C138.498 110.747 140.736 108.508 140.736 105.747C140.736 102.985 138.498 100.747 135.736 100.747H115.926C113.165 100.747 110.927 98.5084 110.927 95.7471C110.927 93.0051 113.133 90.7762 115.875 90.7473H115.926H125.663H135.736C144.02 90.7473 150.736 97.4629 150.736 105.747C150.736 114.031 144.02 120.746 135.736 120.746L125.926 120.426L125.663 130.425H130.737C141.782 130.425 150.736 139.379 150.736 150.424V160.745C150.736 171.79 141.782 180.744 130.737 180.744H125.663Z" fill="#A4DDD4"/>
<path d="M230.736 175.744V115.746C230.736 107.462 224.02 100.747 215.736 100.747C207.452 100.747 200.737 107.462 200.737 115.746V160.802C200.737 163.564 198.498 165.802 195.737 165.805C192.976 165.805 190.737 163.57 190.737 160.809C190.737 158.035 190.737 119.357 190.737 115.743C190.737 107.459 184.022 100.744 175.738 100.744C167.454 100.744 160.738 107.459 160.738 115.743V175.571C160.738 178.332 162.977 180.571 165.738 180.571C168.499 180.571 170.738 178.332 170.738 175.571V140.8V115.743C170.738 112.982 172.976 110.743 175.738 110.743C178.499 110.743 180.738 112.979 180.738 115.74C180.738 118.514 180.738 157.188 180.738 160.802C180.738 169.086 187.453 175.805 195.737 175.805C204.021 175.805 210.737 169.09 210.737 160.806V115.746C210.737 112.985 212.975 110.747 215.736 110.747C218.498 110.747 220.736 112.985 220.736 115.746V115.743V120.743V175.744C220.736 178.505 222.975 180.744 225.736 180.744C228.494 180.744 230.736 178.505 230.736 175.744Z" fill="#A4DDD4"/>
<path d="M385.734 170.745H360.734V140.746V130.746V100.747H385.734C388.495 100.747 390.733 98.5085 390.733 95.7472C390.733 92.9859 388.495 90.7474 385.734 90.7474H360.734C355.212 90.7474 350.735 95.2244 350.735 100.747V130.746H340.735V105.744C340.735 102.982 338.497 100.744 335.735 100.744C332.974 100.744 330.736 102.982 330.736 105.744V130.743H320.736V100.744C320.736 95.2212 316.259 90.7441 310.736 90.7441H285.737C282.976 90.7441 280.737 92.9827 280.737 95.744C280.737 98.5052 282.976 100.744 285.737 100.744H310.736V130.743V140.742V170.741H285.737C282.976 170.741 280.737 172.98 280.737 175.741C280.737 178.502 282.976 180.741 285.737 180.741H310.736C316.259 180.741 320.736 176.264 320.736 170.741V140.742H330.736V165.741C330.736 168.503 332.974 170.741 335.735 170.741C338.497 170.741 340.735 168.503 340.735 165.741V140.742H350.735V170.741C350.735 176.264 355.212 180.741 360.734 180.741H385.734C388.495 180.741 390.733 178.502 390.733 175.741C390.733 172.98 388.495 170.745 385.734 170.745Z" fill="#A4DDD4"/>
</g>
<defs>
<clipPath id="clip0">
<rect width="720" height="180" fill="white" transform="translate(0.734375 0.744141)"/>
</clipPath>
</defs>
</svg>
