<svg width="402" height="147" viewBox="0 0 402 147" fill="none" xmlns="http://www.w3.org/2000/svg">
<path d="M200.42 69.7031V11.526C200.42 5.40147 205.385 0.436523 211.509 0.436523C217.634 0.436523 222.599 5.40146 222.599 11.526V69.7031C222.599 88.0768 207.704 102.972 189.33 102.972C170.957 102.972 156.062 88.0768 156.062 69.7031V35.243H123.533C117.408 35.243 112.443 30.2781 112.443 24.1535C112.443 18.0289 117.408 13.064 123.533 13.064H158.241C169.287 13.064 178.241 22.0183 178.241 33.064V69.7031C178.241 75.8277 183.206 80.7926 189.33 80.7926C195.455 80.7926 200.42 75.8277 200.42 69.7031Z" fill="#F28EC0"/>
<path d="M0.808594 126.064V33.064C0.808594 22.0183 9.76291 13.064 20.8086 13.064H78.4352C84.5598 13.064 89.5247 18.0289 89.5247 24.1535C89.5247 30.2781 84.5598 35.243 78.4352 35.243H22.9876V123.959H68.085V90.321C68.085 72.1514 82.8143 57.4221 100.984 57.4221C119.153 57.4221 133.883 72.1514 133.883 90.321V123.959H266.957V33.064C266.957 22.0183 275.911 13.064 286.957 13.064H322.405C328.529 13.064 333.494 18.0289 333.494 24.1535C333.494 30.2781 328.529 35.243 322.405 35.243H289.136V126.064C289.136 137.11 280.182 146.064 269.136 146.064H132.443C121.397 146.064 112.443 137.11 112.443 126.064V91.8822C112.443 85.7576 107.478 80.7926 101.354 80.7926C95.229 80.7926 90.264 85.7576 90.264 91.8821V126.064C90.264 137.11 81.3097 146.064 70.264 146.064H20.8086C9.76287 146.064 0.808594 137.11 0.808594 126.064Z" fill="#F28EC0"/>
<path d="M379.798 134.975V35.385L366.713 35.308C360.605 35.2721 355.673 30.3108 355.673 24.2032C355.673 18.0567 360.666 13.0793 366.812 13.0982L382.038 13.1449C393.06 13.1786 401.977 22.123 401.977 33.1448V134.975C401.977 141.099 397.012 146.064 390.887 146.064C384.763 146.064 379.798 141.099 379.798 134.975Z" fill="#F28EC0"/>
</svg>
