<svg width="183" height="639" viewBox="0 0 183 639" fill="none" xmlns="http://www.w3.org/2000/svg">
<path d="M69.1084 604.46V592.503L160.077 592.558C172.232 592.565 182.09 582.713 182.09 570.558V527.979C182.09 515.828 172.241 505.979 160.09 505.979H127.357V503.005C127.357 496.93 122.432 492.005 116.357 492.005H115.986C109.911 492.005 104.986 496.93 104.986 503.005V506.414C104.986 518.581 114.862 528.437 127.028 528.414L160.734 528.35V570.2L91.3044 570.306H67.5198C55.3695 570.306 45.5198 580.156 45.5198 592.306V605.255C45.5198 611.33 40.5949 616.255 34.5198 616.255H34.1487C28.0736 616.255 23.1487 611.33 23.1487 605.255V533.505H51.3277C69.489 533.505 84.2117 518.782 84.2117 500.621C84.2117 482.46 69.489 467.737 51.3277 467.737H34.1487C28.0736 467.737 23.1487 462.812 23.1487 456.737V455.997C23.1487 449.921 28.0736 444.997 34.1487 444.997H62.2117C74.3619 444.997 84.2117 435.147 84.2117 422.997V354.982C84.2117 342.832 74.3619 332.982 62.2117 332.982H23.1487L23.1486 299.24C23.1486 293.165 18.2237 288.24 12.1486 288.24H11.7775C5.70237 288.24 0.777493 293.165 0.777503 299.24L0.777557 333.353C0.777576 345.503 10.6273 355.353 22.7776 355.353H62.0156L63.058 422.772H34.6895C15.9604 422.772 0.777592 437.954 0.777592 456.683C0.777592 475.412 15.9604 490.595 34.6894 490.595H51.7933C57.4389 490.595 62.0156 495.172 62.0156 500.818C62.0156 506.463 57.4389 511.04 51.7933 511.04H22.7776C10.6273 511.04 0.777592 520.89 0.777592 533.04V604.461C0.777592 623.33 16.074 638.626 34.943 638.626C53.812 638.626 69.1084 623.329 69.1084 604.46Z" fill="#F28EC0"/>
<path d="M49.6101 224.259H23.1484L23.1485 254.869C23.1485 260.944 18.2237 265.869 12.1485 265.869H11.7774C5.70231 265.869 0.777442 260.944 0.777432 254.869L0.77738 223.888C0.77736 211.738 10.6271 201.888 22.7774 201.888H51.0157C57.0908 201.888 62.0157 196.963 62.0157 190.888L62.0157 190.512C62.0158 184.437 57.0909 179.512 51.0157 179.512H22.7776C10.6273 179.512 0.777578 169.662 0.777562 157.512L0.777391 34.3716C0.777365 15.5025 16.0738 0.206055 34.9429 0.206055C53.812 0.206055 69.1084 15.5025 69.1084 34.3715V104.063H78.4003C84.4754 104.063 89.4003 108.988 89.4003 115.063V120.471C89.4003 126.546 84.4754 131.471 78.4003 131.471H67.5196C55.3693 131.471 45.5195 121.621 45.5195 109.471V33.5772C45.5195 27.502 40.5947 22.5772 34.5195 22.5772H34.1485C28.0733 22.5772 23.1485 27.502 23.1485 33.5772L23.1487 157.141H49.6101C68.1444 157.141 83.1694 172.166 83.1694 190.7C83.1693 209.234 68.1443 224.259 49.6101 224.259Z" fill="#F28EC0"/>
</svg>
