<svg width="132" height="618" viewBox="0 0 132 618" fill="none" xmlns="http://www.w3.org/2000/svg">
<path d="M64.0107 272.704H22.9648C10.8146 272.704 0.964844 282.554 0.964844 294.704V306.665C0.964844 312.741 5.88971 317.665 11.9648 317.665H12.3359C18.4111 317.665 23.3359 312.741 23.3359 306.665V295.075H64.3816C76.5319 295.075 86.3817 285.225 86.3816 273.075L86.3807 190.755C86.3806 184.68 81.4558 179.755 75.3807 179.755H75.0096C68.9344 179.755 64.0095 184.68 64.0096 190.755L64.0107 272.704Z" fill="#F28EC0"/>
<path d="M86.3806 337.242H109.123C121.273 337.242 131.123 327.392 131.123 315.242V101.271C131.123 95.1954 126.198 90.2705 120.123 90.2705H119.752C113.677 90.2705 108.752 95.1954 108.752 101.271V313.982H86.0095C73.8592 313.982 64.0095 323.831 64.0095 335.982V404.405C64.0095 416.555 73.8592 426.405 86.0095 426.405H108.752V606.62C108.752 612.797 113.76 617.805 119.937 617.805C126.115 617.805 131.123 612.797 131.123 606.62V426.034C131.123 413.883 121.273 404.034 109.123 404.034H86.3806V337.242Z" fill="#F28EC0"/>
<path d="M97.7517 23.1572H97.3806C91.3054 23.1572 86.3806 28.0821 86.3806 34.1572V146.384C86.3806 152.459 81.4557 157.384 75.3806 157.384H75.0095C68.9343 157.384 64.0095 152.459 64.0095 146.384V34.3428C64.0095 15.81 79.0333 0.786133 97.5661 0.786133C116.099 0.786133 131.123 15.81 131.123 34.3428V56.8994C131.123 62.9746 126.198 67.8994 120.123 67.8994H119.752C113.677 67.8994 108.752 62.9746 108.752 56.8994V34.1572C108.752 28.0821 103.827 23.1572 97.7517 23.1572Z" fill="#F28EC0"/>
</svg>
