<svg width="190" height="315" viewBox="0 0 190 315" fill="none" xmlns="http://www.w3.org/2000/svg">
<path d="M0.355469 178.748V11.4775C0.355469 5.40241 5.37836 0.477539 11.4535 0.477539C17.5286 0.477539 22.5515 5.40241 22.5515 11.4775V178.552H57.7109C69.8612 178.552 79.7109 188.402 79.7109 200.552V245.003C79.7109 251.078 84.7338 256.003 90.8089 256.003C96.8841 256.003 101.907 251.078 101.907 245.003V220.626C101.907 214.551 106.93 209.626 113.005 209.626C119.08 209.626 124.103 214.551 124.103 220.626V244.904C124.103 263.292 109.197 278.198 90.809 278.198C72.4211 278.198 57.5148 263.292 57.5148 244.904V200.748H22.3555C10.2052 200.748 0.355469 190.898 0.355469 178.748Z" fill="#F28EC0"/>
<path d="M167.755 46.1551H124.103V176.43C124.103 182.505 119.08 187.43 113.005 187.43C106.93 187.43 101.907 182.505 101.907 176.43V45.959C101.907 33.8087 111.757 23.959 123.907 23.959H167.951C180.102 23.959 189.951 33.8087 189.951 45.9589V303.569C189.951 309.644 184.929 314.569 178.853 314.569C172.778 314.569 167.755 309.644 167.755 303.569V46.1551Z" fill="#F28EC0"/>
</svg>
