<svg width="187" height="403" viewBox="0 0 187 403" fill="none" xmlns="http://www.w3.org/2000/svg">
<path d="M164.317 267.25L164.317 11.4258C164.317 5.35065 169.34 0.425781 175.415 0.425781C181.49 0.425781 186.513 5.35065 186.513 11.4258V267.446C186.513 279.597 176.663 289.446 164.513 289.446L141.452 289.446C135.377 289.446 130.452 284.423 130.452 278.348C130.452 272.273 135.377 267.25 141.452 267.25L164.317 267.25Z" fill="#F28EC0"/>
<path d="M22.3789 267.25H97.6262C103.701 267.25 108.626 272.273 108.626 278.348C108.626 284.423 103.701 289.446 97.6262 289.446H23.3579V334.902H42.604C54.7542 334.902 64.604 344.752 64.604 356.902V389.566C64.604 396.615 58.8902 402.328 51.842 402.328C44.7937 402.328 39.08 396.615 39.08 389.566V354.857H22.3789C10.2286 354.857 0.378906 345.007 0.378906 332.857V289.25C0.378906 277.1 10.2286 267.25 22.3789 267.25Z" fill="#F28EC0"/>
</svg>
