<svg width="191" height="335" viewBox="0 0 191 335" fill="none" xmlns="http://www.w3.org/2000/svg">
<path d="M167.927 155.748V33.7609C167.927 27.6858 172.95 22.7609 179.025 22.7609C185.101 22.7609 190.124 27.6858 190.124 33.7609V155.944C190.124 168.094 180.274 177.944 168.124 177.944H67.8491C55.6988 177.944 45.8491 168.094 45.8491 155.944V33.4529C45.8491 27.3778 40.9242 22.4529 34.8491 22.4529H34.0828C28.0077 22.4529 23.0828 27.3778 23.0828 33.4529V68.902C23.0828 75.0312 18.114 80 11.9848 80C5.85548 80 0.886719 75.0312 0.886719 68.902V33.8361C0.886719 15.2908 15.9207 0.256836 34.466 0.256836C53.0113 0.256836 68.0452 15.2908 68.0452 33.8361V155.748H167.927Z" fill="#A4DDD4"/>
<path d="M23.0828 112.715V323.396C23.0828 329.417 18.1463 334.32 12.1264 334.397C5.99689 334.475 0.886719 329.529 0.886719 323.399V112.715C0.886719 106.586 5.85548 101.617 11.9848 101.617C18.114 101.617 23.0828 106.586 23.0828 112.715Z" fill="#A4DDD4"/>
</svg>
