<svg width="182" height="259" viewBox="0 0 182 259" fill="none" xmlns="http://www.w3.org/2000/svg">
<circle cx="74.4855" cy="200.653" r="8.21206" fill="black"/>
<circle cx="140.181" cy="134.956" r="8.21206" fill="black"/>
<circle cx="173.028" cy="167.692" r="8.21206" fill="black"/>
<path d="M0.576172 200.653V249.925C0.576172 254.461 4.25284 258.137 8.78823 258.137C13.3236 258.137 17.0003 254.461 17.0003 249.925V200.653C17.0003 196.118 20.6769 192.441 25.2123 192.441C29.7477 192.441 33.4244 196.118 33.4244 200.653V233.501C33.4244 247.107 44.4544 258.137 58.0606 258.137C71.6667 258.137 82.6967 247.108 82.6967 233.501V217.077C82.6967 212.542 79.0201 208.865 74.4847 208.865C69.9493 208.865 66.2726 212.542 66.2726 217.077V233.501C66.2726 238.037 62.596 241.713 58.0606 241.713C53.5252 241.713 49.8485 238.037 49.8485 233.501V200.653C49.8485 187.047 38.8185 176.017 25.2123 176.017C11.6062 176.017 0.576172 187.047 0.576172 200.653Z" fill="black"/>
<path d="M115.545 233.501V84.9405C115.545 71.3343 104.515 60.3043 90.9088 60.3043C77.3026 60.3043 66.2726 71.3343 66.2726 84.9405V184.229C66.2726 188.764 69.9493 192.441 74.4847 192.441C79.0201 192.441 82.6967 188.764 82.6967 184.229V84.9405C82.6967 80.4051 86.3734 76.7284 90.9088 76.7284C95.4442 76.7284 99.1208 80.4051 99.1208 84.9405V233.501C99.1208 247.107 110.151 258.137 123.757 258.137C137.363 258.137 148.393 247.107 148.393 233.501V151.381C148.393 146.845 144.717 143.169 140.181 143.169C135.646 143.169 131.969 146.845 131.969 151.381V233.501C131.969 238.037 128.292 241.713 123.757 241.713C119.222 241.713 115.545 238.037 115.545 233.501Z" fill="black"/>
<path d="M148.393 118.532V25.4477C148.393 20.9123 152.07 17.2356 156.605 17.2356C161.141 17.2356 164.817 20.9123 164.817 25.4477V151.381C164.817 155.916 168.494 159.593 173.029 159.593C177.565 159.593 181.241 155.916 181.241 151.381V25.4477C181.241 11.8415 170.211 0.811523 156.605 0.811523C142.999 0.811523 131.969 11.8415 131.969 25.4477V118.532C131.969 123.068 135.646 126.744 140.181 126.744C144.717 126.744 148.393 123.068 148.393 118.532Z" fill="black"/>
<path d="M181.241 249.925V184.229C181.241 179.694 177.565 176.017 173.029 176.017C168.494 176.017 164.817 179.694 164.817 184.229V249.925C164.817 254.461 168.494 258.137 173.029 258.137C177.565 258.137 181.241 254.461 181.241 249.925Z" fill="black"/>
</svg>
