<svg width="120" height="185" viewBox="0 0 120 185" fill="none" xmlns="http://www.w3.org/2000/svg">
<path d="M82.0067 108.638H16.6973C7.71512 108.638 0.433594 115.919 0.433594 124.902C0.433594 133.884 7.71511 141.165 16.6973 141.165H59.6037C62.5923 141.165 65.0151 138.743 65.0151 135.754C65.0151 132.765 62.5923 130.343 59.6037 130.343H16.7072C13.7077 130.343 11.2761 127.911 11.2761 124.911C11.2761 121.912 13.7077 119.48 16.7073 119.48H82.0067C90.9834 119.48 98.2605 112.203 98.2605 103.226C98.2605 94.2496 90.9834 86.9726 82.0067 86.9726H70.7954C67.8013 86.9726 65.3741 89.3998 65.3741 92.3939C65.3741 95.388 67.8013 97.8152 70.7954 97.8152H82.0067C84.9953 97.8152 87.418 100.238 87.418 103.227C87.418 106.215 84.9953 108.638 82.0067 108.638Z" fill="black"/>
<path d="M60.3118 65.2877H16.6973C7.71512 65.2877 0.433594 72.5693 0.433594 81.5515C0.433594 90.5337 7.71511 97.8152 16.6973 97.8152H48.7513C51.7454 97.8152 54.1726 95.388 54.1726 92.3939C54.1726 89.3998 51.7454 86.9726 48.7513 86.9726H16.6973C13.7033 86.9726 11.2761 84.5454 11.2761 81.5513C11.2761 78.5573 13.7033 76.1301 16.6973 76.1301H59.5938C68.576 76.1301 75.8576 68.8486 75.8576 59.8664C75.8576 50.8841 68.5761 43.6026 59.5938 43.6026H16.6973C13.7033 43.6026 11.2761 41.1754 11.2761 38.1814C11.2761 35.1873 13.7033 32.7601 16.6973 32.7601H49.4693C58.4515 32.7601 65.733 25.4786 65.733 16.4964C65.733 7.51419 58.4515 0.232666 49.4693 0.232666H6.0599C2.95258 0.232666 0.433594 2.75165 0.433594 5.85897C0.433594 8.9663 2.95259 11.4853 6.05991 11.4853H49.6743C52.5552 11.4853 54.8906 13.8207 54.8906 16.7015C54.8906 19.5824 52.5551 21.9178 49.6743 21.9178H16.6973C7.71512 21.9178 0.433594 29.1993 0.433594 38.1815C0.433594 47.1637 7.71511 54.4453 16.6973 54.4453H60.3118C63.3059 54.4453 65.733 56.8724 65.733 59.8665C65.733 62.8606 63.3059 65.2877 60.3118 65.2877Z" fill="black"/>
<path d="M81.2887 173.712H16.6973C13.7033 173.712 11.2761 171.285 11.2761 168.291C11.2761 165.297 13.7033 162.87 16.6973 162.87H48.7415C51.741 162.87 54.1726 160.438 54.1726 157.439C54.1726 154.439 51.741 152.008 48.7415 152.008H16.6973C7.71512 152.008 0.433594 159.289 0.433594 168.272C0.433594 177.254 7.71515 184.535 16.6974 184.535H81.2887C84.2773 184.535 86.7001 182.113 86.7001 179.124C86.7001 176.135 84.2773 173.712 81.2887 173.712Z" fill="black"/>
<path d="M114.534 173.712H102.954C99.9653 173.712 97.5425 176.135 97.5425 179.124C97.5425 182.113 99.9653 184.535 102.954 184.535H114.534C117.523 184.535 119.945 182.113 119.945 179.124C119.945 176.135 117.523 173.712 114.534 173.712Z" fill="black"/>
<path d="M92.1213 130.343H81.269C78.2803 130.343 75.8576 132.765 75.8576 135.754C75.8576 138.743 78.2803 141.165 81.269 141.165H92.8393C95.8333 141.165 98.2605 143.592 98.2605 146.587C98.2605 149.581 95.8333 152.008 92.8393 152.008H70.4462C67.4467 152.008 65.0151 154.439 65.0151 157.439C65.0151 160.438 67.4467 162.87 70.4462 162.87H92.1213C101.104 162.87 108.385 155.588 108.385 146.606C108.385 137.624 101.104 130.343 92.1213 130.343Z" fill="black"/>
<circle cx="59.7826" cy="92.3846" r="5.42125" fill="black"/>
<circle cx="70.4789" cy="135.764" r="5.42125" fill="black"/>
<circle cx="59.6361" cy="157.449" r="5.42125" fill="black"/>
<circle cx="92.2328" cy="179.135" r="5.42125" fill="black"/>
</svg>
