<svg width="187" height="296" viewBox="0 0 187 296" fill="none" xmlns="http://www.w3.org/2000/svg">
<path d="M91.3552 147.917H140.723C145.206 147.917 148.84 144.284 148.84 139.801C148.84 135.319 145.206 131.685 140.723 131.685H124.204C119.668 131.685 115.992 128.008 115.992 123.473C115.992 118.937 119.668 115.261 124.204 115.261H140.723C154.277 115.261 165.264 126.248 165.264 139.801C165.264 153.354 154.277 164.342 140.723 164.342H91.3553C86.8199 164.342 83.1433 168.018 83.1433 172.553C83.1433 177.089 86.8199 180.765 91.3552 180.765H107.968C121.47 180.765 132.416 191.711 132.416 205.213C132.416 218.715 121.47 229.661 107.968 229.661H42.3848C37.6826 229.661 33.8707 233.473 33.8707 238.175C33.8707 242.877 37.6826 246.689 42.3848 246.689H74.9313C79.4667 246.689 83.1433 250.366 83.1433 254.901C83.1433 259.437 79.4667 263.113 74.9313 263.113H42.3848C28.6118 263.113 17.4466 251.948 17.4466 238.175C17.4466 224.402 28.6118 213.237 42.3848 213.237H107.968C112.399 213.237 115.992 209.645 115.992 205.213C115.992 200.782 112.399 197.189 107.968 197.189H91.3552C77.7492 197.189 66.7192 186.16 66.7192 172.553C66.7192 158.947 77.7491 147.917 91.3552 147.917Z" fill="black"/>
<path d="M0.863281 0.273926H17.2874L17.4307 74.1668C17.4395 78.7084 13.7603 82.3947 9.21866 82.3947C4.68949 82.3947 1.01541 78.7278 1.00663 74.1986L0.863281 0.273926Z" fill="black"/>
<path d="M1.02252 115.185V107.031C1.02252 102.495 4.69919 98.8188 9.23458 98.8188C13.77 98.8188 17.4466 102.495 17.4466 107.031V115.261L91.3554 115.261C95.8908 115.261 99.5674 118.937 99.5674 123.473C99.5674 128.008 95.8908 131.685 91.3554 131.685L17.5225 131.685C8.40982 131.685 1.02252 124.297 1.02252 115.185Z" fill="black"/>
<path d="M107.779 246.689H132.34C141.452 246.689 148.84 254.077 148.84 263.189V275.945H186.855V295.165H148.916C139.803 295.165 132.416 287.778 132.416 278.665V263.113H107.78C103.244 263.113 99.5674 259.437 99.5674 254.901C99.5674 250.366 103.244 246.689 107.779 246.689Z" fill="black"/>
<circle cx="107.777" cy="123.455" r="8.21206" fill="black"/>
<circle cx="9.07534" cy="90.6915" r="8.21206" fill="black"/>
<circle cx="91.3546" cy="254.848" r="8.21206" fill="black"/>
</svg>
