<svg width="120" height="252" viewBox="0 0 120 252" fill="none" xmlns="http://www.w3.org/2000/svg">
<path d="M59.5638 97.1938H91.9754C94.9183 97.1938 97.304 94.8081 97.304 91.8652C97.304 88.9223 94.9183 86.5366 91.9754 86.5366H81.1297C78.1521 86.5366 75.7383 84.1228 75.7383 81.1451C75.7383 78.1675 78.1521 75.7537 81.1297 75.7537H91.9754C100.874 75.7537 108.087 82.9671 108.087 91.8652C108.087 100.763 100.874 107.977 91.9754 107.977H59.5638C56.5863 107.977 54.1725 110.39 54.1725 113.368C54.1725 116.346 56.5863 118.759 59.5638 118.759H70.4704C79.335 118.759 86.5211 125.946 86.5211 134.81C86.5211 143.675 79.335 150.861 70.4704 150.861H27.4134C24.3262 150.861 21.8236 153.363 21.8236 156.451C21.8236 159.538 24.3262 162.04 27.4133 162.04H48.781C51.7586 162.04 54.1725 164.454 54.1725 167.432C54.1725 170.409 51.7586 172.823 48.781 172.823H27.4134C18.371 172.823 11.0408 165.493 11.0408 156.451C11.0408 147.408 18.371 140.078 27.4134 140.078H70.4704C73.3798 140.078 75.7383 137.719 75.7383 134.81C75.7383 131.901 73.3797 129.542 70.4704 129.542H59.5638C50.6311 129.542 43.3896 122.301 43.3896 113.368C43.3896 104.435 50.631 97.1938 59.5638 97.1938Z" fill="black"/>
<path d="M0.15332 0.261719H10.9362L11.0303 48.7744C11.0361 51.7561 8.62055 54.1763 5.63886 54.1763C2.66533 54.1763 0.253198 51.7689 0.247432 48.7953L0.15332 0.261719Z" fill="black"/>
<path d="M0.257866 77.553V70.3507C0.257866 67.373 2.6717 64.9592 5.64931 64.9592C8.62693 64.9592 11.0408 67.373 11.0408 70.3507V75.7536L59.5639 75.7537C62.5415 75.7537 64.9554 78.1675 64.9554 81.1451C64.9554 84.1227 62.5415 86.5366 59.5639 86.5366L9.24142 86.5365C4.27994 86.5365 0.257866 82.5145 0.257866 77.553Z" fill="black"/>
<path d="M70.3468 162.04H86.604C92.5135 162.04 97.304 166.831 97.304 172.74V238.753H122.262V251.372H97.2211C91.3117 251.372 86.5211 246.581 86.5211 240.672V172.823H70.3468C67.3692 172.823 64.9554 170.409 64.9554 167.432C64.9554 164.454 67.3692 162.04 70.3468 162.04Z" fill="black"/>
<circle cx="70.3455" cy="81.1336" r="5.39144" fill="black"/>
<circle cx="5.54476" cy="59.5125" r="5.39144" fill="black"/>
<circle cx="59.5633" cy="167.396" r="5.39144" fill="black"/>
</svg>
