<svg width="182" height="314" viewBox="0 0 182 314" fill="none" xmlns="http://www.w3.org/2000/svg">
<circle r="8.21206" transform="matrix(-1 0 0 1 173.251 75.6349)" fill="black"/>
<circle r="8.21206" transform="matrix(-1 0 0 1 58.4012 8.3312)" fill="black"/>
<circle r="8.21206" transform="matrix(-1 0 0 1 41.9774 239.931)" fill="black"/>
<circle r="8.21206" transform="matrix(-1 0 0 1 107.429 206.902)" fill="black"/>
<circle r="8.21206" transform="matrix(-1 0 0 1 74.8251 305.251)" fill="black"/>
<path d="M0.9422 17.9629V297.021C0.9422 306.134 8.3295 313.521 17.4422 313.521H58.2817C62.8171 313.521 66.4937 309.844 66.4937 305.309C66.4937 300.774 62.8171 297.097 58.2817 297.097H16.8746V17.887H41.8576C46.3929 17.887 50.0696 14.2103 50.0696 9.67495C50.0696 5.13955 46.393 1.46289 41.8576 1.46289H17.4422C8.3295 1.46289 0.9422 8.85017 0.9422 17.9629Z" fill="black"/>
<path d="M50.0696 117.59H164.963C174.076 117.59 181.463 110.203 181.463 101.09V92.3904C181.463 87.855 177.786 84.1783 173.251 84.1783C168.715 84.1783 165.039 87.855 165.039 92.3904V101.166H50.1455C41.0328 101.166 33.6455 108.554 33.6455 117.666V223.219C33.6455 227.755 37.3222 231.432 41.8575 231.432C46.3929 231.432 50.0696 227.755 50.0696 223.219V117.59Z" fill="black"/>
<path d="M66.4937 156.31V256.037C66.4937 260.572 62.8132 264.249 58.2778 264.249C53.7467 264.249 50.0696 260.576 50.0696 256.044C50.0696 251.513 46.3906 247.84 41.8595 247.84C37.3262 247.84 33.6455 251.515 33.6455 256.048C33.6455 269.648 44.6761 280.673 58.2758 280.673C71.882 280.673 82.9178 269.643 82.9178 256.037V156.31C82.9178 151.735 86.6269 148.026 91.2023 148.026C95.7776 148.026 99.4867 151.735 99.4867 156.31V190.371C99.4867 194.907 103.163 198.583 107.699 198.583C112.234 198.583 115.911 194.907 115.911 190.371V156.31C115.911 142.664 104.848 131.602 91.2023 131.602C77.5561 131.602 66.4937 142.664 66.4937 156.31Z" fill="black"/>
<path d="M148.614 139.814V256.109C148.614 269.675 137.617 280.673 124.05 280.673C110.484 280.673 99.4867 269.675 99.4867 256.109V223.219C99.4867 218.684 103.163 215.007 107.699 215.007C112.234 215.007 115.911 218.684 115.911 223.219V256.109C115.911 260.604 119.555 264.249 124.05 264.249C128.546 264.249 132.19 260.604 132.19 256.109V139.814C132.19 135.278 135.867 131.602 140.402 131.602C144.938 131.602 148.614 135.278 148.614 139.814Z" fill="black"/>
<path d="M74.7058 17.887H165.039V58.9783C165.039 63.5137 168.715 67.1904 173.251 67.1904C177.786 67.1904 181.463 63.5137 181.463 58.9784V17.9629C181.463 8.85019 174.076 1.46289 164.963 1.46289H74.7058C70.1704 1.46289 66.4937 5.13955 66.4937 9.67495C66.4937 14.2103 70.1704 17.887 74.7058 17.887Z" fill="black"/>
<path d="M91.1299 313.521H164.963C174.076 313.521 181.463 306.134 181.463 297.021V139.814C181.463 135.278 177.786 131.602 173.251 131.602C168.715 131.602 165.039 135.278 165.039 139.814V297.097H91.1299C86.5945 297.097 82.9178 300.774 82.9178 305.309C82.9178 309.844 86.5945 313.521 91.1299 313.521Z" fill="black"/>
</svg>
