<svg width="182" height="309" viewBox="0 0 182 309" fill="none" xmlns="http://www.w3.org/2000/svg">
<circle cx="173.208" cy="204.829" r="8.21206" fill="black"/>
<circle cx="140.36" cy="89.8605" r="8.21206" fill="black"/>
<circle cx="107.513" cy="171.981" r="8.21206" fill="black"/>
<circle cx="74.6632" cy="122.709" r="8.21206" fill="black"/>
<circle cx="8.96596" cy="106.284" r="8.21206" fill="black"/>
<path d="M66.4504 139.513L66.4504 251.281C66.4504 255.816 62.7737 259.493 58.2383 259.493C53.7029 259.493 50.0262 255.816 50.0262 251.281L50.0263 25.1791C50.0263 11.573 38.9963 0.542969 25.3901 0.542969C11.7839 0.542969 0.753941 11.573 0.753941 25.1792V90.2067C0.753941 94.7421 4.4306 98.4188 8.966 98.4188C13.5014 98.4188 17.1781 94.7421 17.1781 90.2067V25.1791C17.1781 20.6437 20.8547 16.9671 25.3901 16.9671C29.9255 16.9671 33.6022 20.6437 33.6022 25.1791L33.6021 251.281C33.6021 264.887 44.6321 275.917 58.2383 275.917C71.8445 275.917 82.8745 264.887 82.8745 251.281L82.8745 139.513C82.8745 134.978 79.1978 131.301 74.6624 131.301C70.1271 131.301 66.4504 134.978 66.4504 139.513Z" fill="black"/>
<path d="M82.8745 106.665V84.9622C82.8745 80.4268 86.5512 76.7501 91.0865 76.7501C95.6219 76.7501 99.2986 80.4268 99.2986 84.9622V155.557C99.2986 160.092 102.975 163.769 107.511 163.769C112.046 163.769 115.723 160.092 115.723 155.557V84.9622C115.723 71.356 104.693 60.326 91.0866 60.326C77.4804 60.326 66.4504 71.356 66.4504 84.9622V106.665C66.4504 111.2 70.1271 114.877 74.6624 114.877C79.1978 114.877 82.8745 111.2 82.8745 106.665Z" fill="black"/>
<path d="M132.147 106.083L132.147 267.705C132.147 272.24 128.47 275.917 123.935 275.917C119.399 275.917 115.723 272.24 115.723 267.705L115.723 188.405C115.723 183.87 112.046 180.193 107.511 180.193C102.975 180.193 99.2986 183.87 99.2986 188.405L99.2986 267.705C99.2986 281.311 110.329 292.341 123.935 292.341C137.541 292.341 148.571 281.311 148.571 267.705L148.571 106.083C148.571 101.548 144.894 97.8713 140.359 97.8713C135.824 97.8713 132.147 101.548 132.147 106.083Z" fill="black"/>
<path d="M148.571 73.2351V25.1791C148.571 20.6437 152.248 16.9671 156.783 16.9671C161.318 16.9671 164.995 20.6437 164.995 25.1791V188.405C164.995 192.941 168.672 196.617 173.207 196.617C177.743 196.617 181.419 192.941 181.419 188.405V25.1791C181.419 11.573 170.389 0.542969 156.783 0.542969C143.177 0.542969 132.147 11.5729 132.147 25.1791V73.2351C132.147 77.7705 135.824 81.4472 140.359 81.4472C144.894 81.4472 148.571 77.7705 148.571 73.2351Z" fill="black"/>
<path d="M181.419 300.683L181.419 221.253C181.419 216.718 177.743 213.041 173.207 213.041C168.672 213.041 164.995 216.718 164.995 221.253L164.995 300.683C164.995 305.218 168.672 308.895 173.207 308.895C177.742 308.895 181.419 305.218 181.419 300.683Z" fill="black"/>
<path d="M17.178 218.433L17.1781 122.541C17.1781 118.006 13.5014 114.329 8.96599 114.329C4.4306 114.329 0.75394 118.006 0.753939 122.541L0.753909 218.433C0.753906 222.968 4.43057 226.645 8.96597 226.645C13.5014 226.645 17.178 222.968 17.178 218.433Z" fill="black"/>
</svg>
