<svg width="237" height="210" viewBox="0 0 237 210" fill="none" xmlns="http://www.w3.org/2000/svg">
<path d="M206.734 119.969V15.0488C206.734 6.76456 213.45 0.0488281 221.734 0.0488281C230.019 0.0488281 236.734 6.76456 236.734 15.0488V119.969C236.734 136.537 223.303 149.969 206.734 149.969H161.734C153.45 149.969 146.734 143.253 146.734 134.969C146.734 126.684 153.45 119.969 161.734 119.969H206.734Z" fill="#A4DDD4"/>
<path d="M0.734375 194.592V149.969C0.734375 133.4 14.1658 119.969 30.7344 119.969H101.734C110.019 119.969 116.734 126.684 116.734 134.969C116.734 143.253 110.019 149.969 101.734 149.969H30.7344V194.592C30.7344 202.876 24.0186 209.592 15.7344 209.592C7.4501 209.592 0.734375 202.876 0.734375 194.592Z" fill="#A4DDD4"/>
</svg>
