<svg width="544" height="211" viewBox="0 0 544 211" fill="none" xmlns="http://www.w3.org/2000/svg">
<path d="M270.734 77.0628V15.6431C270.734 7.35879 277.45 0.643064 285.734 0.643064C294.019 0.643064 300.734 7.3588 300.734 15.6431V77.0628C300.734 101.916 280.587 122.063 255.734 122.063C230.882 122.063 210.734 101.916 210.734 77.0628V30.4512H30.7344V150.451H91.7344V104.951C91.7344 80.3745 111.658 60.4511 136.234 60.4511C160.811 60.4511 180.734 80.3745 180.734 104.951V150.451H360.734V30.4512C360.734 13.8826 374.166 0.451172 390.734 0.451172H435.734C444.019 0.451172 450.734 7.1669 450.734 15.4512C450.734 23.7354 444.019 30.4512 435.734 30.4512H390.734V150.351C390.734 166.92 377.303 180.351 360.734 180.351H181.734C165.166 180.351 151.734 166.92 151.734 150.351V107.063C151.734 98.7786 145.019 92.0628 136.734 92.0628C128.45 92.0628 121.734 98.7786 121.734 107.063V150.351C121.734 166.92 108.303 180.351 91.7344 180.351H30.7344C14.1658 180.351 0.734375 166.92 0.734375 150.351V30.4512C0.734375 13.8826 14.1658 0.451172 30.7344 0.451172H210.734C227.303 0.451172 240.734 13.8827 240.734 30.4512V77.0628C240.734 85.3471 247.45 92.0628 255.734 92.0628C264.019 92.0628 270.734 85.3471 270.734 77.0628Z" fill="#A4DDD4"/>
<path d="M513.366 195.593V30.6432L495.646 30.5389C487.396 30.4904 480.734 23.7681 480.734 15.5183C480.734 7.21607 487.478 0.471852 495.78 0.497311L513.458 0.55152C529.991 0.602218 543.366 14.0188 543.366 30.5514V195.593C543.366 203.877 536.65 210.593 528.366 210.593C520.082 210.593 513.366 203.877 513.366 195.593Z" fill="#A4DDD4"/>
</svg>
