<svg width="281" height="181" viewBox="0 0 281 181" fill="none" xmlns="http://www.w3.org/2000/svg">
<path d="M240.613 10.7415V75.658C240.613 78.4157 242.849 80.6513 245.607 80.6513C248.364 80.6513 250.6 78.4157 250.6 75.658V40.7015H270.573V75.6548C270.573 78.4125 272.809 80.6481 275.567 80.6481C278.324 80.6481 280.56 78.4125 280.56 75.6548V10.7415C280.56 5.22614 276.089 0.754883 270.573 0.754883H250.6C245.085 0.754883 240.613 5.22614 240.613 10.7415ZM270.573 30.7148H250.6V10.7415H270.573V30.7148Z" fill="#A4DDD4"/>
<path d="M50.8613 100.625V175.528C50.8613 178.285 53.097 180.521 55.8547 180.521C58.6124 180.521 60.848 178.285 60.848 175.528V140.574H80.8213V175.528C80.8213 178.285 83.0569 180.521 85.8146 180.521C88.5723 180.521 90.8079 178.285 90.8079 175.528V100.625C90.8079 95.1092 86.3367 90.6379 80.8213 90.6379H60.848C55.3326 90.6379 50.8613 95.1092 50.8613 100.625ZM80.8213 130.585H60.848V100.625H80.8213V130.585Z" fill="#A4DDD4"/>
<path d="M0.923828 95.6313V175.528C0.923828 178.285 3.15946 180.521 5.91716 180.521C8.67486 180.521 10.9105 178.285 10.9105 175.528V140.574H30.8838V175.528C30.8838 178.285 33.1194 180.521 35.8771 180.521C38.6348 180.521 40.8704 178.285 40.8704 175.528V95.6313C40.8704 92.8736 38.6348 90.6379 35.8771 90.6379C33.1194 90.6379 30.8838 92.8736 30.8838 95.6313V130.585H10.9105V95.6313C10.9105 92.8736 8.67486 90.6379 5.91716 90.6379C3.15946 90.6379 0.923828 92.8736 0.923828 95.6313Z" fill="#A4DDD4"/>
<path d="M180.69 5.74821C180.69 8.50591 182.926 10.7415 185.684 10.7415H200.664V75.658C200.664 78.4157 202.899 80.6513 205.657 80.6513C208.415 80.6513 210.65 78.4157 210.65 75.658V10.7415H225.63C228.388 10.7415 230.624 8.50591 230.624 5.74821C230.624 2.99051 228.388 0.754883 225.63 0.754883H185.684C182.926 0.754883 180.69 2.99051 180.69 5.74821Z" fill="#A4DDD4"/>
<path d="M200.664 130.585V95.6314C200.664 87.3582 193.957 80.6514 185.684 80.6514C177.411 80.6514 170.704 87.3582 170.704 95.6314V170.534C170.704 176.05 175.175 180.521 180.691 180.521H220.637C226.153 180.521 230.624 176.05 230.624 170.534V140.575C230.624 135.059 226.153 130.588 220.637 130.588H200.664V130.585ZM185.684 90.638C188.442 90.638 190.677 92.8737 190.677 95.6314V130.585H180.691V95.6314C180.691 92.8737 182.926 90.638 185.684 90.638ZM220.637 170.534H180.691V140.575H220.637V170.534Z" fill="#A4DDD4"/>
<path d="M105.788 30.7148C114.061 30.7148 120.768 24.008 120.768 15.7349C120.768 7.46176 114.061 0.754883 105.788 0.754883H90.8079C85.2925 0.754883 80.8213 5.22614 80.8213 10.7415V60.678C80.8213 66.1934 85.2925 70.6647 90.8079 70.6647H115.775C118.532 70.6647 120.768 68.429 120.768 65.6713C120.768 62.9136 118.532 60.678 115.775 60.678H90.8079V30.7148H105.788ZM90.8079 10.7415H105.788C108.546 10.7415 110.781 12.9772 110.781 15.7349C110.781 18.4926 108.546 20.7282 105.788 20.7282H90.8079V10.7415Z" fill="#A4DDD4"/>
<path d="M70.8336 75.658V15.7381C70.8336 7.46497 64.1267 0.758086 55.8536 0.758086C47.5805 0.758086 40.8737 7.46497 40.8737 15.7381V60.7357C40.8737 63.4934 38.638 65.729 35.8803 65.7322C33.1226 65.7322 30.887 63.4998 30.887 60.7421C30.887 57.9716 30.887 19.3445 30.887 15.7381C30.8838 7.46176 24.1769 0.754883 15.9038 0.754883C7.63071 0.754883 0.923828 7.46176 0.923828 15.7349V75.485C0.923828 78.2427 3.15946 80.4784 5.91716 80.4784C8.67486 80.4784 10.9105 78.2427 10.9105 75.485V40.7592V15.7349C10.9105 12.9772 13.1461 10.7415 15.9038 10.7415C18.6615 10.7415 20.8971 12.974 20.8971 15.7317C20.8971 18.5022 20.8971 57.126 20.8971 60.7357C20.8971 69.0088 27.604 75.7188 35.8771 75.7188C44.1502 75.7188 50.8571 69.012 50.8571 60.7389V15.7381C50.8571 12.9804 53.0927 10.7447 55.8504 10.7447C58.6081 10.7447 60.8438 12.9804 60.8438 15.7381V15.7349V20.7282V75.658C60.8438 78.4157 63.0794 80.6513 65.8371 80.6513C68.598 80.6513 70.8336 78.4157 70.8336 75.658Z" fill="#A4DDD4"/>
<path d="M100.794 95.6314C100.794 103.904 107.501 110.611 115.774 110.611H150.727V120.598H110.781C105.265 120.598 100.794 125.069 100.794 130.585V175.525C100.794 178.282 103.03 180.518 105.787 180.518C108.545 180.518 110.781 178.282 110.781 175.525V130.585H150.727V175.525C150.727 178.282 152.963 180.518 155.721 180.518C158.478 180.518 160.714 178.282 160.714 175.525V90.638C160.714 85.1226 156.243 80.6514 150.727 80.6514H115.774C107.501 80.6514 100.794 87.3582 100.794 95.6314ZM150.73 100.625H115.774C113.016 100.625 110.781 98.3891 110.781 95.6314C110.781 92.8737 113.016 90.638 115.774 90.638H150.727V100.625H150.73Z" fill="#A4DDD4"/>
<path d="M130.754 5.74821V20.7282C130.754 26.2436 135.225 30.7148 140.741 30.7148H160.714V65.6681C160.714 68.4258 162.949 70.6615 165.707 70.6615C168.465 70.6615 170.701 68.4258 170.701 65.6681V5.74821C170.704 2.99051 168.468 0.754883 165.71 0.754883C162.953 0.754883 160.717 2.99051 160.717 5.74821V20.7282H140.744V5.74821C140.744 2.99051 138.508 0.754883 135.75 0.754883C132.99 0.754883 130.754 2.99051 130.754 5.74821Z" fill="#A4DDD4"/>
<path d="M280.31 95.9803L280.563 170.65C280.563 176.184 276.342 180.687 271.096 180.755H245.402C242.756 180.755 240.614 178.493 240.614 175.704C240.614 172.914 242.756 170.653 245.402 170.653H271.096L270.843 130.703H242.442C237.215 130.703 232.975 126.232 232.975 120.716V95.8682C232.975 93.0657 235.162 90.8108 237.817 90.8749C239.102 90.9069 240.258 91.477 241.094 92.377C241.93 93.2802 242.442 94.5134 242.442 95.8682V120.716H270.843V96.1276C270.843 93.3859 272.966 90.9934 275.564 90.9902C276.877 90.987 278.062 91.5443 278.92 92.4539C279.782 93.3539 280.31 94.5998 280.31 95.9803Z" fill="#A4DDD4"/>
</svg>
