<svg width="122" height="485" viewBox="0 0 122 485" fill="none" xmlns="http://www.w3.org/2000/svg">
<path d="M17.1845 140.399L17.1841 6.49736C17.1841 3.10637 19.933 0.357422 23.324 0.357422C26.715 0.357422 29.464 3.10635 29.464 6.49732L29.4643 147.767L48.3732 147.767C55.0007 147.767 60.3732 153.139 60.3732 159.767V196.365H103.189C113.13 196.365 121.189 204.424 121.189 214.365C121.189 224.306 113.13 232.365 103.189 232.365H48.0934V256.365H73.3422C79.9697 256.365 85.3422 261.738 85.3422 268.365V304.365H97.0737C103.637 304.365 108.982 309.638 109.073 316.2L109.734 364.2C109.827 370.891 104.428 376.365 97.7354 376.365H66.6409C63.3272 376.365 60.6409 373.679 60.6409 370.365C60.6409 367.052 63.3272 364.365 66.6409 364.365H97.6221L97.6221 316.365H85.0624C78.435 316.365 73.0624 310.993 73.0624 304.365V268.365H48.0007C41.3733 268.365 36.0007 262.993 36.0007 256.365V232.365C36.0007 225.738 41.3733 220.365 48.0007 220.365H103.902C107.216 220.365 109.902 217.679 109.902 214.365C109.902 211.052 107.216 208.365 103.902 208.365H60.0934C53.466 208.365 48.0934 202.993 48.0934 196.365V160.047L29.1845 160.047C22.5571 160.047 17.1845 154.674 17.1845 148.047V140.399Z" fill="#F28EC0"/>
<path d="M14.0127 412.365V376.365H42.9263C46.24 376.365 48.9263 373.679 48.9263 370.365C48.9263 367.052 46.24 364.365 42.9263 364.365H12.2305C5.60305 364.365 0.230469 369.738 0.230469 376.365V412.455C0.230469 419.047 5.54847 424.405 12.1406 424.454L48.0934 424.724V478.591C48.0934 481.78 50.6784 484.365 53.8671 484.365C57.0559 484.365 59.6409 481.78 59.6409 478.591V424.365C59.6409 417.738 54.2683 412.365 47.6409 412.365H14.0127Z" fill="#F28EC0"/>
</svg>
