<svg width="104" height="510" viewBox="0 0 104 510" fill="none" xmlns="http://www.w3.org/2000/svg">
<path d="M90.9085 148.122L90.9085 6.64285C90.9085 3.25187 93.6575 0.50293 97.0485 0.50293C100.439 0.50293 103.188 3.25187 103.188 6.64286V148.402C103.188 155.029 97.8158 160.402 91.1884 160.402L78.3132 160.402C74.9223 160.402 72.1733 157.653 72.1733 154.262C72.1733 150.871 74.9223 148.122 78.3133 148.122L90.9085 148.122Z" fill="#A4DDD4"/>
<path d="M12.2109 148.122H53.9582C57.3492 148.122 60.0981 150.871 60.0981 154.262C60.0981 157.653 57.3492 160.402 53.9582 160.402H12.9239V185.55H23.7431C30.3705 185.55 35.7431 190.922 35.7431 197.55V221.416H48.0981C54.7255 221.416 60.0981 226.789 60.0981 233.416V263.112C60.0981 266.364 57.4621 269 54.2104 269C50.9586 269 48.3226 266.364 48.3226 263.112V233.416H35.6221C28.9946 233.416 23.6221 228.043 23.6221 221.416V196.59H12.2109C5.58352 196.59 0.210938 191.217 0.210938 184.59V160.122C0.210938 153.495 5.58352 148.122 12.2109 148.122Z" fill="#A4DDD4"/>
<path d="M24.9239 293.416H48.3226V286.888C48.3226 283.636 50.9586 281 54.2104 281C57.4621 281 60.0981 283.636 60.0981 286.888V293.416C60.0981 300.043 54.7255 305.416 48.0981 305.416H26.0715V329.416H48.0981C54.7255 329.416 60.0981 334.789 60.0981 341.416V401.416C60.0981 408.043 54.7256 413.416 48.0981 413.416H12.9239V430.643C12.9239 434.154 10.078 437 6.56744 437C3.05684 437 0.210938 434.154 0.210938 430.643V413.416C0.210938 406.789 5.58352 401.416 12.2109 401.416H45.2461V341.416H24.9239C18.2965 341.416 12.9239 336.043 12.9239 329.416V305.416C12.9239 298.789 18.2965 293.416 24.9239 293.416Z" fill="#A4DDD4"/>
<path d="M6.92395 509.416H6.21094C2.89723 509.416 0.210938 506.73 0.210938 503.416V455.357C0.210938 451.846 3.05684 449 6.56744 449C10.078 449 12.9239 451.846 12.9239 455.357V503.416C12.9239 506.73 10.2377 509.416 6.92395 509.416Z" fill="#A4DDD4"/>
</svg>
