<svg width="168" height="174" viewBox="0 0 168 174" fill="none" xmlns="http://www.w3.org/2000/svg">
<path d="M59.4888 54.4878V16.8208C59.4888 7.72045 52.143 0.326531 43.0429 0.267092C33.8582 0.207101 26.3806 7.636 26.3806 16.8208V42.3715H12.3711C5.74367 42.3715 0.371094 47.7441 0.371094 54.3715V83.8253C0.371094 87.1813 3.08324 89.9064 6.43926 89.9224C9.81799 89.9385 12.5656 87.204 12.5656 83.8253V54.4878H25.2157C31.8431 54.4878 37.2157 49.1152 37.2157 42.4878V18.3789C37.2157 15.2442 39.7342 12.6911 42.8686 12.6483C46.0641 12.6047 48.678 15.1831 48.678 18.3789V54.604C48.678 61.2315 54.0506 66.604 60.678 66.604H88.283C91.6288 66.604 94.3411 63.8917 94.3411 60.5459C94.3411 57.2001 91.6288 54.4878 88.283 54.4878H59.4888Z" fill="#F28EC0"/>
<path d="M156.768 30.1771V54.4878H112.255C108.909 54.4878 106.197 57.2001 106.197 60.5459C106.197 63.8917 108.909 66.604 112.255 66.604H155.646C162.273 66.604 167.646 61.2315 167.646 54.6041V29.9826C167.646 23.3552 162.273 17.9826 155.646 17.9826H150.89C147.576 17.9826 144.89 20.6689 144.89 23.9826V24.1771C144.89 27.4908 147.576 30.1771 150.89 30.1771H156.768Z" fill="#F28EC0"/>
<path d="M82.7542 6.16789V18.1771C82.7542 24.8045 88.1268 30.1771 94.7542 30.1771H127.011C130.325 30.1771 133.011 27.4908 133.011 24.1771V23.9826C133.011 20.6689 130.325 17.9826 127.011 17.9826H94.3411V6.1679C94.3411 2.96827 91.7473 0.374455 88.5476 0.374455C85.348 0.374455 82.7542 2.96826 82.7542 6.16789Z" fill="#F28EC0"/>
<path d="M36.896 137.415H12.3711C5.74368 137.415 0.371094 132.043 0.371094 125.415V108.001C0.371094 104.633 3.10092 101.903 6.46833 101.903C9.83573 101.903 12.5656 104.633 12.5656 108.001V125.415H37.2157V96.0126C37.2157 85.7417 45.5419 77.4155 55.8128 77.4155C66.1243 77.4155 74.4672 85.8051 74.4097 96.1164L74.2461 125.415H109.436V89.4155C109.436 82.7881 114.809 77.4155 121.436 77.4155H155.646C162.273 77.4155 167.646 82.7881 167.646 89.4155V101.415V149.415C167.646 156.043 162.273 161.415 155.646 161.415H91.0339C87.7202 161.415 85.0339 158.729 85.0339 155.415C85.0339 152.102 87.7202 149.415 91.0339 149.415H156.768V89.4155H121.001V125.415C121.001 132.043 115.629 137.415 109.001 137.415H73.5599C66.9325 137.415 61.5599 132.043 61.5599 125.415V95.4155C61.5599 92.1018 58.8736 89.4155 55.5599 89.4155H54.896C51.5823 89.4155 48.896 92.1018 48.896 95.4155V125.415C48.896 132.043 43.5234 137.415 36.896 137.415Z" fill="#F28EC0"/>
<path d="M0.371094 167.415V161.415C0.371094 154.788 5.74368 149.415 12.3711 149.415H66.6185C69.9322 149.415 72.6185 152.102 72.6185 155.415C72.6185 158.729 69.9322 161.415 66.6184 161.415H12.5656V167.415C12.5656 170.729 9.87926 173.415 6.56556 173.415H6.37109C3.05739 173.415 0.371094 170.729 0.371094 167.415Z" fill="#F28EC0"/>
</svg>
