<svg width="106" height="460" viewBox="0 0 106 460" fill="none" xmlns="http://www.w3.org/2000/svg">
<path d="M0.703125 99.0074V6.34889C0.703125 2.95792 3.45206 0.208984 6.84304 0.208984C10.234 0.208984 12.9829 2.95792 12.9829 6.3489V98.7275H32.606C39.2335 98.7275 44.606 104.1 44.606 110.728V135.437C44.606 138.828 47.355 141.577 50.746 141.577C54.1369 141.577 56.8859 138.828 56.8859 135.437V122.059C56.8859 118.668 59.6348 115.919 63.0258 115.919C66.4168 115.919 69.1658 118.668 69.1658 122.059V135.437C69.1658 145.61 60.9189 153.856 50.746 153.856C40.573 153.856 32.3262 145.61 32.3262 135.437V111.007H12.7031C6.07571 111.007 0.703125 105.635 0.703125 99.0074Z" fill="#A4DDD4"/>
<path d="M93.3162 25.4798H69.1658V97.4995C69.1658 100.891 66.4168 103.639 63.0258 103.639C59.6348 103.639 56.8859 100.891 56.8859 97.4995V25.1999C56.8859 18.5725 62.2585 13.1999 68.8859 13.1999H93.596C100.223 13.1999 105.596 18.5725 105.596 25.1999V135.498C105.596 138.889 102.847 141.638 99.4561 141.638C96.0651 141.638 93.3162 138.889 93.3162 135.498V25.4798Z" fill="#A4DDD4"/>
<path d="M74.8859 219.886H93.3162V159.996C93.3162 156.605 96.0651 153.856 99.4561 153.856C102.847 153.856 105.596 156.605 105.596 159.996V219.886C105.596 226.513 100.223 231.886 93.596 231.886H75.1658C71.8521 231.886 69.1658 234.572 69.1658 237.886C69.1658 241.199 71.852 243.886 75.1657 243.886H93.596C100.223 243.886 105.596 249.258 105.596 255.886V285.746C105.596 289.137 102.847 291.886 99.4561 291.886C96.0651 291.886 93.3162 289.137 93.3162 285.746V255.886H74.8859C64.9448 255.886 56.8859 247.827 56.8859 237.886C56.8859 227.944 64.9448 219.886 74.8859 219.886Z" fill="#A4DDD4"/>
<path d="M93.3162 364.091V339.886V309.61C93.3162 306.219 96.0651 303.47 99.4561 303.47C102.847 303.47 105.596 306.219 105.596 309.61V351.886L105.596 364.09C105.596 370.718 100.223 376.091 93.596 376.091H69.1658H44.606V381.33C44.606 384.721 41.8571 387.47 38.4661 387.47C35.0751 387.47 32.3262 384.721 32.3262 381.33V376.091C32.3262 369.463 37.6988 364.091 44.3262 364.091H56.8859H93.3162Z" fill="#A4DDD4"/>
<path d="M69.1658 412.244V417.958C69.1658 428.131 60.9189 436.378 50.746 436.378C40.573 436.378 32.3262 428.131 32.3262 417.958V406.384C32.3262 402.993 35.0751 400.244 38.4661 400.244C41.8571 400.244 44.606 402.993 44.606 406.384V418.378C44.606 421.691 47.2923 424.378 50.606 424.378H50.8859C54.1996 424.378 56.8859 421.691 56.8859 418.378V412.244C56.8859 405.617 62.2585 400.244 68.8859 400.244H93.596C100.223 400.244 105.596 405.617 105.596 412.244V453.886C105.596 457.199 102.91 459.886 99.596 459.886H99.3162C96.0025 459.886 93.3162 457.199 93.3162 453.886V412.244H69.1658Z" fill="#A4DDD4"/>
</svg>
