<svg width="149" height="461" viewBox="0 0 149 461" fill="none" xmlns="http://www.w3.org/2000/svg">
<path d="M88.9111 136.074V6.96219C88.9111 3.5712 91.66 0.822266 95.051 0.822266C98.442 0.822266 101.191 3.57121 101.191 6.96219V136.354C101.191 142.982 95.8183 148.354 89.1909 148.354H64.4136C61.0999 148.354 58.4136 151.04 58.4136 154.354V166.824C58.4136 170.138 61.0999 172.824 64.4136 172.824H112.555C119.182 172.824 124.555 178.197 124.555 184.824V190.203C124.555 193.634 121.772 196.417 118.341 196.417C114.909 196.417 112.127 193.634 112.127 190.203V184.824H58.1338C51.5064 184.824 46.1338 179.451 46.1338 172.824V148.074C46.1338 141.447 51.5064 136.074 58.1338 136.074H88.9111Z" fill="#A4DDD4"/>
<path d="M93.2554 256.417H112.127V214.214C112.127 210.783 114.909 208 118.341 208C121.772 208 124.555 210.783 124.555 214.214V256.417C124.555 263.044 119.182 268.417 112.555 268.417H92.9756C86.3482 268.417 80.9756 263.044 80.9756 256.417V214.391C80.9756 211.091 78.3006 208.417 75.0009 208.417C71.7012 208.417 69.0263 211.091 69.0263 214.391V280.417H87.1171C90.5072 280.417 93.2554 283.165 93.2554 286.555C93.2554 289.945 90.5072 292.693 87.1171 292.693H68.405C61.7775 292.693 56.405 287.321 56.405 280.693V214.842C56.405 204.666 64.6542 196.417 74.8302 196.417C85.0062 196.417 93.2554 204.666 93.2554 214.842V256.417Z" fill="#A4DDD4"/>
<path d="M135.412 316.417V292.693H111.937C108.547 292.693 105.798 289.945 105.798 286.555C105.798 283.165 108.547 280.417 111.937 280.417H136.735C143.362 280.417 148.735 285.789 148.735 292.417V316.417C148.735 323.044 143.362 328.417 136.735 328.417H57.8537V352.417H62.9756C72.9167 352.417 80.9756 360.475 80.9756 370.417C80.9756 380.358 72.9167 388.417 62.9756 388.417H12.9021V412.417H63.0263C66.34 412.417 69.0263 415.103 69.0263 418.417C69.0263 421.73 66.34 424.417 63.0263 424.417H12.3047C5.67727 424.417 0.304688 419.044 0.304688 412.417V388.417C0.304688 381.789 5.67727 376.417 12.3047 376.417H63.0263C66.34 376.417 69.0263 373.73 69.0263 370.417C69.0263 367.103 66.34 364.417 63.0263 364.417H58.1338C51.5064 364.417 46.1338 359.044 46.1338 352.417V328.417C46.1338 321.789 51.5064 316.417 58.1338 316.417H135.412Z" fill="#A4DDD4"/>
<path d="M59.4573 436.417H114.943C118.257 436.417 120.943 433.73 120.943 430.417C120.943 427.103 118.257 424.417 114.943 424.417H86.9756C83.6619 424.417 80.9756 421.73 80.9756 418.417C80.9756 415.103 83.6619 412.417 86.9756 412.417H115.16C125.101 412.417 133.16 420.475 133.16 430.417C133.16 440.358 125.101 448.417 115.16 448.417H60.2535V454.417C60.2535 457.73 57.5672 460.417 54.2535 460.417H53.4573C50.1436 460.417 47.4573 457.73 47.4573 454.417V448.417C47.4573 441.789 52.8299 436.417 59.4573 436.417Z" fill="#A4DDD4"/>
</svg>
