<svg width="106" height="473" viewBox="0 0 106 473" fill="none" xmlns="http://www.w3.org/2000/svg">
<path d="M93.3518 86.5009V18.9407C93.3518 15.5498 96.1007 12.8008 99.4917 12.8008C102.883 12.8008 105.632 15.5498 105.632 18.9407V86.7808C105.632 93.4082 100.259 98.7808 93.6316 98.7808H37.8127C31.1853 98.7808 25.8127 93.4082 25.8127 86.7808V19.0541C25.8127 15.576 22.9931 12.7564 19.515 12.7564C16.0369 12.7564 13.2173 15.576 13.2173 19.0541V42.804C13.2173 46.195 10.4684 48.944 7.07742 48.944C3.68644 48.944 0.9375 46.195 0.9375 42.804V19.0541C0.9375 8.794 9.25494 0.476562 19.515 0.476562C29.7751 0.476562 38.0925 8.79399 38.0925 19.0541V86.5009H93.3518Z" fill="#F28EC0"/>
<path d="M45.2461 220.417H12.9375C6.31008 220.417 0.9375 215.044 0.9375 208.417V67.4477C0.9375 64.0567 3.68644 61.3078 7.07742 61.3078C10.4684 61.3078 13.2173 64.0567 13.2173 67.4477V208.417H45.0698C55.011 208.417 63.0698 216.475 63.0698 226.417C63.0698 236.358 55.011 244.417 45.0699 244.417H13.2173V274.277C13.2173 277.668 10.4684 280.417 7.07742 280.417C3.68644 280.417 0.9375 277.668 0.9375 274.277V244.417C0.9375 237.789 6.31008 232.417 12.9375 232.417H45.2461C48.5598 232.417 51.2461 229.73 51.2461 226.417C51.2461 223.103 48.5598 220.417 45.2461 220.417Z" fill="#F28EC0"/>
<path d="M42.2461 316.417H13.2173V298.14C13.2173 294.749 10.4684 292 7.07742 292C3.68644 292 0.9375 294.749 0.9375 298.14V316.417C0.9375 323.044 6.31008 328.417 12.9375 328.417H42.2461C45.5598 328.417 48.2461 331.103 48.2461 334.417C48.2461 337.73 45.5598 340.417 42.2461 340.417H12.9375C6.31008 340.417 0.9375 345.789 0.9375 352.417V429.861C0.9375 433.252 3.68644 436 7.07742 436C10.4684 436 13.2173 433.252 13.2173 429.861V352.417H42.2461C52.1872 352.417 60.2461 344.358 60.2461 334.417C60.2461 324.475 52.1872 316.417 42.2461 316.417Z" fill="#F28EC0"/>
<path d="M0.9375 454.14V466.277C0.9375 469.668 3.68644 472.417 7.07742 472.417C10.4684 472.417 13.2173 469.668 13.2173 466.277V454.14C13.2173 450.749 10.4684 448 7.07742 448C3.68644 448 0.9375 450.749 0.9375 454.14Z" fill="#F28EC0"/>
</svg>
