<svg width="114" height="175" viewBox="0 0 114 175" fill="none" xmlns="http://www.w3.org/2000/svg">
<path d="M38.004 19.1582V54.969H55.7438C59.0576 54.969 61.7438 57.6553 61.7438 60.969V61.5089C61.7438 64.8226 59.0575 67.5089 55.7438 67.5089H37.638C31.0106 67.5089 25.638 62.1363 25.638 55.5089V18.2593C25.638 14.9456 22.9517 12.2593 19.638 12.2593H18.8849C15.5712 12.2593 12.8849 14.9456 12.8849 18.2593V78.416H83.6581C93.5992 78.416 101.658 86.4749 101.658 96.416C101.658 106.357 93.5992 114.416 83.6581 114.416H67.7438C64.4301 114.416 61.7438 117.102 61.7438 120.416C61.7438 123.73 64.4301 126.416 67.7438 126.416H95.6756C105.617 126.416 113.676 134.475 113.676 144.416C113.676 154.357 105.617 162.416 95.6757 162.416H38.0657C31.4383 162.416 26.0657 157.043 26.0657 150.416V120.416C26.0657 117.102 23.3794 114.416 20.0657 114.416H19.4779C16.1642 114.416 13.4779 117.102 13.4779 120.416V168.416C13.4779 171.73 10.7917 174.416 7.47794 174.416H6.51953C3.20582 174.416 0.519531 171.73 0.519531 168.416V121.258C0.519531 110.852 8.95537 102.416 19.3615 102.416C29.7676 102.416 38.2035 110.852 38.2035 121.258V150.416H95.6581C98.9718 150.416 101.658 147.73 101.658 144.416C101.658 141.102 98.9718 138.416 95.6581 138.416H68.3807C58.4396 138.416 50.3807 130.357 50.3807 120.416C50.3807 110.475 58.4396 102.416 68.3807 102.416H83.6918C87.0055 102.416 89.6918 99.7297 89.6918 96.416C89.6918 93.1023 87.0055 90.416 83.6918 90.416H12.5195C5.8921 90.416 0.519531 85.0434 0.519531 78.416V19.1582C0.519531 8.8072 8.91071 0.416016 19.2618 0.416016C29.6128 0.416016 38.004 8.80719 38.004 19.1582Z" fill="#A4DDD4"/>
<path d="M74.6704 6.12059V7.14978V31.0411C74.6704 37.6685 80.043 43.0411 86.6704 43.0411H95.6942C98.9879 43.0411 101.658 45.7112 101.658 49.005C101.658 52.2988 98.9879 54.969 95.6942 54.969H80.4312C77.1175 54.969 74.4312 57.6553 74.4312 60.969V61.5089C74.4312 64.8226 77.1175 67.5089 80.4312 67.5089H95.4995C105.538 67.5089 113.676 59.3712 113.676 49.3327C113.676 39.2943 105.538 31.1566 95.4995 31.1566H86.0796V19.5097V6.12059C86.0796 2.97004 83.5256 0.416016 80.375 0.416016C77.2245 0.416016 74.6704 2.97004 74.6704 6.12059Z" fill="#A4DDD4"/>
</svg>
