<svg width="285" height="1218" viewBox="0 0 285 1218" fill="none" xmlns="http://www.w3.org/2000/svg">
<path d="M149.864 757.53H269.465C277.669 757.53 284.321 750.879 284.321 742.674C284.321 734.469 277.669 727.818 269.465 727.818H149.576V669.417L208.714 669.417C225.283 669.417 238.714 655.985 238.714 639.417V578.658C238.714 570.453 232.063 563.801 223.858 563.801C215.653 563.801 209.002 570.453 209.002 578.658V639.704L149.864 639.704C133.295 639.704 119.864 653.135 119.864 669.704V727.53C119.864 744.099 133.295 757.53 149.864 757.53Z" fill="#A4DDD4"/>
<path d="M149.576 416.576L209.002 416.576V519.233C209.002 527.437 215.653 534.089 223.858 534.089C232.063 534.089 238.714 527.437 238.714 519.233V416.863C238.714 400.295 225.283 386.863 208.714 386.863L149.864 386.863C133.295 386.863 119.864 400.295 119.864 416.863V460.957C119.864 469.162 126.515 475.814 134.72 475.814C142.925 475.814 149.576 469.162 149.576 460.957V416.576Z" fill="#A4DDD4"/>
<path d="M119.576 784.732H30.4802V683.99H45.0912C69.706 683.99 89.6603 664.036 89.6603 639.421C89.6603 614.806 69.7061 594.852 45.0912 594.852H30.4802V401.72C30.4802 393.515 23.8288 386.863 15.6239 386.863C7.41899 386.863 0.767578 393.515 0.767578 401.72V594.565C0.767578 611.133 14.199 624.565 30.7676 624.565H45.2289C53.4338 624.565 60.0852 631.216 60.0852 639.421C60.0852 647.626 53.4338 654.277 45.2289 654.277H30.7676C14.199 654.277 0.767578 667.709 0.767578 684.277V784.445C0.767578 801.013 14.199 814.445 30.7676 814.445H119.864V937.612C119.864 945.896 113.046 952.612 104.762 952.612C96.4776 952.612 89.6603 945.896 89.6603 937.612V888.284C89.6603 863.737 69.7611 843.838 45.2142 843.838C20.6672 843.838 0.768026 863.737 0.768026 888.284V966.477C0.768026 974.682 7.41944 981.334 15.6244 981.334C23.8293 981.334 30.4807 974.682 30.4807 966.477V888.284C30.4807 880.147 37.0771 873.551 45.2141 873.551C53.3512 873.551 59.9476 880.147 59.9476 888.284V937.51C59.9476 962.26 80.0117 982.324 104.762 982.324C129.512 982.324 149.576 962.26 149.576 937.51V814.732C149.576 798.164 136.145 784.732 119.576 784.732Z" fill="#A4DDD4"/>
<path d="M0.768026 1203.03L0.768026 1025.41C0.768026 1017.25 7.34248 1010.62 15.4977 1010.55C23.7518 1010.48 30.4807 1017.15 30.4807 1025.41V1203.03C30.4807 1211.23 23.8293 1217.88 15.6244 1217.88C7.41944 1217.88 0.768026 1211.23 0.768026 1203.03Z" fill="#A4DDD4"/>
<path d="M90.5758 563.801H119.576C136.145 563.801 149.576 550.37 149.576 533.801V521.245C149.576 513.04 142.925 506.388 134.72 506.388C126.515 506.388 119.864 513.04 119.864 521.245V534.089H90.1509V360.284H149.289C165.857 360.284 179.289 346.852 179.289 330.284V208.587H238.427C254.995 208.587 268.427 195.156 268.427 178.587V30.5987C268.427 14.0301 254.995 0.598675 238.427 0.598668L179.576 0.598645C163.008 0.598638 149.576 14.0301 149.576 30.5986V89.7366H75.157C50.5422 89.7366 30.588 109.691 30.588 134.306C30.588 158.92 50.5422 178.875 75.157 178.875H90.1509V238.3H30.7676C14.199 238.3 0.767578 251.731 0.767578 268.3V342.294C0.767578 350.499 7.41899 357.151 15.6239 357.151C23.8288 357.151 30.4802 350.499 30.4802 342.294V268.013H89.8635C106.432 268.013 119.864 254.581 119.864 238.013V179.162C119.864 162.593 106.432 149.162 89.8636 149.162H74.8039C66.599 149.162 59.9476 142.511 59.9476 134.306C59.9476 126.101 66.599 119.449 74.8039 119.449H149.289C165.857 119.449 179.289 106.018 179.289 89.4493V30.3113L238.714 30.3113V178.875H179.576C163.008 178.875 149.576 192.306 149.576 208.875V330.571H90.5758C74.0072 330.571 60.5758 344.003 60.5758 360.571V533.801C60.5758 550.37 74.0072 563.801 90.5758 563.801Z" fill="#A4DDD4"/>
</svg>
