<svg width="317" height="1230" viewBox="0 0 317 1230" fill="none" xmlns="http://www.w3.org/2000/svg">
<path d="M165.735 735.286H301.783C310.067 735.286 316.783 728.57 316.783 720.286C316.783 712.001 310.067 705.286 301.783 705.286H165.735C157.451 705.286 150.735 698.57 150.735 690.286C150.735 682.001 157.451 675.286 165.735 675.286L240.735 675.286C257.303 675.286 270.735 661.854 270.735 645.286V583.649C270.735 575.365 264.019 568.649 255.735 568.649C247.451 568.649 240.735 575.365 240.735 583.649V645.286L165.735 645.286C140.882 645.286 120.735 665.433 120.735 690.286C120.735 715.138 140.882 735.286 165.735 735.286Z" fill="#A4DDD4"/>
<path d="M180.735 420L240.735 420V523.649C240.735 531.933 247.451 538.649 255.735 538.649C264.019 538.649 270.735 531.934 270.735 523.649V420C270.735 403.432 257.303 390 240.735 390L180.735 390C164.166 390 150.735 403.432 150.735 420V464.81C150.735 473.095 157.451 479.81 165.735 479.81C174.019 479.81 180.735 473.095 180.735 464.81V420Z" fill="#A4DDD4"/>
<path d="M150.735 760.02H30.7349V690H45.2395C70.0923 690 90.2395 669.853 90.2395 645C90.2395 620.147 70.0923 600 45.2395 600H30.7349V405C30.7349 396.716 24.0191 390 15.7349 390C7.45059 390 0.734863 396.716 0.734863 405V600C0.734863 616.569 14.1663 630 30.7349 630H45.3784C53.6627 630 60.3784 636.716 60.3784 645C60.3784 653.284 53.6627 660 45.3784 660H30.7349C14.1663 660 0.734863 673.431 0.734863 690V760.02C0.734863 776.589 14.1663 790.02 30.7349 790.02H150.735V914.523C150.735 922.807 144.019 929.523 135.735 929.523H135.24C126.955 929.523 120.24 922.807 120.24 914.523V849.698C120.24 833.129 106.808 819.698 90.2395 819.698H30.7349C14.1663 819.698 0.734863 833.129 0.734863 849.698V943.523C0.734863 951.807 7.45059 958.523 15.7349 958.523C24.0191 958.523 30.7349 951.807 30.7349 943.523V849.698H90.2395V914.523C90.2395 939.376 110.634 959.523 135.487 959.523C160.34 959.523 180.735 939.376 180.735 914.523V790.02C180.735 773.452 167.303 760.02 150.735 760.02Z" fill="#A4DDD4"/>
<path d="M0.734863 1214.05V1003.52C0.734863 995.288 7.3729 988.593 15.607 988.522C23.9409 988.451 30.7349 995.188 30.7349 1003.52V1214.05C30.7349 1222.34 24.0191 1229.05 15.7349 1229.05C7.45059 1229.05 0.734863 1222.34 0.734863 1214.05Z" fill="#A4DDD4"/>
<path d="M90.3784 568.649H150.735C167.303 568.649 180.735 555.218 180.735 538.649V525.681C180.735 517.396 174.019 510.681 165.735 510.681C157.451 510.681 150.735 517.396 150.735 525.681V538.649H90.2395V363H180.735C197.303 363 210.735 349.569 210.735 333V210H270.735C287.303 210 300.735 196.569 300.735 180V30C300.735 13.4315 287.303 4.23465e-05 270.735 3.57628e-05L210.735 1.19209e-05C194.166 5.33719e-06 180.735 13.4315 180.735 30V90H75.7349C50.8821 90 30.7349 110.147 30.7349 135C30.7349 159.853 50.882 180 75.7349 180H120.735V240H30.7349C14.1663 240 0.734863 253.431 0.734863 270V345C0.734863 353.284 7.45059 360 15.7349 360C24.0191 360 30.7349 353.284 30.7349 345V270H120.735C137.303 270 150.735 256.569 150.735 240V180C150.735 163.431 137.303 150 120.735 150H75.3784C67.0941 150 60.3784 143.284 60.3784 135C60.3784 126.716 67.0941 120 75.3784 120H180.735C197.303 120 210.735 106.569 210.735 90V30L270.735 30V180H210.735C194.166 180 180.735 193.432 180.735 210V333H90.3784C73.8099 333 60.3784 346.431 60.3784 363V538.649C60.3784 555.218 73.8099 568.649 90.3784 568.649Z" fill="#A4DDD4"/>
</svg>
