<svg width="301" height="482" viewBox="0 0 301 482" fill="none" xmlns="http://www.w3.org/2000/svg">
<path d="M270.735 317V285.857C270.735 277.573 277.451 270.857 285.735 270.857C294.019 270.857 300.735 277.573 300.735 285.857V317C300.735 341.853 280.588 362 255.735 362C230.882 362 210.735 341.853 210.735 317V167C210.735 158.716 217.451 152 225.735 152C234.019 152 240.735 158.716 240.735 167V317C240.735 325.285 247.451 332 255.735 332C264.019 332 270.735 325.285 270.735 317Z" fill="#A4DDD4"/>
<path d="M120.735 270.857V407C120.735 415.285 127.451 422 135.735 422C144.019 422 150.735 415.285 150.735 407V317C150.735 308.716 157.451 302 165.735 302C174.019 302 180.735 308.716 180.735 317V407C180.735 431.853 160.588 452 135.735 452C110.882 452 90.7349 431.853 90.7349 407V270.857H30.7349V466.868C30.7349 475.152 24.0191 481.868 15.7349 481.868C7.45059 481.868 0.734863 475.152 0.734863 466.868V270.857C0.734863 254.289 14.1663 240.857 30.7349 240.857H90.7349C107.303 240.857 120.735 254.289 120.735 270.857Z" fill="#A4DDD4"/>
<path d="M150.735 255.857V45.8574C150.735 21.0046 170.882 0.857422 195.735 0.857422C220.588 0.857422 240.735 21.0046 240.735 45.8574V107C240.735 115.285 234.019 122 225.735 122C217.451 122 210.735 115.285 210.735 107V45.8574C210.735 37.5732 204.019 30.8574 195.735 30.8574C187.451 30.8574 180.735 37.5732 180.735 45.8574V255.857C180.735 264.142 174.019 270.857 165.735 270.857C157.451 270.857 150.735 264.142 150.735 255.857Z" fill="#A4DDD4"/>
</svg>
