<svg width="386" height="1187" viewBox="0 0 386 1187" fill="none" xmlns="http://www.w3.org/2000/svg">
<path d="M131.824 713.665H234.629C242.66 713.665 249.17 707.154 249.17 699.123C249.17 691.092 242.66 684.582 234.629 684.582H131.824C123.793 684.582 117.282 678.071 117.282 670.041C117.282 662.01 123.793 655.499 131.824 655.499H174.53C191.099 655.499 204.53 642.068 204.53 625.499V566.664C204.53 558.633 198.02 552.123 189.989 552.123C181.958 552.123 175.448 558.633 175.448 566.664V626.416L131.824 626.416C107.731 626.416 88.1994 645.948 88.1994 670.041C88.1994 694.133 107.731 713.665 131.824 713.665Z" fill="#A4DDD4"/>
<path d="M204.53 508.499V408.936C204.53 392.367 191.099 378.936 174.53 378.936H146.365V204.439H203.613C220.182 204.439 233.613 191.008 233.613 174.439V30.8594C233.613 14.2909 220.182 0.859416 203.613 0.859409L147.282 0.859387C130.714 0.85938 117.282 14.2908 117.282 30.8594V88.1077H46.0444C22.0435 88.1077 2.55055 107.496 2.4208 131.496C2.29006 155.681 22.2977 175.356 46.4829 175.356C54.5139 175.356 61.1697 181.867 61.1697 189.898C61.1697 197.929 54.6592 204.439 46.6283 204.439H30.0716C14.6515 204.439 2.13368 216.907 2.07183 232.327L1.84839 288.034C1.81762 295.706 8.02859 301.942 15.7009 301.942C23.3515 301.942 29.5535 295.74 29.5535 288.089V233.7H43.6676C68.2618 233.7 88.1994 213.488 88.1994 188.893C88.1994 164.601 68.5069 144.637 44.215 144.637H43.2767C35.6976 144.637 29.5535 138.493 29.5535 130.914C29.5535 123.335 35.6976 117.191 43.2767 117.191H116.365C132.933 117.191 146.365 103.759 146.365 87.1905V29.9422L204.53 29.9422V175.356H147.282C130.714 175.356 117.282 188.788 117.282 205.356V380.018C117.282 395.482 129.818 408.019 145.282 408.019H175.448V508.499C175.448 516.53 181.958 523.04 189.989 523.04C198.02 523.04 204.53 516.53 204.53 508.499Z" fill="#A4DDD4"/>
<path d="M102.125 449.407H29.5535V345.403C29.5535 337.689 23.3 331.435 15.5859 331.435C7.89375 331.435 1.64936 337.654 1.61851 345.347L1.19558 450.788C1.13338 466.295 13.6875 478.9 29.1954 478.9H102.536C110.68 478.9 117.282 485.502 117.282 493.646C117.282 501.791 110.68 508.393 102.536 508.393H28.4707C13.0067 508.393 0.470703 520.929 0.470703 536.393V582.517C0.470703 590.445 6.89761 596.872 14.8256 596.872C22.7671 596.872 29.1996 590.424 29.1805 582.482L29.0733 537.886H102.125C126.558 537.886 146.365 518.079 146.365 493.646C146.365 469.214 126.558 449.407 102.125 449.407Z" fill="#A4DDD4"/>
<path d="M74.2854 766.726H28.4707C13.0067 766.726 0.470703 754.19 0.470703 738.726V640.841C0.470703 632.875 6.92901 626.416 14.8957 626.416C22.8489 626.416 29.3016 632.854 29.3207 640.807L29.5535 737.643H72.5953C97.2752 737.643 117.282 757.65 117.282 782.33C117.282 807.01 97.2751 827.017 72.5953 827.017H44.1619C36.0939 827.017 29.5535 833.557 29.5535 841.625C29.5535 849.693 36.0939 856.234 44.1619 856.234H73.8627C97.8426 856.234 117.282 875.673 117.282 899.653C117.282 923.633 97.8426 943.073 73.8627 943.073H29.5535V993.686H149.649V810.965C149.649 786.533 169.455 766.726 193.888 766.726C218.321 766.726 238.128 786.533 238.128 810.965V877.055C238.128 885.199 231.525 891.802 223.381 891.802C215.237 891.802 208.635 885.199 208.635 877.055V809.3C208.635 801.156 202.033 794.554 193.888 794.554C185.744 794.554 179.142 801.156 179.142 809.3V993.881C179.142 1009.34 166.606 1021.88 151.142 1021.88H28.4707C13.0068 1021.88 0.470703 1009.34 0.470703 993.881V942.8C0.470703 927.336 13.0067 914.8 28.4707 914.8H73.9304C81.8109 914.8 88.1994 908.412 88.1994 900.531C88.1994 892.651 81.8109 886.262 73.9304 886.262H45.4707C20.6179 886.262 0.470703 866.115 0.470703 841.262V839.554C0.470703 814.701 20.6179 794.554 45.4707 794.554H74.2854C81.9699 794.554 88.1993 788.324 88.1993 780.64C88.1993 772.955 81.9698 766.726 74.2854 766.726Z" fill="#A4DDD4"/>
<path d="M29.5535 1089.96V1172.19C29.5535 1180.22 23.0431 1186.73 15.0121 1186.73C6.98111 1186.73 0.470703 1180.22 0.470703 1172.19V1087.74C0.470703 1072.28 13.0067 1059.74 28.4707 1059.74H89.2822C104.746 1059.74 117.282 1072.28 117.282 1087.74V1157.24H174.473V1075.49C174.473 1060.03 187.009 1047.49 202.473 1047.49H224.992C232.247 1047.49 238.128 1053.37 238.128 1060.62C238.128 1067.88 232.247 1073.76 224.992 1073.76H204.53V1158.73C204.53 1174.2 191.994 1186.73 176.53 1186.73H116.199C100.735 1186.73 88.1994 1174.2 88.1994 1158.73V1089.96H29.5535Z" fill="#A4DDD4"/>
<path d="M344.463 991.502H238.128V936.041C238.128 927.897 231.525 921.295 223.381 921.295C215.237 921.295 208.635 927.897 208.635 936.041V991.696C208.635 1007.16 221.171 1019.7 236.635 1019.7H342.203C349.878 1019.7 356.1 1025.92 356.1 1033.59C356.1 1041.27 349.878 1047.49 342.203 1047.49H280.756C273.502 1047.49 267.621 1053.37 267.621 1060.62C267.621 1067.88 273.502 1073.76 280.756 1073.76H344.463C367.178 1073.76 385.593 1055.35 385.593 1032.63C385.593 1009.92 367.178 991.502 344.463 991.502Z" fill="#A4DDD4"/>
</svg>
