<svg width="268" height="423" viewBox="0 0 268 423" fill="none" xmlns="http://www.w3.org/2000/svg">
<path d="M238.139 259.399V228.554C238.139 220.349 244.791 213.698 252.996 213.698C261.2 213.698 267.852 220.349 267.852 228.554V259.399C267.852 284.014 247.898 303.968 223.283 303.968C198.668 303.968 178.714 284.014 178.714 259.399V44.736C178.714 36.5311 172.062 29.8797 163.858 29.8797C155.653 29.8797 149.001 36.5311 149.001 44.736V198.842C149.001 207.047 142.35 213.698 134.145 213.698C125.94 213.698 119.288 207.047 119.288 198.842V44.736C119.288 20.1212 139.243 0.166992 163.857 0.166992C188.472 0.166992 208.426 20.1212 208.426 44.736V259.399C208.426 267.604 215.078 274.255 223.283 274.255C231.488 274.255 238.139 267.604 238.139 259.399Z" fill="#F28EC0"/>
<path d="M89.5758 243.698V348.537C89.5758 356.742 96.2272 363.393 104.432 363.393C112.637 363.393 119.288 356.742 119.288 348.537V259.399C119.288 251.194 125.94 244.543 134.145 244.543C142.35 244.543 149.001 251.194 149.001 259.399V348.537C149.001 373.152 129.047 393.106 104.432 393.106C79.8174 393.106 59.8631 373.152 59.8631 348.537V243.411H30.699V407.831C30.699 416.036 24.0476 422.688 15.8427 422.688C7.63774 422.688 0.986328 416.036 0.986328 407.831V243.698C0.986328 227.129 14.4178 213.698 30.9863 213.698H59.5758C76.1443 213.698 89.5758 227.129 89.5758 243.698Z" fill="#F28EC0"/>
</svg>
