<svg width="112" height="81" viewBox="0 0 112 81" fill="none" xmlns="http://www.w3.org/2000/svg">
<path d="M45.2917 35.792C41.3547 35.792 38.1631 38.9612 38.1631 42.8705V64.1137V73.6487C38.1631 77.558 41.3547 80.7272 45.2917 80.7272C49.2287 80.7272 52.4203 77.558 52.4203 73.6487V42.8705C52.4203 38.9612 49.2287 35.792 45.2917 35.792ZM45.2917 76.0097C43.9794 76.0097 42.9155 74.9533 42.9155 73.6502V42.8721C42.9155 41.5689 43.9794 40.5125 45.2917 40.5125C46.604 40.5125 47.6679 41.5689 47.6679 42.8721V73.6502C47.6679 74.9533 46.604 76.0097 45.2917 76.0097Z" fill="black"/>
<path d="M107.203 71.1662V57.0091V54.6496C107.203 53.3464 108.267 52.29 109.579 52.29C110.892 52.29 111.955 53.3464 111.955 54.6496V57.0091V75.8852V78.2447C111.955 79.5478 110.892 80.6042 109.579 80.6042C108.267 80.6042 107.203 79.5478 107.203 78.2447V75.8852H102.294C102.294 78.4914 100.166 80.6042 97.5412 80.6042H93.909C90.754 80.6042 88.1949 78.0646 88.1949 74.9317L88.1934 54.6496C88.1934 53.3464 89.2572 52.29 90.5696 52.29C91.8819 52.29 92.9458 53.3464 92.9458 54.6496V73.5257C92.9458 74.8288 94.0096 75.8852 95.322 75.8852C96.6343 75.8852 97.6982 74.8288 97.6982 73.5257C97.6982 72.2226 98.7621 71.1662 100.074 71.1662H107.203V68.8067V71.1662Z" fill="black"/>
<path d="M33.3524 78.1755V52.248C33.3524 48.3387 30.1607 45.1695 26.2238 45.1695C22.2868 45.1695 19.0951 48.3387 19.0951 52.248V71.1242C19.0951 72.4273 18.0313 73.4837 16.7189 73.4852C15.4066 73.4852 14.3427 72.4303 14.3427 71.1272C14.3427 69.818 14.3427 53.9522 14.3427 52.2465C14.3427 48.3372 11.1511 45.168 7.21412 45.168C3.27563 45.168 0.0839844 48.3372 0.0839844 52.2465V78.0937C0.0839844 79.3968 1.14787 80.4532 2.46019 80.4532C3.77251 80.4532 4.83639 79.3968 4.83639 78.0937V61.6846V52.2465C4.83639 50.9434 5.90027 49.887 7.2126 49.887C8.52492 49.887 9.5888 50.9419 9.5888 52.245C9.5888 53.5542 9.5888 69.42 9.5888 71.1242C9.5888 75.0335 12.7804 78.2042 16.7174 78.2042C20.6544 78.2042 23.846 75.035 23.846 71.1257V52.248C23.846 50.9449 24.9099 49.8885 26.2222 49.8885C27.5346 49.8885 28.5984 50.9449 28.5984 52.248V52.2465V54.606V78.1755C28.5984 79.4786 29.6623 80.535 30.9746 80.535C32.2885 80.535 33.3524 79.4786 33.3524 78.1755Z" fill="black"/>
<path d="M57.2129 78.354C57.2129 79.6571 58.2768 80.7135 59.5891 80.7135H64.3064C69.5557 80.7135 73.8113 76.4878 73.8113 71.2754V66.5564C73.8113 61.344 69.5557 56.967 64.3064 56.967L64.4314 52.2479L66.6826 52.3993C70.6196 52.3993 73.8113 49.2301 73.8113 45.3207C73.8113 41.4114 70.6196 38.2422 66.6826 38.2422H64.3064H59.679H59.6546C58.3515 38.2558 57.3028 39.3077 57.3028 40.6017C57.3028 41.9048 58.3667 42.9612 59.679 42.9612H66.6826C67.995 42.9612 69.0589 44.0176 69.0589 45.3207C69.0589 46.6238 67.995 47.6803 66.6826 47.6803L64.4314 47.5289C61.8068 47.5289 59.679 49.6417 59.679 52.2479V56.967C59.679 59.5732 61.8068 61.686 64.4314 61.686H64.3064C66.9311 61.686 69.0589 63.9502 69.0589 66.5564V71.2754C69.0589 73.8816 66.9311 75.9944 64.3064 75.9944H59.5891C58.2768 75.9944 57.2129 77.0508 57.2129 78.354Z" fill="black"/>
<path d="M42.8577 2.90194V24.0286C42.8577 26.6439 40.7391 28.7719 38.1053 28.8036H30.6932C29.3657 28.8036 28.2896 27.7351 28.2896 26.4169C28.2896 25.0986 29.3657 24.0301 30.6932 24.0301H38.1053V14.6995H23.8481C21.2235 14.6995 19.0957 12.5867 19.0957 9.98049V2.84745C19.0957 1.52315 20.1931 0.457664 21.5268 0.487934C22.1715 0.503069 22.7522 0.772468 23.1714 1.19776C23.5905 1.62456 23.8481 2.20725 23.8481 2.84745V9.98049H38.1053V2.97004C38.1053 1.6745 39.1723 0.543933 40.477 0.542419C41.1354 0.540906 41.7314 0.804252 42.1612 1.23408C42.5925 1.66088 42.8577 2.24963 42.8577 2.90194Z" fill="black"/>
<path d="M69.1075 33.4126C67.8012 33.405 66.745 32.3502 66.745 31.0531V5.08329H52.3628V31.0531C52.3628 32.3562 51.2989 33.4126 49.9866 33.4126C48.6742 33.4126 47.6104 32.3562 47.6104 31.0531V5.08329C47.6104 2.47708 49.7381 0.364258 52.3628 0.364258H66.745C69.3696 0.364258 71.4974 2.47708 71.4974 5.08329V28.68V31.0531C71.4989 32.3623 70.4259 33.4202 69.1075 33.4126Z" fill="black"/>
<path d="M0.0839844 40.431V2.84975C0.0839844 1.54664 1.14786 0.490234 2.46019 0.490234C3.77251 0.490234 4.83639 1.54664 4.83639 2.84975V9.9283H9.58879V2.84975C9.58879 1.54664 10.6527 0.490234 11.965 0.490234C13.2773 0.490234 14.3412 1.54664 14.3412 2.84975V9.9283C14.3412 12.5345 12.2134 14.6473 9.58879 14.6473H4.83639V19.3664H19.0936C21.7182 19.3664 23.846 21.4792 23.846 24.0854V40.431C23.846 41.7341 22.7821 42.7905 21.4698 42.7905C20.1575 42.7905 19.0936 41.7341 19.0936 40.431V24.0854H4.83639V40.431C4.83639 41.7341 3.77251 42.7905 2.46019 42.7905C1.14786 42.7905 0.0839844 41.7341 0.0839844 40.431Z" fill="black"/>
<path d="M80.6077 80.6044H80.9125C82.2248 80.6044 83.2887 79.548 83.2887 78.2449V47.5696H86.0627H90.1125C91.4248 47.5696 92.4887 46.5132 92.4887 45.2101C92.4887 43.907 91.4248 42.8506 90.1125 42.8506H82.9839C80.3592 42.8506 78.2314 44.9634 78.2314 47.5696V78.2449C78.2314 79.548 79.2953 80.6044 80.6077 80.6044Z" fill="black"/>
<path d="M76.0977 2.73745V33.3506C76.0977 35.9568 78.2254 38.0697 80.8501 38.0697H97.6984C100.323 38.0697 102.451 35.9568 102.451 33.3506V21.553H107.203V35.7101C107.203 37.0132 108.267 38.0697 109.579 38.0697C110.892 38.0697 111.956 37.0132 111.956 35.7101V2.73745C111.956 1.43434 110.892 0.37793 109.579 0.37793C108.267 0.37793 107.203 1.43434 107.203 2.73745V16.8325H102.451C99.8262 16.8325 97.6984 18.9453 97.6984 21.5515V33.3491H80.8501V2.73745C80.8501 1.43434 79.7862 0.37793 78.4739 0.37793C77.1615 0.37793 76.0977 1.43434 76.0977 2.73745Z" fill="black"/>
</svg>
