<svg width="722" height="512" viewBox="0 0 722 512" fill="none" xmlns="http://www.w3.org/2000/svg">
<path d="M284.203 225.537C258.865 225.537 238.324 245.934 238.324 271.094V404.813V466.179C238.324 491.339 258.865 511.736 284.203 511.736C309.541 511.736 330.083 491.339 330.083 466.179V271.094C330.083 245.934 309.541 225.537 284.203 225.537ZM284.203 481.375C275.757 481.375 268.91 474.576 268.91 466.189V271.103C268.91 262.717 275.757 255.918 284.203 255.918C292.649 255.918 299.496 262.717 299.496 271.103V466.189C299.496 474.576 292.649 481.375 284.203 481.375Z" fill="#A4DDD4"/>
<path d="M689.496 450.292V361.178V345.993C689.496 337.606 696.344 330.807 704.79 330.807C713.236 330.807 720.083 337.606 720.083 345.993V361.178V480.664V495.85C720.083 504.236 713.236 511.035 704.79 511.035C696.344 511.035 689.496 504.236 689.496 495.85V480.664H662.115C662.115 497.437 648.421 511.035 631.529 511.035H608.153C587.847 511.035 571.377 494.69 571.377 474.527L571.367 345.993C571.367 337.606 578.214 330.807 586.66 330.807C595.106 330.807 601.953 337.606 601.953 345.993V465.478C601.953 473.865 608.8 480.664 617.246 480.664C625.692 480.664 632.539 473.865 632.539 465.478C632.539 457.091 639.386 450.292 647.832 450.292H689.496V435.107V450.292Z" fill="#A4DDD4"/>
<path d="M212.195 495.401V330.534C212.195 305.374 191.654 284.978 166.316 284.978C140.978 284.978 120.436 305.374 120.436 330.534V450.02C120.436 458.406 113.589 465.205 105.143 465.215C96.6973 465.215 89.8502 458.426 89.8502 450.039C89.8502 441.614 89.8502 341.502 89.8502 330.525C89.8502 305.365 70.3091 284.968 44.971 284.968C19.6232 284.968 0.0820312 305.365 0.0820312 330.525V494.875C0.0820312 503.262 6.92909 510.061 15.3751 510.061C23.8211 510.061 30.6682 503.262 30.6682 494.875V389.267V330.525C30.6682 322.138 36.5152 315.339 44.9612 315.339C53.4072 315.339 59.2543 322.128 59.2543 330.515C59.2543 338.941 59.2543 439.052 59.2543 450.02C59.2543 475.18 79.7955 495.586 105.133 495.586C130.472 495.586 151.013 475.19 151.013 450.03V330.534C151.013 322.148 157.86 315.349 166.306 315.349C174.752 315.349 181.599 322.148 181.599 330.534V330.525V345.71V495.401C181.599 503.788 188.446 510.587 196.892 510.587C205.348 510.587 212.195 503.788 212.195 495.401Z" fill="#A4DDD4"/>
<path d="M360.082 496.244C360.082 504.63 366.929 511.429 375.375 511.429H419.307C453.091 511.429 480.48 484.233 480.48 450.687V423.315C480.48 389.769 453.091 361.599 419.307 361.599L420.112 331.227L434.601 332.201C459.939 332.201 480.48 311.804 480.48 286.644C480.48 261.484 459.939 241.087 434.601 241.087H405.736H375.954H375.797C367.41 241.175 360.661 247.945 360.661 256.273C360.661 264.66 367.508 271.459 375.954 271.459H434.601C443.047 271.459 449.894 278.258 449.894 286.644C449.894 295.031 443.047 301.83 434.601 301.83L420.112 300.856C403.22 300.856 389.526 314.454 389.526 331.227V361.599C389.526 378.372 403.22 391.97 420.112 391.97H419.307C436.199 391.97 449.894 406.542 449.894 423.315V450.687C449.894 467.46 436.199 481.058 419.307 481.058H375.375C366.929 481.058 360.082 487.857 360.082 496.244Z" fill="#A4DDD4"/>
<path d="M270.578 16.9544V150.924C270.578 167.756 256.943 181.451 239.992 181.656L194.723 181.656C186.179 181.656 179.253 174.779 179.253 166.295C179.253 157.811 186.179 150.934 194.723 150.934L239.992 150.934V90.8828H150.668C133.776 90.8828 120.082 77.2848 120.082 60.5114V16.6038C120.082 8.08072 127.145 1.2233 135.728 1.41811C139.878 1.51552 143.615 3.24935 146.313 5.98648C149.01 8.73334 150.668 12.4835 150.668 16.6038V60.5114H239.992V17.3928C239.992 9.05478 246.859 1.77852 255.256 1.76878C259.493 1.75904 263.329 3.45391 266.095 6.22025C268.871 8.96711 270.578 12.7562 270.578 16.9544Z" fill="#A4DDD4"/>
<path d="M435.603 211.312C427.196 211.263 420.398 204.474 420.398 196.126V30.9866H330.668V196.126C330.668 204.513 323.821 211.312 315.375 211.312C306.929 211.312 300.082 204.513 300.082 196.126V30.9866C300.082 14.2132 313.776 0.615234 330.668 0.615234H420.398C437.29 0.615234 450.984 14.2132 450.984 30.9866V180.853V196.126C450.994 204.552 444.088 211.361 435.603 211.312Z" fill="#A4DDD4"/>
<path d="M0.0820312 256.47V16.5997C0.0820312 8.21303 6.92908 1.41406 15.3751 1.41406C23.8211 1.41406 30.6681 8.21303 30.6681 16.5997V61.1567H61.2543V16.5997C61.2543 8.21303 68.1013 1.41406 76.5473 1.41406C84.9933 1.41406 91.8404 8.21303 91.8404 16.5997V61.1567C91.8404 77.9301 78.1463 91.528 61.2543 91.528H30.6681V120.899H122.426C139.318 120.899 153.013 134.497 153.013 151.271V256.47C153.013 264.856 146.166 271.655 137.72 271.655C129.274 271.655 122.426 264.856 122.426 256.47V151.271H30.6681V256.47C30.6681 264.856 23.8211 271.655 15.3751 271.655C6.92908 271.655 0.0820312 264.856 0.0820312 256.47Z" fill="#A4DDD4"/>
<path d="M524.329 511.035H526.291C534.737 511.035 541.584 504.236 541.584 495.849V301.426H559.438H585.501C593.947 301.426 600.795 294.627 600.795 286.24C600.795 277.854 593.947 271.055 585.501 271.055H539.622C522.73 271.055 509.036 284.653 509.036 301.426V495.849C509.036 504.236 515.883 511.035 524.329 511.035Z" fill="#A4DDD4"/>
<path d="M480.082 15.8009V210.825C480.082 227.598 493.776 241.196 510.668 241.196H629.628C646.52 241.196 660.214 227.598 660.214 210.825V136.276H690.8V226.011C690.8 234.397 697.647 241.196 706.093 241.196C714.539 241.196 721.386 234.397 721.386 226.011V15.8009C721.386 7.4142 714.539 0.615234 706.093 0.615234C697.647 0.615234 690.8 7.4142 690.8 15.8009V105.895H660.214C643.322 105.895 629.628 119.493 629.628 136.266V210.815H510.668V15.8009C510.668 7.4142 503.821 0.615234 495.375 0.615234C486.929 0.615234 480.082 7.4142 480.082 15.8009Z" fill="#A4DDD4"/>
</svg>
