<svg width="149" height="154" viewBox="0 0 149 154" fill="none" xmlns="http://www.w3.org/2000/svg">
<path d="M44.4184 101.925V19.7145C44.4184 18.2044 43.1888 16.9748 41.6788 16.9748C40.1688 16.9748 38.9392 18.2044 38.9392 19.7145V47.1178C38.9392 48.6279 37.7096 49.8575 36.1996 49.8575C34.6896 49.8575 33.46 48.6279 33.46 47.1178V19.7145C33.46 15.1772 37.1415 11.4956 41.6788 11.4956C46.2161 11.4956 49.8977 15.1772 49.8977 19.7145V101.925C49.8977 103.435 48.6681 104.664 47.1581 104.664C45.6408 104.664 44.4184 103.442 44.4184 101.925Z" fill="black"/>
<path d="M88.265 107.404V115.623H74.5597C70.0224 115.623 66.3408 119.304 66.3408 123.842C66.3408 128.379 70.0224 132.06 74.5597 132.06H88.265V137.54V145.759C88.265 150.296 91.9465 153.977 96.4838 153.977C101.021 153.977 104.703 150.296 104.703 145.759V129.314C104.703 127.804 103.473 126.574 101.963 126.574C100.453 126.574 99.2234 127.804 99.2234 129.314V145.759C99.2234 147.269 97.9938 148.498 96.4838 148.498C94.9738 148.498 93.7442 147.269 93.7442 145.759V143.019V132.06C93.7442 129.033 91.2922 126.581 88.265 126.581H74.5597C73.0496 126.581 71.8201 125.352 71.8201 123.842C71.8201 122.332 73.0496 121.102 74.5597 121.102H88.265C91.2922 121.102 93.7442 118.65 93.7442 115.623V107.404C93.7442 105.894 92.5146 104.664 91.0046 104.664C89.4874 104.664 88.265 105.894 88.265 107.404Z" fill="black"/>
<path d="M60.8549 19.7145V8.74888C60.8549 7.23886 62.0844 6.00927 63.5945 6.00927C65.1045 6.00927 66.3341 7.23886 66.3341 8.74888V14.2281C66.3341 18.7654 70.0157 22.447 74.5529 22.447C79.0902 22.447 82.7718 18.7654 82.7718 14.2281V8.74888C82.7718 7.23886 84.0014 6.00927 85.5114 6.00927C87.0214 6.00927 88.251 7.23886 88.251 8.74888V27.9334H71.8205C68.7933 27.9334 66.3413 30.3854 66.3413 33.4126V38.8919C66.3413 41.9191 68.7933 44.3711 71.8205 44.3711H88.2654V71.7745H74.5601C70.0229 71.7745 66.3413 75.4561 66.3413 79.9933C66.3413 84.5306 70.0229 88.2122 74.5601 88.2122H88.2654V96.431C88.2654 97.9411 89.495 99.1707 91.005 99.1707C92.5151 99.1707 93.7447 97.9411 93.7447 96.431V88.2122C93.7447 85.185 91.2927 82.733 88.2654 82.733H74.5601C73.0501 82.733 71.8205 81.5034 71.8205 79.9933C71.8205 78.4833 73.0501 77.2537 74.5601 77.2537H88.2654C91.2927 77.2537 93.7447 74.8017 93.7447 71.7745V44.3783C93.7447 41.3511 91.2927 38.8991 88.2654 38.8991H74.5601C73.0501 38.8991 71.8205 37.6695 71.8205 36.1594C71.8205 34.6494 73.0501 33.4198 74.5601 33.4198H88.2654C91.2927 33.4198 93.7447 30.9678 93.7447 27.9406V8.74888C93.7447 4.21162 90.0631 0.530029 85.5258 0.530029C80.9885 0.530029 77.3069 4.21162 77.3069 8.74888V14.2281C77.3069 15.7381 76.0774 16.9677 74.5673 16.9677C73.0573 16.9677 71.8277 15.7381 71.8277 14.2281V8.74888C71.8205 4.21162 68.1389 0.530029 63.6017 0.530029C59.0644 0.530029 55.3828 4.21162 55.3828 8.74888V19.7074C55.3828 21.2174 56.6124 22.447 58.1224 22.447C59.6325 22.4542 60.8549 21.2246 60.8549 19.7145Z" fill="black"/>
<path d="M58.1161 27.9336C56.606 27.9336 55.3764 29.1632 55.3764 30.6732V49.8577C55.3764 52.885 57.8284 55.337 60.8557 55.337H74.561C76.071 55.337 77.3006 56.5666 77.3006 58.0766C77.3006 59.5866 76.071 60.8162 74.561 60.8162H60.8557C57.8284 60.8162 55.3764 63.2682 55.3764 66.2954V93.6988C55.3764 96.7261 57.8284 99.178 60.8557 99.178H74.561C76.071 99.178 77.3006 100.408 77.3006 101.918C77.3006 103.428 76.071 104.657 74.561 104.657H60.8557C57.8284 104.657 55.3764 107.109 55.3764 110.137V137.54C55.3764 140.567 57.8284 143.019 60.8557 143.019H74.561C76.071 143.019 77.3006 144.249 77.3006 145.759C77.3006 147.269 76.071 148.498 74.561 148.498H55.3764H49.8972V112.876C49.8972 111.366 48.6676 110.137 47.1576 110.137C45.6476 110.137 44.418 111.366 44.418 112.876V148.498C44.418 151.526 46.87 153.978 49.8972 153.978H60.8557H74.561C79.0982 153.978 82.7798 150.296 82.7798 145.759C82.7798 141.221 79.0982 137.54 74.561 137.54H60.8557V110.137H74.561C79.0982 110.137 82.7798 106.455 82.7798 101.918C82.7798 97.3804 79.0982 93.6988 74.561 93.6988H60.8557V66.3026H74.561C79.0982 66.3026 82.7798 62.621 82.7798 58.0838C82.7798 53.5465 79.0982 49.8649 74.561 49.8649H60.8557V30.6732C60.8557 29.1632 59.6333 27.9336 58.1161 27.9336Z" fill="black"/>
<path d="M110.184 85.4797V19.7145C110.184 18.2044 108.954 16.9748 107.444 16.9748C105.934 16.9748 104.705 18.2044 104.705 19.7145V30.6729C104.705 32.183 103.475 33.4125 101.965 33.4125C100.455 33.4125 99.2256 32.183 99.2256 30.6729V19.7145C99.2256 15.1772 102.907 11.4956 107.444 11.4956C111.982 11.4956 115.663 15.1772 115.663 19.7145V85.4869C115.663 86.9969 114.434 88.2265 112.924 88.2265C111.414 88.2265 110.184 86.9969 110.184 85.4797Z" fill="black"/>
<path d="M115.67 96.4454V132.068H121.149H129.368C130.878 132.068 132.107 130.838 132.107 129.328C132.107 127.818 130.878 126.588 129.368 126.588C124.83 126.588 121.149 122.907 121.149 118.37C121.149 113.832 124.83 110.151 129.368 110.151H140.326C141.836 110.151 143.066 108.921 143.066 107.411C143.066 105.901 141.836 104.671 140.326 104.671H129.368C124.83 104.671 121.149 100.99 121.149 96.4526C121.149 91.9153 124.83 88.2338 129.368 88.2338H140.326C141.836 88.2338 143.066 87.0042 143.066 85.4941C143.066 83.9841 141.836 82.7545 140.326 82.7545H129.368C124.83 82.7545 121.149 79.0729 121.149 74.5357C121.149 69.9984 124.83 66.3168 129.368 66.3168H140.326C141.836 66.3168 143.066 65.0872 143.066 63.5772C143.066 62.0672 141.836 60.8376 140.326 60.8376H129.368C124.83 60.8376 121.149 57.156 121.149 52.6187C121.149 48.0815 124.83 44.3999 129.368 44.3999C130.878 44.3999 132.107 43.1703 132.107 41.6603C132.107 40.1502 130.878 38.9206 129.368 38.9206H123.889C122.378 38.9206 121.149 37.6911 121.149 36.181C121.149 34.671 122.378 33.4414 123.889 33.4414H129.368C133.905 33.4414 137.587 37.123 137.587 41.6603C137.587 46.1975 133.905 49.8791 129.368 49.8791C127.858 49.8791 126.628 51.1087 126.628 52.6187C126.628 54.1288 127.858 55.3583 129.368 55.3583H140.326C144.864 55.3583 148.545 59.0399 148.545 63.5772C148.545 68.1145 144.864 71.7961 140.326 71.7961H129.368C127.858 71.7961 126.628 73.0256 126.628 74.5357C126.628 76.0457 127.858 77.2753 129.368 77.2753H140.326C144.864 77.2753 148.545 80.9569 148.545 85.4941C148.545 90.0314 144.864 93.713 140.326 93.713H129.368C127.858 93.713 126.628 94.9426 126.628 96.4526C126.628 97.9626 127.858 99.1922 129.368 99.1922H140.326C144.864 99.1922 148.545 102.874 148.545 107.411C148.545 111.948 144.864 115.63 140.326 115.63H129.368C127.858 115.63 126.628 116.86 126.628 118.37C126.628 119.88 127.858 121.109 129.368 121.109C133.905 121.109 137.587 124.791 137.587 129.328C137.587 133.865 133.905 137.547 129.368 137.547H126.628H115.67C112.642 137.547 110.19 135.095 110.19 132.068V96.4454C110.19 94.9354 111.42 93.7058 112.93 93.7058C114.44 93.7058 115.67 94.9282 115.67 96.4454Z" fill="black"/>
<path d="M99.2256 118.37V41.6388C99.2256 40.1288 100.455 38.8992 101.965 38.8992C103.475 38.8992 104.705 40.1288 104.705 41.6388V118.37C104.705 119.88 103.475 121.109 101.965 121.109C100.455 121.109 99.2256 119.88 99.2256 118.37Z" fill="black"/>
<path d="M33.4521 69.0422V58.0765C33.4521 56.5665 34.6817 55.3369 36.1918 55.3369C37.7018 55.3369 38.9314 56.5665 38.9314 58.0765V69.035C38.9314 70.545 37.7018 71.7746 36.1918 71.7746C34.6817 71.7818 33.4521 70.5522 33.4521 69.0422Z" fill="black"/>
<path d="M38.9384 80.0007V132.068C38.9384 135.095 36.4864 137.547 33.4591 137.547H22.4935H19.7539C15.2166 137.547 11.535 133.866 11.535 129.328C11.535 124.791 15.2166 121.109 19.7539 121.109C21.2639 121.109 22.4935 119.88 22.4935 118.37C22.4935 116.86 21.2639 115.63 19.7539 115.63H8.78819C4.25092 115.63 0.569336 111.949 0.569336 107.404C0.569336 102.867 4.25092 99.1853 8.78819 99.1853H19.7467C21.2567 99.1853 22.4863 97.9557 22.4863 96.4456C22.4863 94.9356 21.2567 93.706 19.7467 93.706H8.78819C4.25092 93.706 0.569336 90.0244 0.569336 85.48C0.569336 80.9427 4.25092 77.2611 8.78819 77.2611H19.7467C21.2567 77.2611 22.4863 76.0315 22.4863 74.5215C22.4863 73.0115 21.2567 71.7819 19.7467 71.7819H8.78819C4.25092 71.7819 0.569336 68.1003 0.569336 63.563C0.569336 59.0258 4.25092 55.3442 8.78819 55.3442H19.7467C21.2567 55.3442 22.4863 54.1146 22.4863 52.6046C22.4863 51.0945 21.2567 49.865 19.7467 49.865C15.2094 49.865 11.5278 46.1834 11.5278 41.6461C11.5278 37.1088 15.2094 33.4272 19.7467 33.4272H25.2259C26.7359 33.4272 27.9655 34.6568 27.9655 36.1669C27.9655 37.6769 26.7359 38.9065 25.2259 38.9065H19.7467C18.2366 38.9065 17.007 40.1361 17.007 41.6461C17.007 43.1561 18.2366 44.3857 19.7467 44.3857C24.2839 44.3857 27.9655 48.0673 27.9655 52.6046C27.9655 57.1418 24.2839 60.8234 19.7467 60.8234H8.78819C7.27817 60.8234 6.04857 62.053 6.04857 63.563C6.04857 65.0731 7.27817 66.3027 8.78819 66.3027H19.7467C24.2839 66.3027 27.9655 69.9842 27.9655 74.5215C27.9655 79.0588 24.2839 82.7404 19.7467 82.7404H8.78819C7.27817 82.7404 6.04857 83.97 6.04857 85.48C6.04857 86.99 7.27817 88.2196 8.78819 88.2196H19.7467C24.2839 88.2196 27.9655 91.9012 27.9655 96.4385C27.9655 100.976 24.2839 104.657 19.7467 104.657H8.78819C7.27817 104.657 6.04857 105.887 6.04857 107.397C6.04857 108.907 7.27817 110.137 8.78819 110.137H19.7467C24.2839 110.137 27.9655 113.818 27.9655 118.355C27.9655 122.893 24.2839 126.574 19.7467 126.574C18.2366 126.574 17.007 127.804 17.007 129.314C17.007 130.824 18.2366 132.053 19.7467 132.053H27.9655H33.4448V79.9864C33.4448 78.4763 34.6743 77.2468 36.1844 77.2468C37.7088 77.2611 38.9384 78.4907 38.9384 80.0007Z" fill="black"/>
<path d="M36.1918 55.3369C37.7048 55.3369 38.9314 54.1103 38.9314 52.5973C38.9314 51.0842 37.7048 49.8577 36.1918 49.8577C34.6787 49.8577 33.4521 51.0842 33.4521 52.5973C33.4521 54.1103 34.6787 55.3369 36.1918 55.3369Z" fill="black"/>
<path d="M58.1166 27.9336C59.6296 27.9336 60.8562 26.707 60.8562 25.194C60.8562 23.6809 59.6296 22.4543 58.1166 22.4543C56.6035 22.4543 55.377 23.6809 55.377 25.194C55.377 26.707 56.6035 27.9336 58.1166 27.9336Z" fill="black"/>
<path d="M91.0062 104.664C92.5193 104.664 93.7458 103.438 93.7458 101.925C93.7458 100.412 92.5193 99.1851 91.0062 99.1851C89.4932 99.1851 88.2666 100.412 88.2666 101.925C88.2666 103.438 89.4932 104.664 91.0062 104.664Z" fill="black"/>
<path d="M101.965 38.8921C103.478 38.8921 104.705 37.6655 104.705 36.1525C104.705 34.6394 103.478 33.4128 101.965 33.4128C100.452 33.4128 99.2256 34.6394 99.2256 36.1525C99.2256 37.6655 100.452 38.8921 101.965 38.8921Z" fill="black"/>
<path d="M112.922 93.7058C114.435 93.7058 115.662 92.4792 115.662 90.9662C115.662 89.4531 114.435 88.2266 112.922 88.2266C111.409 88.2266 110.183 89.4531 110.183 90.9662C110.183 92.4792 111.409 93.7058 112.922 93.7058Z" fill="black"/>
<path d="M101.965 126.589C103.478 126.589 104.705 125.362 104.705 123.849C104.705 122.336 103.478 121.109 101.965 121.109C100.452 121.109 99.2256 122.336 99.2256 123.849C99.2256 125.362 100.452 126.589 101.965 126.589Z" fill="black"/>
<path d="M36.1918 77.2612C37.7048 77.2612 38.9314 76.0347 38.9314 74.5216C38.9314 73.0086 37.7048 71.782 36.1918 71.782C34.6787 71.782 33.4521 73.0086 33.4521 74.5216C33.4521 76.0347 34.6787 77.2612 36.1918 77.2612Z" fill="black"/>
<path d="M47.1576 110.144C48.6706 110.144 49.8972 108.917 49.8972 107.404C49.8972 105.891 48.6706 104.664 47.1576 104.664C45.6445 104.664 44.418 105.891 44.418 107.404C44.418 108.917 45.6445 110.144 47.1576 110.144Z" fill="black"/>
</svg>
