<svg width="116" height="122" viewBox="0 0 116 122" fill="none" xmlns="http://www.w3.org/2000/svg">
<path d="M54.8906 0.211914H42.1189C40.355 0.211914 38.9259 1.64102 38.9259 3.40486C38.9259 5.16869 40.355 6.5978 42.1189 6.5978H54.8906C56.6545 6.5978 58.0836 5.16869 58.0836 3.40486C58.0836 1.64102 56.6545 0.211914 54.8906 0.211914ZM45.3118 41.7222C45.3118 39.9583 46.7409 38.5292 48.5048 38.5292H99.5938C101.358 38.5292 102.787 37.1001 102.787 35.3363C102.787 33.5725 101.358 32.1433 99.5938 32.1433H86.8221C85.0582 32.1433 83.6291 30.7142 83.6291 28.9504C83.6291 27.1866 85.0582 25.7575 86.8221 25.7575H99.5938C104.885 25.7575 109.173 30.0468 109.173 35.3363C109.173 40.6278 104.883 44.9151 99.5938 44.9151H48.5027C46.7409 44.9171 45.3118 43.486 45.3118 41.7222ZM80.4362 83.2344H10.1874C4.89594 83.2344 0.608604 78.9451 0.608604 73.6556C0.608604 68.3641 4.89794 64.0768 10.1874 64.0768H105.982C107.746 64.0768 109.175 62.6477 109.175 60.8838C109.175 59.12 107.746 57.6909 105.982 57.6909H61.2765C59.5127 57.6909 58.0836 56.2618 58.0836 54.498C58.0836 52.7341 59.5127 51.305 61.2765 51.305H105.982C111.271 51.303 115.561 55.5923 115.561 60.8818C115.561 66.1733 111.271 70.4607 105.982 70.4607H10.1874C8.42361 70.4607 6.99449 71.8898 6.99449 73.6536C6.99449 75.4174 8.42361 76.8465 10.1874 76.8465H80.4362C82.2 76.8465 83.6291 78.2757 83.6291 80.0395C83.6291 81.8053 82.2 83.2344 80.4362 83.2344ZM29.3451 108.78H16.5733C11.2818 108.78 6.99449 104.491 6.99449 99.2011C6.99449 93.9096 11.2838 89.6223 16.5733 89.6223H105.982C107.746 89.6223 109.175 88.1932 109.175 86.4294C109.175 84.6655 107.746 83.2364 105.982 83.2364H93.2099C91.4461 83.2364 90.017 81.8073 90.017 80.0435C90.017 78.2797 91.4461 76.8505 93.2099 76.8505H105.982C111.271 76.8485 115.561 81.1359 115.561 86.4274C115.561 91.7189 111.271 96.0062 105.982 96.0062H16.5733C14.8095 96.0062 13.3804 97.4353 13.3804 99.1991C13.3804 100.963 14.8095 102.392 16.5733 102.392H29.3451C31.1089 102.392 32.538 103.821 32.538 105.585C32.538 107.349 31.1089 108.78 29.3451 108.78ZM38.9239 105.587C38.9239 103.823 40.353 102.394 42.1169 102.394H86.8221C92.1136 102.394 96.4009 106.683 96.4009 111.973C96.4009 117.264 92.1116 121.552 86.8221 121.552H70.8553H67.9049H64.4675H29.3431C27.5793 121.552 26.1501 120.123 26.1501 118.359C26.1501 116.595 27.5793 115.166 29.3431 115.166H64.4695H67.9069H70.8573H86.8241C88.5879 115.166 90.017 113.737 90.017 111.973C90.017 110.209 88.5879 108.78 86.8241 108.78H42.1189C40.355 108.78 38.9239 107.349 38.9239 105.587ZM48.5048 57.6889H10.1874C4.89594 57.6889 0.608604 53.3996 0.608604 48.1101C0.608604 42.8186 4.89794 38.5312 10.1874 38.5312H35.731C37.4948 38.5312 38.9239 39.9603 38.9239 41.7242C38.9239 43.488 37.4948 44.9171 35.731 44.9171H10.1854C8.4216 44.9171 6.99249 46.3462 6.99249 48.1101C6.99249 49.8739 8.4216 51.303 10.1854 51.303H48.5048C50.2686 51.303 51.6977 52.7321 51.6977 54.4959C51.6977 56.2598 50.2686 57.6889 48.5048 57.6889ZM74.0503 32.1433H29.3451C24.0536 32.1433 19.7663 27.854 19.7663 22.5645C19.7663 17.273 24.0556 12.9857 29.3451 12.9857H74.0503C75.8141 12.9857 77.2432 11.5566 77.2432 9.79275C77.2432 8.02891 75.8141 6.5998 74.0503 6.5998H67.6644C65.9006 6.5998 64.4715 5.1707 64.4715 3.40686C64.4715 1.64303 65.9006 0.213918 67.6644 0.213918L74.0503 0.211914C79.3418 0.211914 83.6291 4.50124 83.6291 9.79074C83.6291 15.0822 79.3398 19.3696 74.0503 19.3696H29.3451C27.5813 19.3696 26.1521 20.7987 26.1521 22.5625C26.1521 24.3263 27.5813 25.7555 29.3451 25.7555H74.0503C75.8141 25.7555 77.2432 27.1846 77.2432 28.9484C77.2432 30.7142 75.8121 32.1433 74.0503 32.1433ZM35.731 102.394C37.4948 102.394 38.9239 103.823 38.9239 105.587C38.9239 107.351 37.4948 108.78 35.731 108.78C33.9671 108.78 32.538 107.351 32.538 105.587C32.538 103.823 33.9671 102.394 35.731 102.394ZM86.8221 76.8485C88.5859 76.8485 90.015 78.2777 90.015 80.0415C90.015 81.8053 88.5859 83.2344 86.8221 83.2344C85.0582 83.2344 83.6291 81.8053 83.6291 80.0415C83.6291 78.2777 85.0582 76.8485 86.8221 76.8485ZM54.8906 51.303C56.6545 51.303 58.0836 52.7321 58.0836 54.4959C58.0836 56.2598 56.6545 57.6889 54.8906 57.6889C53.1268 57.6889 51.6977 56.2598 51.6977 54.4959C51.6977 52.7321 53.1268 51.303 54.8906 51.303ZM42.1169 38.5292C43.8807 38.5292 45.3098 39.9583 45.3098 41.7222C45.3098 43.486 43.8807 44.9151 42.1169 44.9151C40.353 44.9151 38.9239 43.486 38.9239 41.7222C38.9239 39.9603 40.355 38.5292 42.1169 38.5292ZM80.4362 25.7575C82.2 25.7575 83.6291 27.1866 83.6291 28.9504C83.6291 30.7142 82.2 32.1433 80.4362 32.1433C78.6723 32.1433 77.2432 30.7142 77.2432 28.9504C77.2432 27.1866 78.6723 25.7575 80.4362 25.7575ZM61.2765 0.211914C63.0404 0.211914 64.4695 1.64102 64.4695 3.40486C64.4695 5.16869 63.0404 6.5978 61.2765 6.5978C59.5127 6.5978 58.0836 5.16869 58.0836 3.40486C58.0836 1.64102 59.5127 0.211914 61.2765 0.211914Z" fill="black"/>
</svg>
