<svg width="291" height="181" viewBox="0 0 291 181" fill="none" xmlns="http://www.w3.org/2000/svg">
<path d="M60.7402 15.7463V85.7457C60.7402 94.0294 67.4557 100.745 75.7394 100.745C84.0231 100.745 90.7386 94.0294 90.7386 85.7457V15.7463C90.7386 7.46255 84.0231 0.74707 75.7394 0.74707C67.4557 0.74707 60.7402 7.46255 60.7402 15.7463ZM75.7394 90.7455C72.9782 90.7455 70.7397 88.507 70.7397 85.7457V15.7463C70.7397 12.985 72.9782 10.7465 75.7394 10.7465C78.5007 10.7465 80.7392 12.985 80.7392 15.7463V85.7457C80.7392 88.507 78.5007 90.7455 75.7394 90.7455Z" fill="#A4DDD4"/>
<path d="M170.737 10.7465V75.7463C170.737 78.5075 172.976 80.746 175.737 80.746C178.498 80.746 180.737 78.5075 180.737 75.7463V50.7476H210.735V75.7463C210.735 78.5075 212.974 80.746 215.735 80.746C218.496 80.746 220.735 78.5075 220.735 75.7463V10.7465C220.735 5.22406 216.258 0.74707 210.735 0.74707H180.737C175.214 0.74707 170.737 5.22406 170.737 10.7465ZM210.735 40.7449H180.737V10.7465H210.735V40.7449Z" fill="#A4DDD4"/>
<path d="M0.740234 5.7468V95.7452C0.740234 98.5064 2.97873 100.745 5.73997 100.745C8.5012 100.745 10.7397 98.5064 10.7397 95.7452V60.7471H40.7381V95.7452C40.7381 98.5064 42.9766 100.745 45.7378 100.745C48.4991 100.745 50.7376 98.5064 50.7376 95.7452V5.7468C50.7376 2.98556 48.4991 0.74707 45.7378 0.74707C42.9766 0.74707 40.7381 2.98556 40.7381 5.7468V50.7444H10.7397V5.7468C10.7397 2.98556 8.5012 0.74707 5.73997 0.74707C2.97873 0.74707 0.740234 2.98556 0.740234 5.7468Z" fill="#A4DDD4"/>
<path d="M210.735 105.745V175.744C210.735 178.505 212.974 180.744 215.735 180.744C218.496 180.744 220.735 178.505 220.735 175.744V140.746H230.734V175.744C230.734 178.505 232.973 180.744 235.734 180.744C238.495 180.744 240.734 178.505 240.734 175.744V105.745C240.734 102.983 238.495 100.745 235.734 100.745C232.973 100.745 230.734 102.983 230.734 105.745V130.743H220.735V105.745C220.735 102.983 218.496 100.745 215.735 100.745C212.974 100.745 210.735 102.983 210.735 105.745Z" fill="#A4DDD4"/>
<path d="M100.738 105.745V170.744C100.738 176.267 105.215 180.744 110.738 180.744H120.737C126.26 180.744 130.737 176.267 130.737 170.744H140.736V175.744C140.736 178.505 142.975 180.744 145.736 180.744C148.497 180.744 150.736 178.505 150.736 175.744V105.745C150.736 102.983 148.497 100.745 145.736 100.745C142.975 100.745 140.736 102.983 140.736 105.745V160.745H130.737C125.214 160.745 120.737 165.222 120.737 170.744H110.738V105.745C110.738 102.983 108.499 100.745 105.738 100.745C102.977 100.745 100.738 102.983 100.738 105.745Z" fill="#A4DDD4"/>
<path d="M130.737 40.7449V15.7463C130.737 7.46255 124.021 0.74707 115.737 0.74707C107.454 0.74707 100.738 7.46255 100.738 15.7463V80.746C100.738 86.2685 105.215 90.7455 110.738 90.7455H150.736C156.258 90.7455 160.735 86.2685 160.735 80.746V50.7476C160.735 45.2251 156.258 40.7481 150.736 40.7481H130.737V40.7449ZM115.737 10.7465C118.499 10.7465 120.737 12.985 120.737 15.7463V40.7449H110.738V15.7463C110.738 12.985 112.976 10.7465 115.737 10.7465ZM150.739 80.746H110.738V50.7476H150.736V80.746H150.739Z" fill="#A4DDD4"/>
<path d="M275.735 150.745H260.736V105.889C260.736 103.198 258.667 100.88 255.977 100.754C253.106 100.62 250.736 102.906 250.736 105.748V170.747C250.736 176.27 255.213 180.747 260.736 180.747H275.735C284.019 180.747 290.734 174.031 290.734 165.748C290.734 157.461 284.019 150.745 275.735 150.745ZM280.735 165.745C280.735 168.506 278.496 170.744 275.735 170.744H260.736V160.745H275.735C278.496 160.745 280.735 162.983 280.735 165.745Z" fill="#A4DDD4"/>
<path d="M175.664 180.744H165.738C162.977 180.744 160.738 178.505 160.738 175.744C160.738 172.983 162.977 170.744 165.738 170.744H175.664H180.737C186.26 170.744 190.737 166.267 190.737 160.745V150.425C190.737 144.902 186.26 140.425 180.737 140.425H175.664H175.927C170.404 140.425 165.927 135.948 165.927 130.426V120.426C165.927 114.904 170.404 110.427 175.927 110.427L185.737 110.747C188.498 110.747 190.737 108.509 190.737 105.748C190.737 102.986 188.498 100.748 185.737 100.748H165.924C163.163 100.748 160.924 98.5095 160.924 95.7483C160.924 93.0063 163.134 90.7742 165.876 90.7485H165.927H175.664H185.737C194.021 90.7485 200.736 97.464 200.736 105.748C200.736 114.031 194.021 120.747 185.737 120.747L175.927 120.426L175.664 130.426H180.737C191.782 130.426 200.736 139.38 200.736 150.425V160.745C200.736 171.79 191.782 180.744 180.737 180.744H175.664Z" fill="#A4DDD4"/>
<path d="M85.7389 170.744H70.7397V150.745V140.746V120.747H85.7389C88.5001 120.747 90.7386 118.509 90.7386 115.747C90.7386 112.986 88.5001 110.748 85.7389 110.748H70.7397C65.2172 110.748 60.7402 115.225 60.7402 120.747V140.746H50.7408V125.747C50.7408 122.986 48.5023 120.747 45.741 120.747C42.9798 120.747 40.7413 122.986 40.7413 125.747V140.746H30.7386V120.747C30.7386 115.225 26.2616 110.748 20.7392 110.748H5.73997C2.97873 110.744 0.740234 112.983 0.740234 115.744C0.740234 118.505 2.97873 120.744 5.73997 120.744H20.7392V140.743V150.742V170.741H5.73997C2.97873 170.744 0.740234 172.983 0.740234 175.744C0.740234 178.505 2.97873 180.744 5.73997 180.744H20.7392C26.2616 180.744 30.7386 176.267 30.7386 170.744V150.745H40.7381V165.745C40.7381 168.506 42.9766 170.744 45.7378 170.744C48.4991 170.744 50.7376 168.506 50.7376 165.745V150.745H60.737V170.744C60.737 176.267 65.214 180.744 70.7365 180.744H85.7357C88.4969 180.744 90.7354 178.505 90.7354 175.744C90.7354 172.983 88.5001 170.744 85.7389 170.744Z" fill="#A4DDD4"/>
<path d="M230.737 15.7463C230.737 24.03 237.453 30.7455 245.737 30.7455H280.735V40.7449H240.737C235.214 40.7449 230.737 45.2219 230.737 50.7444V85.7425C230.737 88.5037 232.976 90.7422 235.737 90.7422C238.498 90.7422 240.737 88.5037 240.737 85.7425V50.7476H280.735V95.7452C280.735 98.5064 282.973 100.745 285.734 100.745C288.496 100.745 290.734 98.5064 290.734 95.7452V10.7465C290.734 5.22406 286.257 0.74707 280.735 0.74707H245.737C237.453 0.74707 230.737 7.46255 230.737 15.7463ZM280.735 20.746H245.737C242.975 20.746 240.737 18.5075 240.737 15.7463C240.737 12.985 242.975 10.7465 245.737 10.7465H280.735V20.746Z" fill="#A4DDD4"/>
</svg>
