<svg width="291" height="1222" viewBox="0 0 291 1222" fill="none" xmlns="http://www.w3.org/2000/svg">
<path d="M117.852 842.069H261.126L261.133 798.444C261.134 790.413 267.645 783.904 275.676 783.904C283.708 783.904 290.219 790.416 290.218 798.448L290.213 841.156C290.211 857.723 276.78 871.152 260.213 871.152H131.935C123.65 871.152 116.935 877.868 116.935 886.152V974.05C116.935 982.081 123.445 988.591 131.476 988.591C139.507 988.591 146.017 982.081 146.017 974.05V930.235C146.017 913.666 159.449 900.235 176.017 900.235H187.466C195.747 900.235 202.461 906.948 202.461 915.229C202.461 923.416 195.894 930.089 187.709 930.221L175.1 930.426V974.05C175.1 998.143 155.569 1017.67 131.476 1017.67C107.383 1017.67 87.8519 998.143 87.8519 974.05V872.069C87.8519 855.501 101.283 842.069 117.852 842.069Z" fill="#A4DDD4"/>
<path d="M261.126 1046.76V929.318L246.457 929.538C238.279 929.66 231.585 923.065 231.585 914.887C231.585 906.795 238.145 900.235 246.237 900.235H260.209C276.777 900.235 290.209 913.666 290.209 930.235V1045.84C290.209 1062.41 276.777 1075.84 260.209 1075.84H175.1V1134.01H260.223C276.786 1134.01 290.215 1147.43 290.223 1163.99L290.243 1206.71C290.247 1214.74 283.737 1221.25 275.705 1221.25C267.676 1221.25 261.167 1214.74 261.167 1206.72V1163.09H176.017C159.449 1163.09 146.017 1149.66 146.017 1133.09V1076.76C146.017 1060.19 159.449 1046.76 176.018 1046.76H261.126Z" fill="#A4DDD4"/>
<path d="M30.6035 754.821H58.7691V594.866C58.7691 586.835 65.2795 580.324 73.3105 580.324C81.3415 580.324 87.8519 586.835 87.8519 594.866V753.904C87.8519 770.472 74.4204 783.904 57.8519 783.904H29.6863V799.959C29.6863 807.99 23.1759 814.5 15.1449 814.5C7.11392 814.5 0.603516 807.99 0.603516 799.959V784.821C0.603516 768.252 14.035 754.821 30.6035 754.821Z" fill="#A4DDD4"/>
<path d="M204.183 580.324H261.167L261.142 740.277C261.141 748.309 267.652 754.821 275.684 754.821C283.714 754.821 290.225 748.311 290.226 740.281L290.246 582.353C290.248 565.783 276.816 552.349 260.246 552.349H205.059C188.49 552.349 175.059 565.781 175.059 582.349V783.904H146.017V683.222C146.017 675.191 139.507 668.681 131.476 668.681C123.445 668.681 116.935 675.191 116.935 683.222V784.5C116.935 801.069 130.366 814.5 146.935 814.5H174.183C190.752 814.5 204.183 801.069 204.183 784.5V580.324Z" fill="#A4DDD4"/>
<path d="M261.209 494.184H146.935C130.366 494.184 116.935 507.615 116.935 524.184V625.057C116.935 633.088 123.445 639.598 131.476 639.598C139.507 639.598 146.017 633.088 146.017 625.057V523.267H260.173C276.771 523.267 290.215 509.788 290.172 493.189L290.062 450.493C290.041 442.493 283.55 436.018 275.55 436.018C267.514 436.018 261.007 442.55 261.039 450.587L261.209 494.184Z" fill="#A4DDD4"/>
<path d="M87.8519 468.378V537.808C87.8519 545.839 81.3415 552.349 73.3105 552.349C65.2795 552.349 58.7691 545.839 58.7691 537.808V469.295C58.7691 452.727 72.2006 439.295 88.7691 439.295H175.1V290.604H117.852C101.283 290.604 87.8519 277.173 87.8519 260.604V246.98C87.8519 238.949 94.3623 232.439 102.393 232.439C110.424 232.439 116.935 238.949 116.935 246.98V261.522H174.183C190.752 261.522 204.183 274.953 204.183 291.522V438.378C204.183 454.947 190.752 468.378 174.183 468.378H87.8519Z" fill="#A4DDD4"/>
<path d="M175.1 116.108V44.2238C175.1 20.1308 155.569 0.599609 131.476 0.599609C107.383 0.599609 87.8519 20.1308 87.8519 44.2238V188.815C87.8519 196.846 94.3623 203.356 102.393 203.356C110.424 203.356 116.935 196.846 116.935 188.815V44.2238C116.935 36.1928 123.445 29.6824 131.476 29.6824C139.507 29.6824 146.017 36.1928 146.017 44.2238V115.19C146.017 131.759 159.449 145.19 176.017 145.19H233.266L232.776 320.827C232.733 336.247 245.222 348.77 260.641 348.77L260.812 392.442C260.843 400.456 267.348 406.936 275.362 406.936C283.412 406.936 289.933 400.398 289.912 392.348L289.772 338.272C289.746 328 281.411 319.687 271.139 319.687C265.994 319.687 261.823 315.516 261.823 310.371V146.108C261.823 129.539 248.391 116.108 231.823 116.108H175.1Z" fill="#A4DDD4"/>
</svg>
