<svg width="388" height="1393" viewBox="0 0 388 1393" fill="none" xmlns="http://www.w3.org/2000/svg">
<path d="M148.894 854.213H266.992L266.999 809.97C267 801.826 273.603 795.224 281.747 795.224C289.893 795.224 296.497 801.829 296.496 809.975L296.49 853.711C296.488 870.278 283.057 883.707 266.49 883.707H163.388C155.104 883.707 148.388 890.422 148.388 898.707V988.06C148.388 996.204 154.991 1002.81 163.135 1002.81C171.28 1002.81 177.882 996.204 177.882 988.06V943.201C177.882 926.632 191.314 913.201 207.882 913.201H221.871C230.155 913.201 236.871 919.917 236.871 928.201V928.596C236.871 936.791 230.293 943.469 222.099 943.594L207.377 943.819V988.06C207.377 1012.49 187.569 1032.3 163.135 1032.3C138.702 1032.3 118.894 1012.49 118.894 988.06V884.213C118.894 867.644 132.326 854.213 148.894 854.213Z" fill="#A4DDD4"/>
<path d="M295.901 1061.8V942.695L281.491 942.914C273.197 943.041 266.407 936.353 266.407 928.058C266.407 919.853 273.059 913.201 281.264 913.201H295.395C311.963 913.201 325.395 926.632 325.395 943.201V1061.29C325.395 1077.86 311.963 1091.29 295.395 1091.29H108.342V1150.28H266.486C283.055 1150.28 296.486 1163.71 296.486 1180.28V1242.23C296.486 1258.8 283.055 1272.23 266.486 1272.23H177.882V1332.23H236.407C252.975 1332.23 266.407 1345.66 266.407 1362.23V1377.46C266.407 1385.62 259.795 1392.23 251.639 1392.23C243.483 1392.23 236.871 1385.62 236.871 1377.46V1362.23H178.388C161.82 1362.23 148.388 1348.8 148.388 1332.23V1272.23C148.388 1255.66 161.82 1242.23 178.388 1242.23H267.034V1179.77H108.848C92.2792 1179.77 78.8477 1166.34 78.8477 1149.77V1091.8C78.8477 1075.23 92.2792 1061.8 108.848 1061.8H295.901Z" fill="#A4DDD4"/>
<path d="M30.918 913.201H59.9061V603.513C59.9061 595.368 66.5086 588.766 74.6532 588.766C82.7977 588.766 89.4002 595.368 89.4002 603.513V912.695C89.4002 929.263 75.9688 942.695 59.4002 942.695H30.4121V958.977C30.4121 967.121 23.8096 973.724 15.665 973.724C7.52045 973.724 0.917969 967.121 0.917969 958.977V943.201C0.917969 926.632 14.3494 913.201 30.918 913.201Z" fill="#A4DDD4"/>
<path d="M236.913 588.766H267.034L267.008 750.98C267.007 759.126 273.61 765.73 281.756 765.73C289.9 765.73 296.502 759.129 296.503 750.985L296.524 590.399C296.526 573.829 283.094 560.396 266.524 560.396H237.377C220.808 560.396 207.377 573.827 207.377 590.396V795.224H177.882V530.901H357.632C374.231 530.901 387.675 517.423 387.632 500.824L387.519 457.098C387.498 448.985 380.915 442.419 372.802 442.419C364.652 442.419 358.053 449.043 358.085 457.194L358.258 501.407H178.388C161.82 501.407 148.388 514.839 148.388 531.407V796.254C148.388 812.822 161.82 826.253 178.388 826.253H206.913C223.481 826.253 236.913 812.822 236.913 796.253V588.766Z" fill="#A4DDD4"/>
<path d="M265.831 206.467L310.338 206.467C334.876 206.467 354.727 226.437 354.579 250.974C354.432 275.304 334.668 294.949 310.338 294.949H280.578C272.434 294.949 265.831 301.551 265.831 309.696C265.831 317.84 272.434 324.443 280.578 324.443H357.254C373.792 324.443 387.211 337.827 387.254 354.365L387.367 398.131C387.388 406.295 380.775 412.925 372.611 412.925C364.484 412.925 357.887 406.354 357.855 398.227L357.682 353.937H280.536C256.103 353.937 236.295 334.13 236.295 309.696C236.295 285.262 256.103 265.455 280.536 265.455H310.357C318.39 265.455 324.945 259.026 325.102 250.995C325.263 242.74 318.615 235.961 310.357 235.961H266.871C250.302 235.961 236.871 222.529 236.871 205.961V147.478H178.388C161.82 147.478 148.388 134.047 148.388 117.478V45.0839C148.388 36.9393 141.786 30.3369 133.641 30.3369C125.497 30.3369 118.894 36.9393 118.894 45.0839V191.719C118.894 199.864 112.292 206.467 104.147 206.467C96.0027 206.467 89.4002 199.864 89.4002 191.719V45.0839C89.4002 20.6502 109.208 0.842773 133.641 0.842773C158.075 0.842773 177.882 20.6502 177.882 45.0839V117.984H235.831C252.4 117.984 265.831 131.416 265.831 147.984V206.467Z" fill="#A4DDD4"/>
<path d="M89.4002 474.443V545.648C89.4002 553.793 82.7977 560.396 74.6532 560.396C66.5086 560.396 59.9061 553.793 59.9061 545.648V474.949C59.9061 458.38 73.3376 444.949 89.9061 444.949H177.882V294.949H119.4C102.832 294.949 89.4002 281.517 89.4002 264.949V250.708C89.4002 242.563 96.0027 235.961 104.147 235.961C112.292 235.961 118.894 242.563 118.894 250.708V265.455H177.377C193.945 265.455 207.377 278.886 207.377 295.455V444.443C207.377 461.011 193.945 474.443 177.377 474.443H89.4002Z" fill="#A4DDD4"/>
</svg>
