<svg width="328" height="1248" viewBox="0 0 328 1248" fill="none" xmlns="http://www.w3.org/2000/svg">
<path d="M119.668 860.421H298.005L298.012 815.851C298.013 807.646 304.665 800.995 312.869 800.995C321.076 800.995 327.728 807.649 327.727 815.855L327.721 860.137C327.719 876.704 314.288 890.133 297.721 890.133H134.381C126.097 890.133 119.381 896.849 119.381 905.133V995.26C119.381 1003.46 126.032 1010.12 134.237 1010.12C142.442 1010.12 149.094 1003.46 149.094 995.26V949.846C149.094 933.278 162.525 919.846 179.094 919.846H223.232C231.516 919.846 238.232 926.562 238.232 934.846V935.352C238.232 943.592 231.585 950.289 223.346 950.352L178.806 950.691V995.26C178.806 1019.87 158.852 1039.83 134.237 1039.83C109.623 1039.83 89.6683 1019.87 89.6683 995.26V890.421C89.6683 873.852 103.1 860.421 119.668 860.421Z" fill="#F28EC0"/>
<path d="M298.02 1069.54V949.559L283.181 949.782C274.827 949.908 267.987 943.171 267.987 934.815C267.987 926.548 274.688 919.846 282.956 919.846H297.733C314.301 919.846 327.733 933.278 327.733 949.846V1069.25C327.733 1085.82 314.301 1099.25 297.733 1099.25H178.806V1158.68H297.732C314.295 1158.68 327.724 1172.1 327.732 1188.67L327.753 1232.96C327.757 1241.16 321.106 1247.82 312.9 1247.82C304.697 1247.82 298.047 1241.17 298.047 1232.96V1188.39H179.094C162.525 1188.39 149.094 1174.96 149.094 1158.39V1099.54C149.094 1082.97 162.525 1069.54 179.094 1069.54H298.02Z" fill="#F28EC0"/>
<path d="M30.5303 771.283H59.9556V607.863C59.9556 599.658 66.607 593.007 74.812 593.007C83.0169 593.007 89.6683 599.658 89.6683 607.863V770.995C89.6683 787.564 76.2368 800.995 59.6683 800.995H30.2429V817.398C30.2429 825.603 23.5915 832.255 15.3866 832.255C7.18168 832.255 0.530273 825.603 0.530273 817.398V801.283C0.530273 784.714 13.9618 771.283 30.5303 771.283Z" fill="#F28EC0"/>
<path d="M238.232 593.007H298.047L298.021 756.424C298.02 764.63 304.672 771.283 312.878 771.283C321.082 771.283 327.734 764.632 327.735 756.428L327.756 594.43C327.758 577.86 314.326 564.426 297.756 564.426H238.477C221.908 564.426 208.477 577.858 208.477 594.426V800.995H178.806V698.133C178.806 689.928 172.155 683.277 163.95 683.277C155.745 683.277 149.094 689.928 149.094 698.133V802.255C149.094 818.823 162.525 832.255 179.094 832.255H208.232C224.8 832.255 238.232 818.823 238.232 802.255V593.007Z" fill="#F28EC0"/>
<path d="M298.047 505.001H179.094C162.525 505.001 149.094 518.432 149.094 535.001V638.708C149.094 646.913 155.745 653.564 163.95 653.564C172.155 653.564 178.806 646.913 178.806 638.708V534.714H297.64C314.239 534.714 327.683 521.235 327.64 504.636L327.525 460.363C327.504 452.19 320.873 445.576 312.699 445.576C304.488 445.576 297.841 452.249 297.873 460.46L298.047 505.001Z" fill="#F28EC0"/>
<path d="M267.407 207.874H282.879C307.599 207.874 327.596 227.993 327.447 252.712C327.299 277.221 307.389 297.012 282.879 297.012H282.263C274.058 297.012 267.407 303.664 267.407 311.869C267.407 320.074 274.058 326.725 282.263 326.725H297.257C313.796 326.725 327.215 340.109 327.257 356.647L327.372 400.959C327.393 409.184 320.732 415.863 312.507 415.863C304.319 415.863 297.673 409.243 297.641 401.056L297.467 356.438H282.221C257.606 356.438 237.652 336.483 237.652 311.869C237.652 287.254 257.606 267.3 282.221 267.3H282.898C290.99 267.3 297.594 260.823 297.752 252.733C297.914 244.416 291.216 237.587 282.898 237.587H268.232C251.663 237.587 238.232 224.155 238.232 207.587V148.449H179.094C162.525 148.449 149.094 135.017 149.094 118.449V45.2956C149.094 37.0906 142.442 30.4392 134.237 30.4392C126.032 30.4392 119.381 37.0906 119.381 45.2956V193.018C119.381 201.223 112.73 207.874 104.525 207.874C96.3197 207.874 89.6683 201.223 89.6683 193.018V45.2956C89.6683 20.6808 109.623 0.726562 134.237 0.726562C158.852 0.726562 178.806 20.6808 178.806 45.2956V118.736H237.407C253.975 118.736 267.407 132.168 267.407 148.736V207.874Z" fill="#F28EC0"/>
<path d="M89.6683 478.421V549.57C89.6683 557.775 83.0169 564.426 74.812 564.426C66.607 564.426 59.9556 557.775 59.9556 549.57V478.709C59.9556 462.14 73.3871 448.709 89.9556 448.709H178.806V297.012H119.668C103.1 297.012 89.6683 283.581 89.6683 267.012V252.443C89.6683 244.238 96.3197 237.587 104.525 237.587C112.73 237.587 119.381 244.238 119.381 252.443V267.3H178.519C195.088 267.3 208.519 280.731 208.519 297.3V448.421C208.519 464.99 195.087 478.421 178.519 478.421H89.6683Z" fill="#F28EC0"/>
</svg>
