<svg width="361" height="1260" viewBox="0 0 361 1260" fill="none" xmlns="http://www.w3.org/2000/svg">
<path d="M120.734 868.857H330.734L330.741 823.855C330.743 815.572 337.459 808.857 345.743 808.857C354.028 808.857 360.745 815.574 360.744 823.859L360.738 868.861C360.736 885.428 347.305 898.857 330.738 898.857H135.734C127.45 898.857 120.734 905.573 120.734 913.857V1005C120.734 1013.28 127.45 1020 135.734 1020C144.019 1020 150.734 1013.28 150.734 1005V958.857C150.734 942.289 164.166 928.857 180.734 928.857H225.734C234.019 928.857 240.734 935.573 240.734 943.857V944.657C240.734 952.897 234.088 959.594 225.849 959.657L180.734 960V1005C180.734 1029.85 160.587 1050 135.734 1050C110.882 1050 90.7344 1029.85 90.7344 1005V898.857C90.7344 882.289 104.166 868.857 120.734 868.857Z" fill="#A4DDD4"/>
<path d="M330.777 1080V958.857L285.891 959.199C277.563 959.263 270.777 952.529 270.777 944.2V943.857C270.777 935.573 277.493 928.857 285.777 928.857H330.777C347.346 928.857 360.777 942.289 360.777 958.857V1080C360.777 1096.57 347.346 1110 330.777 1110H180.734V1170H330.749C347.312 1170 360.741 1183.42 360.749 1199.99L360.77 1245C360.774 1253.28 354.059 1260 345.773 1260C337.491 1260 330.777 1253.29 330.777 1245V1200H180.734C164.166 1200 150.734 1186.57 150.734 1170V1110C150.734 1093.43 164.166 1080 180.734 1080H330.777Z" fill="#A4DDD4"/>
<path d="M30.7344 778.857H60.7344V613.857C60.7344 605.573 67.4501 598.857 75.7344 598.857C84.0186 598.857 90.7344 605.573 90.7344 613.857V778.857C90.7344 795.426 77.3029 808.857 60.7344 808.857H30.7344V825.419C30.7344 833.703 24.0186 840.419 15.7344 840.419C7.4501 840.419 0.734375 833.703 0.734375 825.419V808.857C0.734375 792.289 14.1658 778.857 30.7344 778.857Z" fill="#A4DDD4"/>
<path d="M270.777 598.857H330.777L330.751 763.855C330.75 772.14 337.466 778.857 345.751 778.857C354.035 778.857 360.751 772.143 360.752 763.859L360.773 600.004C360.775 583.434 347.343 570 330.773 570H270.734C254.166 570 240.734 583.432 240.734 600V808.857H180.734V705C180.734 696.716 174.019 690 165.734 690C157.45 690 150.734 696.716 150.734 705V810.419C150.734 826.987 164.166 840.419 180.734 840.419H240.777C257.346 840.419 270.777 826.987 270.777 810.419V598.857Z" fill="#A4DDD4"/>
<path d="M330.777 510H180.734C164.166 510 150.734 523.432 150.734 540V645C150.734 653.285 157.45 660 165.734 660C174.019 660 180.734 653.285 180.734 645V540H330.657C347.256 540 360.7 526.522 360.657 509.923L360.54 464.931C360.519 456.679 353.823 450 345.571 450C337.281 450 330.569 456.738 330.602 465.028L330.777 510Z" fill="#A4DDD4"/>
<path d="M270.192 210.001L315.462 210.001C340.421 210 360.612 230.313 360.461 255.272C360.312 280.018 340.209 300 315.462 300H285.192C276.908 300 270.192 306.716 270.192 315C270.192 323.285 276.908 330 285.192 330H330.269C346.808 330 360.226 343.385 360.269 359.923L360.386 404.962C360.407 413.261 353.676 420 345.377 420C337.115 420 330.4 413.32 330.368 405.059L330.192 360H285.149C260.296 360 240.149 339.853 240.149 315C240.149 290.148 260.296 270 285.149 270H315.482C323.652 270 330.319 263.462 330.479 255.293C330.643 246.896 323.88 240 315.482 240H270.734C254.166 240 240.734 226.569 240.734 210V150H180.734C164.166 150 150.734 136.569 150.734 120V45.8496C150.734 37.5653 144.019 30.8496 135.734 30.8496C127.45 30.8496 120.734 37.5653 120.734 45.8496V195C120.734 203.285 114.019 210 105.734 210C97.4501 210 90.7344 203.285 90.7344 195V45.8496C90.7344 20.9968 110.882 0.849609 135.734 0.849609C160.587 0.849609 180.734 20.9968 180.734 45.8496V120H240.192C256.76 120 270.192 133.432 270.192 150.001V210.001Z" fill="#A4DDD4"/>
<path d="M90.7344 482V555C90.7344 563.285 84.0186 570 75.7344 570C67.4501 570 60.7344 563.285 60.7344 555V482C60.7344 465.432 74.1658 452 90.7344 452H180.734V300H120.734C104.166 300 90.7344 286.569 90.7344 270V255C90.7344 246.716 97.4501 240 105.734 240C114.019 240 120.734 246.716 120.734 255V270H180.734C197.303 270 210.734 283.432 210.734 300V452C210.734 468.569 197.303 482 180.734 482H90.7344Z" fill="#A4DDD4"/>
</svg>
