<svg width="178" height="1091" viewBox="0 0 178 1091" fill="none" xmlns="http://www.w3.org/2000/svg">
<path d="M89.3115 44.343V265.98H30.6568C14.0883 265.98 0.656828 279.411 0.656828 295.98V383.737C0.656828 400.306 14.0883 413.737 30.6568 413.737H89.3115V472.841H44.9841C20.5028 472.841 0.656828 492.687 0.656828 517.168C0.656828 541.649 20.5029 561.495 44.9842 561.495H59.7599V830.516H30.6568C14.0883 830.516 0.656823 843.948 0.656818 860.516L0.656743 1075.57C0.656741 1083.75 7.29041 1090.38 15.4734 1090.38C23.6565 1090.38 30.2901 1083.75 30.2901 1075.57L30.2902 857.475H59.3115C75.88 857.475 89.3115 844.044 89.3115 827.476V561.944C89.3115 545.375 75.88 531.944 59.3115 531.944H45.066C36.9056 531.944 30.2902 525.328 30.2902 517.168C30.2902 509.007 36.9056 502.392 45.066 502.392H88.863C105.432 502.392 118.863 488.961 118.863 472.392V414.186C118.863 397.617 105.432 384.186 88.863 384.186H30.2902V295.531H88.863C105.432 295.531 118.863 282.1 118.863 265.531V44.3429C118.863 36.1825 125.478 29.5672 133.639 29.5672C141.799 29.5672 148.415 36.1825 148.415 44.3429V339.858C148.415 348.019 155.03 354.634 163.19 354.634C171.351 354.634 177.966 348.019 177.966 339.859V44.343C177.966 19.8617 158.12 0.015625 133.639 0.015625C109.158 0.015625 89.3115 19.8617 89.3115 44.343Z" fill="#A4DDD4"/>
<path d="M118.863 650.15V561.495C118.863 545.174 132.094 531.944 148.415 531.944V398.962C148.415 390.801 155.03 384.186 163.19 384.186C171.351 384.186 177.966 390.801 177.966 398.962V531.944C177.966 548.265 164.735 561.495 148.415 561.495V650.15C164.735 650.15 177.966 663.381 177.966 679.701V815.74C177.966 823.901 171.351 830.516 163.19 830.516C155.03 830.516 148.415 823.901 148.415 815.74V679.701C132.094 679.701 118.863 666.471 118.863 650.15Z" fill="#A4DDD4"/>
<path d="M148.415 939.726V872.251C148.415 864.091 155.03 857.475 163.19 857.475C171.351 857.475 177.966 864.091 177.966 872.251V940.651C177.966 957.219 164.535 970.651 147.966 970.651H104.311C96.0272 970.651 89.3115 977.366 89.3115 985.651V986.575C89.3115 994.859 96.0272 1001.58 104.312 1001.58H144.937C161.506 1001.58 174.937 1015.01 174.937 1031.58V1077.12C174.937 1084.45 169 1090.38 161.676 1090.38C154.352 1090.38 148.415 1084.45 148.415 1077.12V1030.12H104.76C79.9071 1030.12 59.7599 1009.78 59.7599 984.924C59.7599 960.071 79.9072 939.726 104.76 939.726H148.415Z" fill="#A4DDD4"/>
</svg>
