<svg width="342" height="821" viewBox="0 0 342 821" fill="none" xmlns="http://www.w3.org/2000/svg">
<path d="M311.684 206.887V44.9219C311.684 36.7773 318.287 30.1749 326.431 30.1749C334.576 30.1749 341.178 36.7773 341.178 44.9219V206.381C341.178 222.95 327.747 236.381 311.178 236.381H177.66C161.091 236.381 147.66 222.95 147.66 206.381V44.7656C147.66 36.4813 140.818 29.7656 132.534 29.7656C124.249 29.7656 117.408 36.4813 117.408 44.7656V103.847C117.408 111.991 110.805 118.594 102.661 118.594C94.5161 118.594 87.9136 111.991 87.9136 103.847V44.8915C87.9136 20.2485 107.891 0.271484 132.534 0.271484C157.177 0.271484 177.154 20.2486 177.154 44.8915V206.887H311.684Z" fill="#F28EC0"/>
<path d="M117.989 443.353L117.437 162.821C117.421 154.679 110.816 148.088 102.675 148.088C94.5226 148.088 87.9136 154.697 87.9136 162.85V443.029H30.0718C13.5032 443.029 0.0717773 456.46 0.0717773 473.029V533.962C0.0717773 550.53 13.5032 563.962 30.0718 563.962H134.265C141.663 563.962 147.66 569.959 147.66 577.356C147.66 584.753 141.663 590.75 134.265 590.75H117.914C101.345 590.75 87.9136 604.182 87.9136 620.75V670.23C87.9136 686.799 101.345 700.23 117.914 700.23H147.66V760.23H117.914C101.345 760.23 87.9136 773.662 87.9136 790.23V805.23C87.9136 813.515 94.6966 820.23 102.981 820.23C111.265 820.23 118.048 813.515 118.048 805.23V790.23H147.154C163.722 790.23 177.154 776.799 177.154 760.23V700.23C177.154 683.662 163.722 670.23 147.154 670.23H118.048V620.244H134.265C157.952 620.244 177.154 601.043 177.154 577.356C177.154 553.669 157.952 534.468 134.265 534.468H29.5659V473.412H87.989C104.581 473.412 118.022 459.945 117.989 443.353Z" fill="#F28EC0"/>
</svg>
