<svg width="348" height="692" viewBox="0 0 348 692" fill="none" xmlns="http://www.w3.org/2000/svg">
<path d="M317.692 210.373V45.6292C317.692 37.3449 324.408 30.6292 332.692 30.6292C340.976 30.6292 347.692 37.3449 347.692 45.6292V210.373C347.692 226.941 334.261 240.373 317.692 240.373H180.854C164.285 240.373 150.854 226.941 150.854 210.373V45.2129C150.854 36.9286 144.138 30.2129 135.854 30.2129H135.083C126.799 30.2129 120.083 36.9286 120.083 45.2129V105.565C120.083 113.849 113.367 120.565 105.083 120.565C96.7987 120.565 90.083 113.849 90.083 105.565V45.2129C90.083 20.3601 110.616 0.212891 135.468 0.212891C160.321 0.212891 180.854 20.3601 180.854 45.2129V210.373H317.692Z" fill="#A4DDD4"/>
<path d="M120.675 451.41L120.112 165.535C120.096 157.263 113.37 150.565 105.098 150.565C96.8135 150.565 90.083 157.281 90.083 165.565V450.565H30.7344C14.1658 450.565 0.734375 463.996 0.734375 480.565V544C0.734375 560.568 14.1659 574 30.7344 574H137.443C144.85 574 150.854 580.004 150.854 587.41C150.854 594.816 144.85 600.82 137.443 600.82H120.083C103.514 600.82 90.083 614.252 90.083 630.82V676.668C90.083 684.952 96.879 691.668 105.163 691.668C113.385 691.668 120.154 685.05 120.242 676.829L120.734 630.82H137.443C161.418 630.82 180.854 611.385 180.854 587.41C180.854 563.435 161.418 544 137.443 544H30.7344V481.47H90.6753C107.267 481.47 120.708 468.002 120.675 451.41Z" fill="#A4DDD4"/>
</svg>
