<svg width="348" height="692" viewBox="0 0 348 692" fill="none" xmlns="http://www.w3.org/2000/svg">
<path d="M317.692 210.373V45.6297C317.692 37.3454 324.408 30.6297 332.692 30.6297C340.976 30.6297 347.692 37.3454 347.692 45.6297V210.373C347.692 226.942 334.261 240.373 317.692 240.373H180.854C164.285 240.373 150.854 226.942 150.854 210.373V45.2134C150.854 36.9291 144.138 30.2134 135.854 30.2134H135.083C126.799 30.2134 120.083 36.9291 120.083 45.2134V105.565C120.083 113.85 113.367 120.565 105.083 120.565C96.7987 120.565 90.083 113.85 90.083 105.565V45.2134C90.083 20.3606 110.616 0.213379 135.468 0.213379C160.321 0.213379 180.854 20.3606 180.854 45.2134V210.373H317.692Z" fill="#F28EC0"/>
<path d="M120.675 451.411L120.112 165.536C120.096 157.263 113.37 150.565 105.098 150.565C96.8135 150.565 90.083 157.281 90.083 165.565V450.565H30.7344C14.1658 450.565 0.734375 463.997 0.734375 480.565V544C0.734375 560.569 14.1659 574 30.7344 574H137.443C144.85 574 150.854 580.004 150.854 587.41C150.854 594.817 144.85 600.821 137.443 600.821H120.083C103.514 600.821 90.083 614.252 90.083 630.821V676.669C90.083 684.953 96.879 691.669 105.163 691.669C113.385 691.669 120.154 685.05 120.242 676.829L120.734 630.821H137.443C161.418 630.821 180.854 611.385 180.854 587.41C180.854 563.435 161.418 544 137.443 544H30.7344V481.47H90.6753C107.267 481.47 120.708 468.003 120.675 451.411Z" fill="#F28EC0"/>
</svg>
