<svg width="249" height="782" viewBox="0 0 249 782" fill="none" xmlns="http://www.w3.org/2000/svg">
<path d="M218.848 361.524L218.848 15.8867C218.848 7.60245 225.563 0.886719 233.848 0.886719C242.132 0.886719 248.848 7.60243 248.848 15.8867L248.848 361.524C248.848 378.092 235.416 391.524 218.848 391.524L189.083 391.524C180.799 391.524 174.083 384.808 174.083 376.524C174.083 368.24 180.799 361.524 189.083 361.524L218.848 361.524Z" fill="#F28EC0"/>
<path d="M30.2558 361.524H129.583C137.867 361.524 144.583 368.24 144.583 376.524C144.583 384.808 137.867 391.524 129.583 391.524H30.2558V452.789H57.2234C73.792 452.789 87.2234 466.221 87.2234 482.789V602H99.5829C124.436 602 144.583 622.147 144.583 647C144.583 671.853 124.436 692 99.5829 692H87.2234V767C87.2234 775.284 80.5077 782 72.2234 782H70.083C61.7987 782 55.083 775.284 55.083 767V692C55.083 675.431 68.5144 662 85.0829 662H99.7344C108.019 662 114.734 655.284 114.734 647C114.734 638.716 108.019 632 99.7344 632H85.083C68.5144 632 55.083 618.569 55.083 602V482.646H30.2559C13.6873 482.646 0.255859 469.214 0.255859 452.646V391.524C0.255859 374.955 13.6873 361.524 30.2558 361.524Z" fill="#F28EC0"/>
</svg>
