<svg width="246" height="907" viewBox="0 0 246 907" fill="none" xmlns="http://www.w3.org/2000/svg">
<path d="M215.876 355.021L215.876 15.2129C215.876 7.06829 222.478 0.46582 230.623 0.46582C238.767 0.46582 245.37 7.06828 245.37 15.2128L245.37 354.515C245.37 371.084 231.938 384.515 215.37 384.515L186.613 384.515C178.468 384.515 171.866 377.913 171.866 369.768C171.866 361.624 178.468 355.021 186.613 355.021L215.876 355.021Z" fill="#F28EC0"/>
<path d="M30.9702 355.021H128.116C136.261 355.021 142.863 361.624 142.863 369.768C142.863 377.913 136.261 384.515 128.116 384.515H30.4643V444.748H56.4712C73.0397 444.748 86.4712 458.179 86.4712 474.748V591.442H98.6222C123.056 591.442 142.863 611.249 142.863 635.683C142.863 660.117 123.056 679.924 98.6222 679.924H86.4712V891.864C86.4712 900.148 79.7554 906.864 71.4712 906.864H69.8727C61.5884 906.864 54.8727 900.148 54.8727 891.864V680.43C54.8727 663.862 68.3042 650.43 84.8727 650.43H98.7712C106.916 650.43 113.518 643.828 113.518 635.683C113.518 627.539 106.916 620.936 98.7711 620.936H84.8727C68.3042 620.936 54.8727 607.505 54.8727 590.936V474.101H30.9702C14.4017 474.101 0.970215 460.669 0.970215 444.101V385.021C0.970215 368.453 14.4017 355.021 30.9702 355.021Z" fill="#F28EC0"/>
</svg>
