<svg width="136" height="662" viewBox="0 0 136 662" fill="none" xmlns="http://www.w3.org/2000/svg">
<path d="M105.885 330.798V15.373C105.885 7.08878 112.6 0.373047 120.885 0.373047C129.169 0.373047 135.885 7.08877 135.885 15.373V330.797C135.885 347.366 122.453 360.798 105.885 360.797L30.3789 360.797V405.829C30.3789 414.113 23.6632 420.829 15.3789 420.829C7.09464 420.829 0.378906 414.113 0.378906 405.829V360.797C0.378906 344.229 13.8103 330.797 30.3789 330.797L105.885 330.798Z" fill="#F28EC0"/>
<path d="M30.4042 646.694L30.709 466.572C30.723 458.278 24.0032 451.547 15.709 451.547C7.43465 451.547 0.72304 458.247 0.709042 466.522L0.404325 646.643C0.390294 654.937 7.11011 661.669 15.4043 661.669C23.6786 661.669 30.3902 654.968 30.4042 646.694Z" fill="#F28EC0"/>
</svg>
