<svg width="134" height="792" viewBox="0 0 134 792" fill="none" xmlns="http://www.w3.org/2000/svg">
<path d="M103.882 325.771V15.666C103.882 7.52142 110.485 0.918945 118.629 0.918945C126.774 0.918945 133.376 7.52141 133.376 15.666V325.265C133.376 341.834 119.945 355.265 103.376 355.265L29.6499 355.265L29.6499 566.532C29.6499 574.677 23.0474 581.279 14.9028 581.279C6.75824 581.279 0.155762 574.677 0.155764 566.532L0.155799 355.771C0.155801 339.203 13.5873 325.771 30.1558 325.771L103.882 325.771Z" fill="#F28EC0"/>
<path d="M0.505276 776.644L0.505241 626.212C0.505239 618.076 7.1013 611.48 15.2379 611.48C23.3858 611.48 29.9865 618.093 29.9706 626.241L29.6782 776.672C29.6626 784.717 23.1366 791.23 15.0917 791.23C7.03586 791.23 0.505278 784.7 0.505276 776.644Z" fill="#F28EC0"/>
</svg>
