<svg width="333" height="720" viewBox="0 0 333 720" fill="none" xmlns="http://www.w3.org/2000/svg">
<path d="M107.954 342.125L107.953 15C107.953 6.71575 114.669 0 122.953 0C131.238 0 137.953 6.71574 137.953 15L137.954 360.125H181.292C197.86 360.125 211.292 373.557 211.292 390.125V481.52C211.292 498.089 197.86 511.521 181.292 511.521H165.798C157.514 511.521 150.798 504.805 150.798 496.521V495.812C150.798 487.528 157.514 480.812 165.798 480.812H181.292V390.125H137.954C121.386 390.125 107.954 376.694 107.954 360.125V342.125Z" fill="#A4DDD4"/>
<path d="M332.292 630.311V569.834C332.292 553.265 318.86 539.834 302.292 539.834H255.304C247.02 539.834 240.304 546.549 240.304 554.834C240.304 563.118 247.02 569.834 255.304 569.834H302.291V629.833H211.292C194.723 629.833 181.292 643.265 181.292 659.833V705.018C181.292 713.029 187.786 719.524 195.798 719.524C203.809 719.524 210.304 713.029 210.304 705.018V660.311H302.292C318.86 660.311 332.292 646.88 332.292 630.311Z" fill="#A4DDD4"/>
<path d="M105.304 480.812H30.9209C14.3524 480.812 0.920898 494.244 0.920898 510.812V615.441C0.920898 640.222 21.0099 660.311 45.791 660.311C70.5721 660.311 90.6611 640.222 90.6611 615.441V569.834H196.292C204.576 569.834 211.292 563.118 211.292 554.834C211.292 546.549 204.576 539.834 196.292 539.834H90.6612C74.0926 539.834 60.6611 553.265 60.6611 569.834V614.964C60.6611 623.177 54.0036 629.833 45.791 629.833C37.5785 629.833 30.9209 623.177 30.9209 614.964V511.521H105.304C113.588 511.521 120.304 504.805 120.304 496.521V495.812C120.304 487.528 113.588 480.812 105.304 480.812Z" fill="#A4DDD4"/>
</svg>
