<svg width="351" height="850" viewBox="0 0 351 850" fill="none" xmlns="http://www.w3.org/2000/svg">
<path d="M106.215 336.842L106.214 15.2334C106.214 7.08884 112.816 0.486328 120.961 0.486328C129.105 0.486328 135.708 7.08878 135.708 15.2333L135.709 354.539H177.809C194.378 354.539 207.809 367.97 207.809 384.539V473.381C207.809 489.949 194.378 503.381 177.809 503.381H163.336C155.052 503.381 148.336 496.57 148.336 488.285C148.336 480.001 155.052 473.19 163.336 473.19H178.315V384.033H136.215C119.646 384.033 106.215 370.601 106.215 354.033V336.842Z" fill="#A4DDD4"/>
<path d="M350.319 619.662V561.216C350.319 544.648 336.888 531.216 320.319 531.216H251.08C242.935 531.216 236.333 537.819 236.333 545.963C236.333 554.108 242.935 560.71 251.08 560.71H320.825V619.698H165.85C149.281 619.698 135.85 633.13 135.85 649.698V729.434C135.85 746.002 149.281 759.434 165.85 759.434H269.877C278.162 759.434 284.877 766.149 284.877 774.434C284.877 782.718 278.162 789.434 269.877 789.434H208.315C191.747 789.434 178.315 802.865 178.315 819.434V834.925C178.315 842.938 184.811 849.434 192.824 849.434C201.021 849.434 207.59 842.648 207.325 834.456L206.838 819.434H275.825C300.678 819.434 320.825 799.286 320.825 774.434C320.825 749.581 300.678 729.434 275.825 729.434H164.373V649.662H320.319C336.888 649.662 350.319 636.23 350.319 619.662Z" fill="#A4DDD4"/>
<path d="M103.356 473.19H30.9863C14.4178 473.19 0.986328 486.622 0.986328 503.19V715.284C0.986328 739.647 20.7366 759.397 45.0998 759.397C69.4629 759.397 89.2132 739.647 89.2132 715.284V560.71H193.062C201.207 560.71 207.809 554.108 207.809 545.963C207.809 537.819 201.207 531.216 193.062 531.216H89.7191C73.1506 531.216 59.7191 544.648 59.7191 561.216V714.814C59.7191 722.888 53.1738 729.434 45.0998 729.434C37.0257 729.434 30.4804 722.888 30.4804 714.814V503.381H103.356C111.641 503.381 118.356 496.57 118.356 488.285C118.356 480.001 111.641 473.19 103.356 473.19Z" fill="#A4DDD4"/>
</svg>
