<svg width="374" height="661" viewBox="0 0 374 661" fill="none" xmlns="http://www.w3.org/2000/svg">
<path fill-rule="evenodd" clip-rule="evenodd" d="M0.119141 15V240.683C0.119141 257.252 13.5506 270.683 30.1191 270.683H75.3011V328.33C75.3011 353.183 95.4482 373.33 120.301 373.33C145.154 373.33 165.301 353.183 165.301 328.33V297.683C165.301 289.399 158.585 282.683 150.301 282.683C142.017 282.683 135.301 289.399 135.301 297.683V328.331C135.301 336.615 128.585 343.331 120.301 343.331C112.017 343.331 105.301 336.615 105.301 328.331V270.683C105.301 254.115 91.8694 240.683 75.3009 240.683H30.1191V15C30.1191 6.71573 23.4034 0 15.1191 0C6.83486 0 0.119141 6.71572 0.119141 15ZM165.301 61.7373H224.301V481.186C224.301 497.859 237.896 511.333 254.568 511.185L328.537 510.526C336.873 510.452 343.671 517.34 343.671 525.677C343.671 533.961 336.955 540.826 328.671 540.826H254.301C237.732 540.826 224.301 554.257 224.301 570.826V645.082C224.301 653.366 231.017 660.082 239.301 660.082C247.585 660.082 254.301 653.366 254.301 645.082V570.391H328.671C353.523 570.391 373.671 550.244 373.671 525.392C373.671 500.539 353.523 480.392 328.671 480.392H254.301V61.7373C254.301 45.1687 240.869 31.7373 224.301 31.7373H165.301C148.732 31.7373 135.301 45.1687 135.301 61.7373V237.683C135.301 245.968 142.017 252.683 150.301 252.683C158.585 252.683 165.301 245.968 165.301 237.683V61.7373Z" fill="#A4DDD4"/>
</svg>
