<svg width="368" height="792" viewBox="0 0 368 792" fill="none" xmlns="http://www.w3.org/2000/svg">
<path d="M0.229004 236.704V15.3329C0.229004 7.1884 6.83147 0.585938 14.976 0.585938C23.1206 0.585938 29.723 7.18839 29.723 15.3329V237.21H73.637C90.2056 237.21 103.637 250.642 103.637 267.21V356.347C103.637 364.491 110.239 371.094 118.384 371.094C126.529 371.094 133.131 364.491 133.131 356.347V293.249C133.131 285.105 139.734 278.502 147.878 278.502C156.023 278.502 162.625 285.105 162.625 293.249V356.346C162.625 380.78 142.818 400.587 118.384 400.587C93.9505 400.587 74.1431 380.78 74.1431 356.346V266.704H30.229C13.6605 266.704 0.229004 253.273 0.229004 236.704Z" fill="#A4DDD4"/>
<path d="M220.63 61.2821H162.625V234.261C162.625 242.406 156.023 249.008 147.878 249.008C139.734 249.008 133.131 242.406 133.131 234.261V61.788C133.131 45.2195 146.563 31.788 163.131 31.788H220.124C236.693 31.788 250.124 45.2195 250.124 61.788V472.876H323.24C347.674 472.876 367.481 492.684 367.481 517.117C367.481 541.551 347.674 561.358 323.24 561.358H250.124V776.346C250.124 784.491 243.522 791.094 235.377 791.094C227.233 791.094 220.63 784.491 220.63 776.346V562.292C220.63 545.723 234.062 532.292 250.63 532.292H323.093C331.319 532.292 337.987 525.623 337.987 517.398C337.987 509.12 331.237 502.43 322.96 502.504L250.897 503.146C234.225 503.294 220.63 489.82 220.63 473.147V61.2821Z" fill="#A4DDD4"/>
</svg>
