<svg width="374" height="661" viewBox="0 0 374 661" fill="none" xmlns="http://www.w3.org/2000/svg">
<path d="M0.119141 240.683V15C0.119141 6.71572 6.83486 0 15.1191 0C23.4034 0 30.1191 6.71573 30.1191 15V240.683H75.3009C91.8694 240.683 105.301 254.115 105.301 270.683V328.331C105.301 336.615 112.017 343.331 120.301 343.331C128.585 343.331 135.301 336.615 135.301 328.331V297.683C135.301 289.399 142.017 282.683 150.301 282.683C158.585 282.683 165.301 289.399 165.301 297.683V328.33C165.301 353.183 145.154 373.33 120.301 373.33C95.4482 373.33 75.3011 353.183 75.3011 328.33V270.683H30.1191C13.5506 270.683 0.119141 257.252 0.119141 240.683Z" fill="#F28EC0"/>
<path d="M224.301 61.7373H165.301V237.683C165.301 245.968 158.585 252.683 150.301 252.683C142.017 252.683 135.301 245.968 135.301 237.683V61.7373C135.301 45.1687 148.732 31.7373 165.301 31.7373H224.301C240.869 31.7373 254.301 45.1687 254.301 61.7373V480.392H328.671C353.523 480.392 373.671 500.539 373.671 525.392C373.671 550.244 353.523 570.391 328.671 570.391H254.301V645.082C254.301 653.366 247.585 660.082 239.301 660.082C231.017 660.082 224.301 653.366 224.301 645.082V570.826C224.301 554.257 237.732 540.826 254.301 540.826H328.671C336.955 540.826 343.671 533.961 343.671 525.677C343.671 517.34 336.873 510.452 328.537 510.526L254.568 511.185C237.896 511.333 224.301 497.859 224.301 481.186V61.7373Z" fill="#F28EC0"/>
</svg>
