<svg width="331" height="181" viewBox="0 0 331 181" fill="none" xmlns="http://www.w3.org/2000/svg">
<path d="M220.727 15.5698V65.5698C220.727 73.8534 227.442 80.5688 235.726 80.5688C244.009 80.5688 250.725 73.8534 250.725 65.5698V15.5698C250.728 7.28621 244.012 0.570801 235.729 0.570801C227.442 0.570801 220.727 7.28621 220.727 15.5698ZM235.729 70.5695C232.968 70.5695 230.729 68.331 230.729 65.5698V15.5698C230.729 12.8086 232.968 10.5702 235.729 10.5702C238.49 10.5702 240.728 12.8086 240.728 15.5698V65.5698C240.728 68.331 238.49 70.5695 235.729 70.5695Z" fill="#A4DDD4"/>
<path d="M50.7343 50.5715V10.5709C50.7343 5.04847 46.2574 0.571533 40.7318 0.571533H20.7331C15.2107 0.571533 10.7337 5.04847 10.7337 10.5709V50.5683C5.21131 50.5715 0.734375 55.0484 0.734375 60.5708V65.5705C0.734375 68.3317 2.97284 70.5702 5.73405 70.5702C8.49526 70.5702 10.7337 68.3317 10.7337 65.5705V60.5708H50.7311V65.5705C50.7311 68.3317 52.9696 70.5702 55.7308 70.5702C58.492 70.5702 60.7305 68.3317 60.7305 65.5705V60.5708C60.7337 55.0484 56.2567 50.5715 50.7343 50.5715ZM40.7318 50.5715H20.7331V10.5709H40.7318V50.5715Z" fill="#A4DDD4"/>
<path d="M320.726 160.567V90.568C320.726 85.0455 316.249 80.5686 310.727 80.5686H290.728C285.206 80.5686 280.729 85.0455 280.729 90.568V160.567C275.206 160.567 270.729 165.044 270.729 170.566V175.566C270.729 178.327 272.968 180.565 275.729 180.565C278.49 180.565 280.729 178.327 280.729 175.566V170.566H320.726V175.566C320.726 178.327 322.965 180.565 325.726 180.565C328.487 180.565 330.726 178.327 330.726 175.566V170.566C330.726 165.044 326.249 160.567 320.726 160.567ZM310.724 160.567H290.725V90.568H310.724V160.567Z" fill="#A4DDD4"/>
<path d="M70.7324 10.5702V75.5691C70.7324 78.3303 72.9709 80.5688 75.7321 80.5688C78.4933 80.5688 80.7318 78.3303 80.7318 75.5691V40.5682H100.73C106.253 40.5682 110.73 36.0913 110.73 30.5689V10.5702C110.73 5.04774 106.253 0.570801 100.73 0.570801H80.7318C75.2094 0.570801 70.7324 5.04774 70.7324 10.5702ZM100.73 30.5689H80.7318V10.5702H100.73V30.5689Z" fill="#A4DDD4"/>
<path d="M260.727 5.57048V60.5701C260.727 66.0925 265.203 70.5695 270.726 70.5695H290.725C296.247 70.5695 300.724 66.0925 300.724 60.5701H310.723V65.5698C310.723 68.331 312.962 70.5695 315.723 70.5695C318.484 70.5695 320.723 68.331 320.723 65.5698V5.57048C320.726 2.80927 318.487 0.570801 315.723 0.570801C312.962 0.570801 310.723 2.80927 310.723 5.57048V50.5676H300.724C295.202 50.5676 290.725 55.0445 290.725 60.5669H270.726V5.57048C270.726 2.80927 268.487 0.570801 265.726 0.570801C262.965 0.570801 260.727 2.80927 260.727 5.57048Z" fill="#A4DDD4"/>
<path d="M280.727 5.57048C280.727 8.33168 282.965 10.5702 285.726 10.5702H295.726C298.487 10.5702 300.725 8.33168 300.725 5.57048C300.725 2.80927 298.487 0.570801 295.726 0.570801H285.726C282.965 0.570801 280.727 2.80927 280.727 5.57048Z" fill="#A4DDD4"/>
<path d="M30.7324 130.565V95.5676C30.7324 87.284 24.017 80.5686 15.7334 80.5686C7.44978 80.5686 0.734375 87.284 0.734375 95.5676V170.566C0.734375 176.088 5.21131 180.565 10.7337 180.565H40.7318C46.2542 180.565 50.7311 176.088 50.7311 170.566V140.568C50.7311 135.045 46.2542 130.569 40.7318 130.569H30.7324V130.565ZM15.7334 90.568C18.4946 90.568 20.7331 92.8064 20.7331 95.5676V130.565H10.7337V95.5676C10.7337 92.8064 12.9722 90.568 15.7334 90.568ZM40.7318 170.566H10.7337V140.568H40.7318V170.566Z" fill="#A4DDD4"/>
<path d="M190.729 120.566V175.566C190.729 178.327 188.49 180.565 185.729 180.565C182.968 180.565 180.729 178.327 180.729 175.566V120.566V115.566C180.729 112.805 178.491 110.567 175.729 110.567C172.968 110.567 170.73 112.805 170.73 115.566V120.566V175.566C170.73 178.327 168.491 180.565 165.73 180.565C162.969 180.565 160.73 178.327 160.73 175.566V120.566V115.566C160.73 107.283 167.446 100.567 175.729 100.567C184.013 100.567 190.729 107.283 190.729 115.566V120.566Z" fill="#A4DDD4"/>
<path d="M75.6587 180.565H65.7331C62.9719 180.565 60.7334 178.327 60.7334 175.566C60.7334 172.805 62.9719 170.566 65.7331 170.566H75.6587H80.7321C86.2545 170.566 90.7315 166.089 90.7315 160.567V150.247C90.7315 144.724 86.2545 140.247 80.7321 140.247H75.6587H75.9216C70.3992 140.247 65.9223 135.77 65.9223 130.248V120.249C65.9223 114.726 70.3992 110.249 75.9216 110.249L85.7318 110.57C88.493 110.57 90.7315 108.332 90.7315 105.57C90.7315 102.809 88.493 100.571 85.7318 100.571H65.9191C63.1579 100.571 60.9194 98.3322 60.9194 95.571C60.9194 92.829 63.129 90.5969 65.871 90.5713H65.9223H75.6587H85.7318C94.0154 90.5713 100.731 97.2867 100.731 105.57C100.731 113.854 94.0154 120.569 85.7318 120.569L75.9216 120.249L75.6587 130.248H80.7321C91.7769 130.248 100.731 139.202 100.731 150.247V160.567C100.731 171.612 91.7769 180.565 80.7321 180.565H75.6587Z" fill="#A4DDD4"/>
<path d="M200.728 105.567C200.728 113.851 207.443 120.566 215.727 120.566H250.724V130.565H210.727C205.204 130.565 200.728 135.042 200.728 140.565V175.562C200.728 178.324 202.966 180.562 205.727 180.562C208.488 180.562 210.727 178.324 210.727 175.562V140.568H250.724V175.562C250.724 178.324 252.963 180.562 255.724 180.562C258.485 180.562 260.724 178.324 260.724 175.562V100.567C260.724 95.0448 256.247 90.5679 250.724 90.5679H215.727C207.443 90.5679 200.728 97.2833 200.728 105.567ZM250.728 110.567H215.727C212.965 110.567 210.727 108.328 210.727 105.567C210.727 102.806 212.965 100.567 215.727 100.567H250.724V110.567H250.728Z" fill="#A4DDD4"/>
<path d="M185.729 90.5682H186.371C189.132 90.5682 191.37 88.3297 191.37 85.5685V10.5702H197.207H205.728C208.489 10.5702 210.728 8.33168 210.728 5.57048C210.728 2.80927 208.489 0.570801 205.728 0.570801H190.729C185.206 0.570801 180.729 5.04774 180.729 10.5702V85.5685C180.729 88.3297 182.968 90.5682 185.729 90.5682Z" fill="#A4DDD4"/>
<path d="M115.729 180.565H116.37C119.131 180.565 121.37 178.327 121.37 175.566V110.567H127.207H145.73C148.491 110.567 150.73 108.328 150.73 105.567C150.73 102.806 148.491 100.567 145.73 100.567H120.732C115.209 100.567 110.732 105.044 110.732 110.567V175.566C110.729 178.327 112.968 180.565 115.729 180.565Z" fill="#A4DDD4"/>
<path d="M168.122 5.6858L168.376 80.45C168.376 85.9917 164.149 90.5007 158.899 90.568H133.173C130.524 90.568 128.378 88.3039 128.378 85.5106C128.378 82.7173 130.524 80.4532 133.173 80.4532H158.899L158.646 40.4526H130.209C124.976 40.4526 120.729 35.9757 120.729 30.4533V5.57034C120.729 2.76424 122.92 0.50653 125.578 0.57067C126.864 0.602739 128.022 1.17358 128.859 2.07474C129.696 2.97911 130.209 4.21379 130.209 5.57034V30.4501H158.646V5.83332C158.646 3.08815 160.772 0.692535 163.373 0.689328C164.688 0.686121 165.874 1.24413 166.734 2.15492C167.593 3.05608 168.122 4.30359 168.122 5.6858Z" fill="#A4DDD4"/>
</svg>
